<?xml version="1.0" encoding="utf-8"?>
<!-- Generator: Adobe Illustrator 23.0.1, SVG Export Plug-In . SVG Version: 6.00 Build 0)  -->
<svg version="1.1" id="Слой_1" xmlns="http://www.w3.org/2000/svg" xmlns:xlink="http://www.w3.org/1999/xlink" x="0px" y="0px"
	 width="70px" height="70px" viewBox="0 0 70 70" style="enable-background:new 0 0 70 70;" xml:space="preserve">
<style type="text/css">
	.st0{display:none;fill:#FF5555;}
	.st1{fill:#FF5555;}
	.st2{fill:none;}
</style>
<rect x="32.8" y="48.6" class="st0" width="36" height="4.1"/>
<rect x="33.3" y="49.1" class="st1" width="35.2" height="3.6"/>
<circle class="st1" cx="54.3" cy="60.9" r="2.8"/>
<circle class="st1" cx="60.9" cy="60.9" r="2.8"/>
<circle class="st0" cx="61.2" cy="60.9" r="2.8"/>
<path d="M54.1,40.5V18.1H42.8v-6.9C42.8,5,37.8,0,31.6,0c-1.5,0-3,0.3-4.5,0.9l0,0l0,0C25.7,0.3,24.2,0,22.6,0
	c-6.2,0-11.2,5-11.2,11.2v6.9H0.2v51.7h29.1v-2H2.2V20.1h9.3V25h-0.1c-1.3,0.5-2.2,1.7-2.2,3.1c0,1.8,1.5,3.3,3.3,3.3
	s3.3-1.5,3.3-3.3c0-1.4-0.9-2.6-2.2-3.1h-0.1v-4.9h18.3V25h-0.1c-1.3,0.5-2.2,1.7-2.2,3.1c0,1.8,1.5,3.3,3.3,3.3
	c1.8,0,3.3-1.5,3.3-3.3c0-1.4-0.9-2.6-2.2-3.1h-0.1v-4.9h9.3v20.3h2V20.1h7v20.3L54.1,40.5L54.1,40.5z M13.7,28.2
	c0,0.7-0.6,1.2-1.2,1.2s-1.2-0.6-1.2-1.2c0-0.7,0.6-1.2,1.2-1.2S13.7,27.5,13.7,28.2z M20.5,18.1h-7v-6.9c0-5,4.1-9.2,9.2-9.2
	c0.7,0,1.3,0.1,2,0.2l0.2,0.1l-0.2,0.2c-2.7,2.1-4.2,5.3-4.2,8.7V18.1z M22.5,18.1v-6.9c0-3.2,1.8-6.3,4.6-7.9h0.1h0.1
	C30,5,31.8,8,31.8,11.2v6.9H22.5z M34.1,28.2c0,0.7-0.6,1.2-1.2,1.2c-0.7,0-1.2-0.6-1.2-1.2c0-0.7,0.6-1.2,1.2-1.2
	C33.5,26.9,34.1,27.5,34.1,28.2z M40.8,18.1h-7v-6.9c0-3.4-1.5-6.6-4.2-8.7l-0.2-0.2l0.2-0.1C30.3,2,30.9,2,31.6,2
	c5,0,9.2,4.1,9.2,9.2V18.1z"/>
<path d="M66.7,43H35.1c-1.8,0-3.3,1.5-3.3,3.3v20.3c0,1.8,1.5,3.3,3.3,3.3h31.6c1.8,0,3.3-1.5,3.3-3.3V46.2
	C69.9,44.4,68.5,43,66.7,43z M67.9,66.6c0,0.7-0.6,1.2-1.2,1.2H35.1c-0.7,0-1.2-0.6-1.2-1.2V54H68L67.9,66.6L67.9,66.6z M67.9,52
	H33.8v-2.5h34.1C67.9,49.5,67.9,52,67.9,52z M67.9,47.5H33.8v-1.2c0-0.7,0.6-1.2,1.2-1.2h31.6c0.7,0,1.2,0.6,1.2,1.2v1.2H67.9z"/>
<path d="M61,56.5c-1.3,0-2.5,0.6-3.3,1.5l-0.1,0.1l0-0.1c-0.8-1-2-1.5-3.3-1.5c-2.4,0-4.4,2-4.4,4.4s2,4.4,4.4,4.4
	c1.3,0,2.5-0.6,3.3-1.5l0.1-0.1l0.1,0.1c0.8,1,2,1.5,3.3,1.5c2.4,0,4.4-2,4.4-4.4S63.5,56.5,61,56.5z M54.3,63.3
	c-1.3,0-2.4-1.1-2.4-2.4s1.1-2.4,2.4-2.4s2.4,1.1,2.4,2.4S55.6,63.3,54.3,63.3z M61,63.3c-1.3,0-2.4-1.1-2.4-2.4s1.1-2.4,2.4-2.4
	s2.4,1.1,2.4,2.4S62.3,63.3,61,63.3z"/>
<rect x="47.6" y="22.6" width="2" height="17.8"/>
<rect class="st2" width="70" height="70"/>
<rect class="st2" width="70" height="70"/>
</svg>
