<?xml version="1.0" encoding="utf-8"?>
<!-- Generator: Adobe Illustrator 23.0.1, SVG Export Plug-In . SVG Version: 6.00 Build 0)  -->
<svg version="1.1" id="Слой_1" xmlns="http://www.w3.org/2000/svg" xmlns:xlink="http://www.w3.org/1999/xlink" x="0px" y="0px"
	 width="90px" height="90px" viewBox="0 0 90 90" style="enable-background:new 0 0 90 90;" xml:space="preserve">
<style type="text/css">
	.st0{fill:none;}
	.st1{fill:#FF5555;}
</style>
<rect class="st0" width="90" height="90"/>
<g>
	<path class="st1" d="M25.7,52.6c0,0-5.8,7.4-5.6,7.4s3.8,6.1,3.8,6.1l6.1,3.6l7.3-5.6l-9.3-7.9L25.7,52.6L25.7,52.6z"/>
</g>
<g>
	<path class="st1" d="M64.6,21.1c-2.8,0-5.2,2.3-5.2,5.2s2.3,5.2,5.2,5.2s5.2-2.3,5.2-5.2S67.4,21.1,64.6,21.1L64.6,21.1z"/>
</g>
<path d="M2.8,88c0-0.6-0.5-1-1-1c-0.6,0-1,0.5-1,1s0.5,1,1,1C2.3,89,2.8,88.5,2.8,88z"/>
<path d="M47.7,43.3c0-0.6-0.5-1-1-1s-1,0.5-1,1s0.5,1,1,1S47.7,43.9,47.7,43.3z"/>
<path d="M64.5,19.6c-1.8,0-3.5,0.7-4.8,2c-2.6,2.6-2.6,6.9,0,9.5c1.3,1.3,3,2,4.8,2s3.5-0.7,4.8-2c2.6-2.6,2.6-6.9,0-9.5
	C68,20.3,66.3,19.6,64.5,19.6z M67.8,29.7c-0.9,0.9-2.1,1.4-3.3,1.4c-1.3,0-2.4-0.5-3.3-1.4c-1.8-1.8-1.8-4.8,0-6.7
	c0.9-0.9,2.1-1.4,3.3-1.4c1.3,0,2.4,0.5,3.3,1.4C69.6,24.8,69.6,27.8,67.8,29.7z"/>
<path d="M16.3,67.8c-0.1,0-0.2-0.1-0.3-0.1c-0.2,0-0.3,0-0.4,0.1L11.3,70C8.6,71.3,6.8,74,6.6,77l-0.2,2.4c-0.1,1.1,0.3,2.2,1.1,3
	c0.8,0.8,1.8,1.2,3,1.1l2.4-0.2c3-0.2,5.7-2,7.1-4.7l2.1-4.2c0.1-0.2,0.1-0.5,0.1-0.8c-0.1-0.3-0.3-0.5-0.5-0.6l0,0
	c-0.2-0.1-0.5-0.1-0.8-0.1c-0.3,0.1-0.5,0.3-0.6,0.5l-2.1,4.2c-1,2.1-3.1,3.4-5.4,3.6l-2.4,0.2C9.6,81.6,9.2,81.2,9,81
	s-0.6-0.7-0.5-1.4l0.2-2.4c0.2-2.3,1.5-4.4,3.6-5.4l4.2-2.1c0.2-0.1,0.4-0.3,0.5-0.6c0.1-0.3,0.1-0.5-0.1-0.8S16.5,67.9,16.3,67.8z"
	/>
<path d="M56,78.2c5.5-5.5,8.5-12.8,8.5-20.6v-10l4.4-3.4c12-9.3,19.4-23.4,20.1-38.6l0-0.9c0-0.9-0.3-1.9-1-2.5
	c-0.7-0.7-1.6-1-2.5-0.9l-1.6,0.1c-14.5,0.9-28,7.9-37.1,19.2l-4.1,5l-10.5-0.3c-7.8,0-15.2,3-20.7,8.5L1.2,44.1
	C1,44.3,0.9,44.8,1,45.1c0.1,0.4,0.5,0.6,0.9,0.6L25.2,47l-1.8,2.2c-0.3,0.3-0.3,0.8-0.1,1.1c0.3,0.6,0.7,1.2,1.1,1.8l0.3,0.5
	l-5.5,6.6c-0.3,0.3-0.3,0.7-0.1,1.1c1.1,2.3,2.5,4.4,4.3,6.2c1.8,1.8,3.9,3.3,6.3,4.4c0.3,0.2,0.8,0.1,1.1-0.1c1.1-0.9,2.4-2,3.6-3
	l0.2-0.2c0.8-0.7,1.6-1.4,2.4-2l0.4-0.3l0.5,0.3c0.5,0.3,1,0.6,1.5,0.9c0.3,0.2,0.8,0.2,1.1-0.1l2.3-1.8L44,87.8
	c0,0.4,0.3,0.7,0.6,0.9c0.4,0.1,0.8,0.1,1.1-0.2L56,78.2z M4.3,43.9l8.7-8.7c5.1-5.1,11.9-7.9,19.2-8l8.9,0.3L26.8,45L4.3,43.9z
	 M32.8,66.4c-0.8,0.7-1.7,1.4-2.5,2.1l-0.4,0.3l-0.4-0.2c-1.8-0.9-3.3-2.1-4.7-3.5c-1.3-1.4-2.5-2.9-3.4-4.6L21.1,60l4.7-5.6
	l0.6,0.8c1.1,1.5,2.3,2.9,3.7,4.3l0.1,0.1c1.5,1.5,3,2.8,4.7,4l0.8,0.6L32.8,66.4z M39.7,64.3L39.3,64c-2.3-1.4-4.5-3-6.5-4.8
	l-0.6-0.5l9.8-9.8c0.2-0.2,0.3-0.4,0.3-0.7c0-0.3-0.1-0.5-0.3-0.7c-0.4-0.4-1-0.4-1.4,0l-9.8,9.8l-0.5-0.6c-1.7-1.9-3.3-4-4.6-6.3
	L25.4,50l22.9-28.2C57.1,10.9,70.1,4.2,84,3.3l1.6-0.1c0.4,0,0.7,0.1,1,0.4c0.3,0.3,0.4,0.6,0.4,1l0,0.9
	c-0.7,14.6-7.8,28.2-19.3,37.1L39.7,64.3z M44.7,63l17.8-13.8v8.4c0,7.3-2.8,14.1-8,19.2l-8.7,8.7L44.7,63z"/>
</svg>
