<?xml version="1.0" encoding="utf-8"?>
<!-- Generator: Adobe Illustrator 23.0.1, SVG Export Plug-In . SVG Version: 6.00 Build 0)  -->
<svg version="1.1" id="Слой_1" xmlns="http://www.w3.org/2000/svg" xmlns:xlink="http://www.w3.org/1999/xlink" x="0px" y="0px"
	 width="70px" height="70px" viewBox="0 0 70 70" style="enable-background:new 0 0 70 70;" xml:space="preserve">
<style type="text/css">
	.st0{fill:none;}
</style>
<path d="M68.8,23.5h-35c-0.6,0-1,0.4-1,1v44.3c0,0.6,0.4,1,1,1h35c0.6,0,1-0.4,1-1V24.5C69.8,23.9,69.4,23.5,68.8,23.5z M67.8,67.8
	h-33v-33h33V67.8z M67.8,32.8h-33v-2.7h14v-2h-14v-2.7h33V32.8z"/>
<rect x="41" y="37.5" width="3.2" height="2"/>
<rect x="46.8" y="37.5" width="3.2" height="2"/>
<rect x="52.7" y="37.5" width="3.2" height="2"/>
<rect x="58.5" y="37.5" width="3.2" height="2"/>
<rect x="38.7" y="43.3" width="4.3" height="2"/>
<rect x="45.7" y="43.3" width="4.3" height="2"/>
<rect x="52.7" y="43.3" width="4.3" height="2"/>
<rect x="59.7" y="43.3" width="4.3" height="2"/>
<rect x="38.7" y="48" width="4.3" height="2"/>
<rect x="45.7" y="48" width="4.3" height="2"/>
<rect x="52.7" y="48" width="4.3" height="2"/>
<rect x="59.7" y="48" width="4.3" height="2"/>
<rect x="38.7" y="52.7" width="4.3" height="2"/>
<rect x="45.7" y="52.7" width="4.3" height="2"/>
<rect x="52.7" y="52.7" width="4.3" height="2"/>
<rect x="59.7" y="52.7" width="4.3" height="2"/>
<rect x="38.7" y="57.3" width="4.3" height="2"/>
<rect x="45.7" y="57.3" width="4.3" height="2"/>
<rect x="52.7" y="57.3" width="4.3" height="2"/>
<rect x="59.7" y="57.3" width="4.3" height="2"/>
<rect x="38.7" y="62" width="4.3" height="2"/>
<rect x="45.7" y="62" width="4.3" height="2"/>
<rect x="52.7" y="62" width="4.3" height="2"/>
<rect x="59.7" y="62" width="4.3" height="2"/>
<path d="M58.2,18.5V1.2c0-0.6-0.4-1-1-1h-42c-0.1,0-0.2,0-0.2,0.1l0,0h-0.1c-0.1,0-0.1,0.1-0.2,0.1c-0.1,0-0.1,0-0.1,0.1l-14,14
	c0,0-0.1,0.1-0.1,0.1c0,0-0.1,0.1-0.1,0.2v0.1c0,0.1,0,0.2-0.1,0.3c0,0,0,0.1,0,0.1v12.7h2V16.2h13c0.6,0,1-0.4,1-1v-13h40v16.3
	H58.2z M14.2,14.2H3.6L14.2,3.6V14.2z"/>
<path d="M15.2,32.8h-14c-0.6,0-1,0.4-1,1v35c0,0.6,0.4,1,1,1h28c0.6,0,1-0.4,1-1V51.3c0-0.6-0.4-1-1-1h-13V33.8
	C16.2,33.2,15.8,32.8,15.2,32.8z M14.2,67.8h-12V64h12V67.8z M14.2,62h-12v-3.8h12V62z M14.2,56.2h-12v-3.8h12V56.2z M14.2,50.3h-12
	v-3.8h12V50.3z M14.2,44.5h-12v-3.8h12V44.5z M14.2,38.7h-12v-3.8h12V38.7z M28.2,67.8h-12V64h12V67.8z M28.2,62h-12v-3.8h12V62z
	 M28.2,52.3v3.8h-12v-3.8H28.2z"/>
<rect x="44.5" y="6" width="7.8" height="2"/>
<rect x="31.7" y="11.8" width="20.7" height="2"/>
<rect x="51.6" y="28.2" width="2.9" height="2"/>
<rect class="st0" width="70" height="70"/>
</svg>
