<?xml version="1.0" encoding="utf-8"?>
<!-- Generator: Adobe Illustrator 23.0.1, SVG Export Plug-In . SVG Version: 6.00 Build 0)  -->
<svg version="1.1" id="Слой_1" xmlns="http://www.w3.org/2000/svg" xmlns:xlink="http://www.w3.org/1999/xlink" x="0px" y="0px"
	 width="70px" height="70px" viewBox="0 0 70 70" style="enable-background:new 0 0 70 70;" xml:space="preserve">
<style type="text/css">
	.st0{fill:none;}
</style>
<path d="M35,0.2C15.8,0.2,0.2,15.8,0.2,35S15.8,69.8,35,69.8S69.8,54.2,69.8,35S54.2,0.2,35,0.2z M35,67.8
	C16.9,67.8,2.2,53.1,2.2,35S16.9,2.2,35,2.2S67.8,16.9,67.8,35S53.1,67.8,35,67.8z"/>
<path d="M35,6C19,6,6,19,6,35s13,29,29,29s29-13,29-29S51,6,35,6z M35,62C20.1,62,8,49.9,8,35S20.1,8,35,8s27,12.1,27,27
	S49.9,62,35,62z"/>
<path d="M40.3,40L40.3,40l11.9-20.8c0.2-0.4,0.2-0.9-0.2-1.2c-0.3-0.3-0.8-0.4-1.2-0.2L30,29.7l0,0l0,0c-0.1,0.1-0.2,0.2-0.3,0.3
	l0,0L17.8,50.9c-0.2,0.4-0.2,0.9,0.2,1.2c0.3,0.3,0.8,0.4,1.2,0.2l20.8-12l0,0C40.1,40.2,40.2,40.1,40.3,40z M37.6,39.4l-16.3,9.3
	l9.4-16.5l7.1,7.1L37.6,39.4z M39.2,37.8l-7.1-7.1l16.5-9.4L39.2,37.8z"/>
<path d="M16.3,34h-4.7c-0.6,0-1,0.5-1,1c0,0.6,0.5,1,1,1h4.7c0.6,0,1-0.5,1-1C17.3,34.4,16.9,34,16.3,34z"/>
<path d="M58.3,34h-4.7c-0.6,0-1,0.5-1,1c0,0.6,0.5,1,1,1h4.7c0.6,0,1-0.5,1-1C59.3,34.4,58.9,34,58.3,34z"/>
<path d="M35,10.7c-0.6,0-1,0.5-1,1v4.7c0,0.6,0.5,1,1,1s1-0.5,1-1v-4.7C36,11.1,35.6,10.7,35,10.7z"/>
<path d="M35,52.7c-0.6,0-1,0.5-1,1v4.7c0,0.6,0.5,1,1,1s1-0.5,1-1v-4.7C36,53.1,35.6,52.7,35,52.7z"/>
<rect class="st0" width="70" height="70"/>
</svg>
