<?xml version="1.0" encoding="utf-8"?>
<!-- Generator: Adobe Illustrator 23.0.1, SVG Export Plug-In . SVG Version: 6.00 Build 0)  -->
<svg version="1.1" id="Слой_1" xmlns="http://www.w3.org/2000/svg" xmlns:xlink="http://www.w3.org/1999/xlink" x="0px" y="0px"
	 width="70px" height="70px" viewBox="0 0 70 70" style="enable-background:new 0 0 70 70;" xml:space="preserve">
<style type="text/css">
	.st0{fill:none;}
</style>
<path d="M29.1,15.8H18.7c-0.9,0-1.7,0.8-1.7,1.7v16.9c0,0.9,0.8,1.7,1.7,1.7h10.4c0.9,0,1.7-0.8,1.7-1.7V17.5
	C30.8,16.6,30,15.8,29.1,15.8z M22.9,34.1h-3.8v-4.2h3.8V34.1z M22.9,27.9h-3.8v-3.8h3.8V27.9z M22.9,22h-3.8v-4.2h3.8V22z
	 M28.8,34.1H25v-4.2h3.8V34.1z M28.8,27.9H25v-3.8h3.8V27.9z M28.8,22H25v-4.2h3.8V22z"/>
<path d="M42.9,56.7c-0.6,0-1,0.5-1,1v2.5c0,0.6,0.5,1,1,1c0.6,0,1-0.5,1-1v-2.5C43.9,57.2,43.4,56.7,42.9,56.7z"/>
<path d="M70,46.4c0-0.4-0.2-0.7-0.5-0.9L47.7,28.7c-0.5-0.4-1.1-0.6-1.7-0.6c-0.6,0-1.2,0.2-1.7,0.6L41,31.2v-2.9c0-0.6-0.5-1-1-1
	c-0.6,0-1,0.5-1,1v4.5L22.7,45.5c-0.3,0.2-0.5,0.6-0.5,0.9c0,0.4,0.1,0.7,0.3,1l1.7,2.2c0.3,0.3,0.7,0.5,1.1,0.5
	c0.3,0,0.6-0.1,0.8-0.3l20.1-15.5l15,11.7v21.4H53v-1.9c0-0.6-0.5-1-1-1c-0.6,0-1,0.5-1,1v1.9h-9.7V51.7H51v14c0,0.6,0.5,1,1,1
	c0.6,0,1-0.5,1-1V51.4c0-0.9-0.8-1.7-1.7-1.7H40.9c-0.9,0-1.7,0.8-1.7,1.7v16.1h-7.8v-2.8c0-0.9-0.8-1.7-1.7-1.7h-1
	c0.1-0.4,0.1-0.8,0.1-1.3c0-3.5-2.9-6.4-6.4-6.4c-1.9,0-3.7,0.9-4.9,2.3c-0.5-0.1-0.9-0.2-1.4-0.2c-0.4,0-0.7,0-1.1,0.1
	c-1.1-1.9-3.2-3.1-5.5-3.1c-0.2,0-0.5,0-0.7,0V20L23.9,8.2L39.1,20v9.5c0,0.6,0.5,1,1,1c0.6,0,1-0.5,1-1v-7.9l2.8,2.2
	c0.2,0.2,0.5,0.3,0.8,0.3c0.4,0,0.8-0.2,1.1-0.5l0,0l1.6-2.2l0,0c0.1-0.1,0.4-0.5,0.3-1c0-0.4-0.2-0.7-0.5-0.9L25.6,2.6
	C25.1,2.2,24.5,2,23.9,2s-1.2,0.2-1.7,0.6l-6,4.6V5.9c0.8-0.1,1.4-0.8,1.4-1.7v-2c0-0.9-0.8-1.7-1.7-1.7H7.7C6.8,0.5,6,1.3,6,2.2v2
	C6,5,6.6,5.7,7.4,5.9v8.2l-6.9,5.3C0.2,19.6,0.1,20,0,20.3c0,0.4,0,0.7,0.3,1L2,23.5C2.2,23.8,2.6,24,3,24c0.3,0,0.6-0.1,0.8-0.3
	l2.8-2.2v33.3c-1.6,0.8-2.9,2.3-3.3,4.1c-1.5,0.6-2.6,2.1-2.6,3.8c0,0.2,0,0.4,0,0.6c-0.3,0.3-0.5,0.7-0.5,1.2v3.1
	c0,0.9,0.8,1.7,1.7,1.7h64.3c0.6,0,1-0.5,1-1c0-0.6-0.5-1-1-1h-3V47.6l2.8,2.2c0.2,0.2,0.5,0.3,0.8,0.3c0.4,0,0.8-0.2,1.1-0.5l0,0
	l1.6-2.2l0,0C69.8,47.2,70.1,46.9,70,46.4z M22.4,57.2c2.4,0,4.4,2,4.4,4.4c0,0.4-0.1,0.9-0.2,1.3h-5.8c0-0.3,0.1-0.5,0.1-0.8
	c0-1.4-0.6-2.6-1.5-3.5C20.1,57.7,21.2,57.2,22.4,57.2z M8,2.6h7.6V4H8V2.6z M14.2,6v2.9l-4.8,3.7V6H14.2z M3.2,21.7l-0.8-1.1
	L23.5,4.2c0.1-0.1,0.3-0.1,0.4-0.1c0.2,0,0.3,0,0.4,0.1l21.2,16.4l-0.8,1.1L24.5,6.1c-0.4-0.3-0.9-0.3-1.3,0L3.2,21.7z M29.3,67.4
	h-27v-2.5h9.4c0.6,0,1-0.5,1-1c0-0.6-0.5-1-1-1h-9v-0.1c0-1,0.7-1.8,1.6-2c0.4-0.1,0.8-0.4,0.8-0.9c0.3-2.1,2.1-3.6,4.2-3.6
	c1.7,0,3.3,1.1,4,2.7c0.1,0.3,0.3,0.5,0.6,0.6s0.6,0.1,0.8,0c0.4-0.2,0.8-0.3,1.2-0.3c1.5,0,2.7,1.2,2.7,2.7c0,0.3,0,0.5-0.1,0.8h-2
	c-0.6,0-1,0.5-1,1c0,0.6,0.5,1,1,1h12.7L29.3,67.4L29.3,67.4z M66.8,47.7L46.7,32.2c-0.4-0.3-0.9-0.3-1.3,0L25.3,47.8l-0.8-1.1
	l21.2-16.4c0.1-0.1,0.3-0.1,0.4-0.1c0.2,0,0.3,0,0.4,0.1l21.2,16.4L66.8,47.7z"/>
<rect class="st0" width="70" height="70"/>
</svg>
