<?xml version="1.0" encoding="utf-8"?>
<!-- Generator: Adobe Illustrator 23.0.1, SVG Export Plug-In . SVG Version: 6.00 Build 0)  -->
<svg version="1.1" id="Слой_1" xmlns="http://www.w3.org/2000/svg" xmlns:xlink="http://www.w3.org/1999/xlink" x="0px" y="0px"
	 width="70px" height="70px" viewBox="0 0 70 70" style="enable-background:new 0 0 70 70;" xml:space="preserve">
<style type="text/css">
	.st0{fill:#FF5555;}
	.st1{fill:none;}
</style>
<polygon class="st0" points="0.7,58.4 0.9,67.3 3,69.1 30.7,69.1 31.3,63.2 30.9,58.4 "/>
<path class="st0" d="M45,10H0.8V3.4C0.8,2.1,1.8,1,3.1,1h39.5C44,1,45,2.1,45,3.4V10z"/>
<path d="M23.1,62.7c-0.3,0-0.5,0.1-0.7,0.3s-0.3,0.4-0.3,0.7s0.1,0.5,0.3,0.7c0.2,0.2,0.5,0.3,0.7,0.3c0.3,0,0.5-0.1,0.7-0.3
	c0.2-0.2,0.3-0.4,0.3-0.7S24,63.2,23.8,63C23.7,62.8,23.4,62.7,23.1,62.7z"/>
<path d="M28,4.6h-8.8c-0.6,0-1,0.4-1,1s0.4,1,1,1H28c0.6,0,1-0.4,1-1S28.5,4.6,28,4.6z"/>
<path d="M26.7,27.4h-6v-4.6h6c0.6,0,1-0.4,1-1s-0.4-1-1-1h-7c-0.6,0-1,0.4-1,1V35c0,0.6,0.4,1,1,1h7c0.6,0,1-0.5,1-1
	c0-0.6-0.4-1-1-1h-6v-4.6h6c0.6,0,1-0.4,1-1S27.2,27.4,26.7,27.4z"/>
<path d="M34.5,40.6H17.7c-0.6,0-1,0.5-1,1s0.4,1,1,1h16.8c0.6,0,1-0.5,1-1S35.1,40.6,34.5,40.6z"/>
<path d="M11.8,40.6c-0.3,0-0.5,0.1-0.7,0.3s-0.3,0.4-0.3,0.7s0.1,0.5,0.3,0.7s0.4,0.3,0.7,0.3s0.5-0.1,0.7-0.3s0.3-0.4,0.3-0.7
	s-0.1-0.5-0.3-0.7C12.3,40.7,12.1,40.6,11.8,40.6z"/>
<path d="M29.2,47.2H17.1c-0.6,0-1,0.5-1,1s0.4,1,1,1h12.1c0.6,0,1-0.5,1-1S29.8,47.2,29.2,47.2z"/>
<path d="M42.4,0.1H3.9c-2.1,0-3.8,1.7-3.8,3.8v62.3c0,2.1,1.7,3.8,3.8,3.8h65c0.6,0,1-0.5,1-1V56c0-3-2-5.6-5.1-6.5l-8-2.5l0.4-0.4
	c1.4-1.7,2.2-3.8,2.2-6v-12h0.1l4.6-2.3v8.4c0,0.6,0.4,1,1,1s1-0.5,1-1v-10c0-0.4-0.2-0.7-0.6-0.9l-14.9-7.4c-0.3-0.1-0.6-0.1-0.9,0
	l-3.5,1.7V3.9C46.2,1.8,44.5,0.1,42.4,0.1z M2.1,3.9c0-1,0.8-1.8,1.8-1.8h38.6c1,0,1.8,0.8,1.8,1.8V9H2.1V3.9z M30.4,67.9H3.9
	c-1,0-1.8-0.8-1.8-1.8v-6.6h28.3V67.9z M30.4,57.6H2.1V11h42.1v8.1h-0.1l-9.3,4.6c-0.3,0.2-0.6,0.5-0.6,0.9s0.2,0.7,0.6,0.9l6.1,3
	v12c0,2.2,0.8,4.3,2.2,6l0.4,0.4h-0.1l-7.9,2.4c-3,0.9-5.1,3.5-5.1,6.5V57.6z M64.3,51.4c2.2,0.7,3.6,2.5,3.6,4.6v11.9h-5v-8.4
	c0-0.6-0.5-1-1-1s-1,0.5-1,1v8.4H39.4v-8.4c0-0.6-0.5-1-1-1s-1,0.5-1,1v8.4h-5V56c0-2.1,1.5-4,3.6-4.6l9.3-2.9l0.1,0.1
	c1.4,0.8,3,1.2,4.6,1.2s3.2-0.4,4.6-1.2l0.2-0.1L64.3,51.4z M57.4,40.6c0,4-3.2,7.2-7.2,7.2S43,44.6,43,40.6v-5.1l0.1,0.1l6.7,3
	c0.3,0.1,0.6,0.1,0.8,0l6.8-3.1C57.4,35.5,57.4,40.6,57.4,40.6z M57.4,33.3L57.4,33.3l-7.2,3.3l0,0L43,33.4v-4.6l0.3-0.1
	c4.6-1.2,9.4-1.2,13.9,0l0.3,0.1L57.4,33.3L57.4,33.3z M50.2,18.4L50.2,18.4l12.6,6.2l-4.4,2.2h-0.1c-5.3-1.5-10.9-1.5-16.2,0H42
	l0,0l-4.4-2.2L50.2,18.4z"/>
<rect class="st1" width="70" height="70"/>
<rect class="st1" width="70" height="70"/>
</svg>
