<?xml version="1.0" encoding="utf-8"?>
<!-- Generator: Adobe Illustrator 23.0.1, SVG Export Plug-In . SVG Version: 6.00 Build 0)  -->
<svg version="1.1" id="Слой_1" xmlns="http://www.w3.org/2000/svg" xmlns:xlink="http://www.w3.org/1999/xlink" x="0px" y="0px"
	 width="70px" height="70px" viewBox="0 0 70 70" style="enable-background:new 0 0 70 70;" xml:space="preserve">
<style type="text/css">
	.st0{fill:none;}
</style>
<circle cx="56.6" cy="13.4" r="1.6"/>
<path d="M50.6,9.8c-0.2,0.2-0.3,0.4-0.3,0.7v8.2c0,0.6,0.5,1,1,1h8.2c0.3,0,0.5-0.1,0.7-0.3l9.3-9.3c0.2-0.2,0.3-0.4,0.3-0.7
	c0-0.3-0.1-0.5-0.3-0.7l-8.2-8.2c-0.2-0.2-0.4-0.3-0.7-0.3c-0.3,0-0.5,0.1-0.7,0.3L50.6,9.8z M67.4,9.3l-8.3,8.3h-6.7v-6.7l8.3-8.3
	L67.4,9.3z"/>
<path d="M46.5,49V21c0-0.6-0.5-1-1-1c-0.1,0-0.3,0-0.4,0.1l-19.8,8.8l-0.1-0.2c-0.6-1.7-2.3-2.9-4.1-2.9h-12c-2.4,0-4.4,2-4.4,4.4
	v0.3H1.2c-0.6,0-1,0.5-1,1v7c0,0.6,0.5,1,1,1h3.7v0.3c0,2,1.4,3.8,3.4,4.2l0.1,0v10.8c0,0.6,0.5,1,1,1h7c0.6,0,1-0.5,1-1V50h1.3
	c1.8,0,3.3-1.5,3.3-3.3v-2.6l0.1,0c1.4-0.3,2.6-1.4,3.1-2.8l0.1-0.2l0.2,0.1l19.6,8.7c0.2,0.1,0.5,0.1,0.8,0
	c0.3-0.1,0.4-0.3,0.6-0.5C46.5,49.3,46.5,49.1,46.5,49z M4.8,37.5H2.2v-5h2.7V37.5z M15.3,53.8h-5v-9.7h5V53.8z M20,46.7
	c0,0.7-0.6,1.3-1.3,1.3h-1.3v-3.8H20V46.7z M23.5,39.8c0,1.3-1.1,2.3-2.3,2.3h-12c-1.3,0-2.3-1.1-2.3-2.3v-9.6
	c0-1.3,1.1-2.3,2.3-2.3h12c1.3,0,2.3,1.1,2.3,2.3V39.8z M37.5,44.3l-0.2-0.1L25.5,39v-8l0.1,0l11.9-5.3V44.3z M44.5,47.5l-5-2.2
	V24.8l5-2.2V47.5z"/>
<path d="M58,46c-0.2-0.2-0.4-0.3-0.7-0.3s-0.5,0.1-0.7,0.3l-8.3,8.3c-0.4,0.4-0.4,1,0,1.4l11.6,11.5c0.2,0.2,0.4,0.3,0.7,0.3
	s0.5-0.1,0.7-0.3l8.2-8.2c0.4-0.4,0.4-1,0-1.4L58,46z M66.2,57L59,56.5l0-0.1l-0.5-7L66.2,57z M60.6,65.1L50.5,55l6-6l0.7,8.5
	c0,0.5,0.4,0.9,0.9,0.9l8.5,0.7L60.6,65.1z"/>
<path d="M44.9,2l-1.4-1.4l-7.1,7.1l-0.1-0.1c-3.5-2.6-8.6-1.9-11.2,1.6c-2.6,3.5-1.9,8.6,1.6,11.2c1.4,1,3.1,1.6,4.8,1.6
	c0,0,0,0,0,0h0c0,0,0,0,0,0c4.4,0,8-3.6,8-8c0-1.7-0.6-3.4-1.6-4.8l-0.1-0.1L37.9,9L44.9,2z M31.5,20c-3.3,0-6-2.7-6-6
	c0-3.3,2.7-6,6-6c3.3,0,6,2.7,6,6S34.8,20,31.5,20z"/>
<path d="M57.2,43h9.3c0.6,0,1-0.5,1-1v-5.8c0-1.9-1.2-3.6-3-4.3l-0.3-0.1l0.3-0.2c2-1.4,2.5-4.3,1.1-6.3c-0.7-1-1.7-1.6-2.9-1.8
	c-1.2-0.2-2.4,0.1-3.4,0.8c-2,1.4-2.5,4.3-1.1,6.3c0.3,0.4,0.6,0.8,1.1,1.1l0.3,0.2l-0.3,0.1c-0.7,0.3-1.4,0.7-1.9,1.3l-0.1,0.1
	l-0.1-0.1c-0.4-0.5-0.9-0.8-1.4-1.1L55.4,32l0.2-0.2c1.5-1.1,1.8-3.2,0.8-4.7c-0.7-0.9-1.7-1.4-2.7-1.4c-0.7,0-1.4,0.2-1.9,0.6
	c-1.5,1.1-1.8,3.2-0.8,4.7c0.2,0.3,0.5,0.5,0.8,0.8l0.2,0.2l-0.2,0.1c-1.5,0.7-2.5,2.3-2.5,4v3.5c0,0.6,0.5,1,1,1h6V42
	C56.2,42.6,56.6,43,57.2,43z M59.3,28c0-1.4,1.1-2.5,2.5-2.5s2.5,1.1,2.5,2.5s-1.1,2.5-2.5,2.5S59.3,29.4,59.3,28z M58.2,36.2
	c0-1.4,1.1-2.5,2.5-2.5H63c1.4,0,2.5,1.1,2.5,2.5V41h-7.3V36.2z M53.7,27.8c0.7,0,1.3,0.6,1.3,1.3c0,0.7-0.6,1.3-1.3,1.3
	s-1.3-0.6-1.3-1.3C52.3,28.4,52.9,27.8,53.7,27.8z M51.2,38.7v-2.5c0-1.4,1.1-2.5,2.5-2.5s2.5,1.1,2.5,2.5v2.5H51.2z"/>
<path d="M43.9,60.2c0.4-0.4,0.4-1,0-1.4L33.4,48.3c-0.2-0.2-0.4-0.3-0.7-0.3H28c-0.3,0-0.5,0.1-0.7,0.3l-7,7
	C20.1,55.5,20,55.7,20,56c0,0.3,0.1,0.5,0.3,0.7l12.8,12.8c0.4,0.4,1,0.4,1.4,0L43.9,60.2z M22.4,56l6-6h3.8l9.5,9.5l-7.9,7.9
	L22.4,56z"/>
<rect x="27.2" y="55" transform="matrix(0.7069 -0.7073 0.7073 0.7069 -30.7196 37.8723)" width="6.3" height="2"/>
<rect x="30.7" y="58.5" transform="matrix(0.7067 -0.7075 0.7075 0.7067 -32.1726 41.3849)" width="6.3" height="2"/>
<rect class="st0" width="70" height="70"/>
</svg>
