<?xml version="1.0" encoding="utf-8"?>
<!-- Generator: Adobe Illustrator 23.0.1, SVG Export Plug-In . SVG Version: 6.00 Build 0)  -->
<svg version="1.1" id="Слой_1" xmlns="http://www.w3.org/2000/svg" xmlns:xlink="http://www.w3.org/1999/xlink" x="0px" y="0px"
	 viewBox="0 0 70 70" style="enable-background:new 0 0 70 70;" xml:space="preserve">
<style type="text/css">
	.st0{fill:#FF5555;}
	.st1{fill:#FFFFFF;}
</style>
<path class="st0" d="M15.1,32.5l-6.3-8.7l-0.2-4.7c0,0,2.6-3.8,2.8-3.8s4.4-1.8,5.1-1.3s5.1,2.9,5.1,3s0.4,4.1,0.4,4.4
	s-2.1,5.8-2.2,5.9S15.1,32.5,15.1,32.5z"/>
<circle class="st1" cx="15.3" cy="21.1" r="1.5"/>
<circle class="st0" cx="23.6" cy="53.4" r="6.4"/>
<circle class="st0" cx="55.8" cy="53.4" r="6.4"/>
<path d="M69.7,38.5c0-0.3-0.1-0.5-0.3-0.7L55,23.4c-0.6-0.6-1.5-1-2.3-1c0,0,0,0,0,0H32.8v2h5.8v17.4h2V24.4h12
	c0.4,0,0.7,0.1,0.9,0.4l2.3,2.3h-5.7c-1.2,0-2.2,1-2.2,2.2v10.5c0,1.2,1,2.2,2.2,2.2h17.6v9.5c0,0.7-0.6,1.3-1.3,1.3h-2.6l0-0.1
	c-0.3-2.1-1.4-4-3.1-5.2s-3.8-1.8-5.9-1.5c-3.5,0.5-6.2,3.3-6.7,6.7l0,0.1H31.3l0-0.1c-0.6-4.3-4.7-7.4-9-6.7
	c-3.5,0.5-6.2,3.3-6.7,6.7l0,0.1h-2.6c-0.7,0-1.3-0.6-1.3-1.3V41h-2v10.3c0,1.8,1.5,3.3,3.3,3.3h2.6l0,0.1c0.2,1.7,1.1,3.3,2.3,4.6
	l0.3,0.3H0.3v2h55.6c3.9,0,7.3-2.9,7.9-6.8l0-0.1h2.6c1.8,0,3.3-1.5,3.3-3.3V38.5z M23.4,59.6c-3.3,0-6-2.7-6-6c0-3.3,2.7-6,6-6
	c3.3,0,6,2.7,6,6S26.7,59.6,23.4,59.6z M28.7,59.6l0.3-0.3c1.2-1.2,2.1-2.8,2.3-4.6l0-0.1H48l0,0.1c0.2,1.7,1.1,3.3,2.3,4.6l0.3,0.3
	H28.7z M55.9,59.6c-3.3,0-6-2.7-6-6s2.7-6,6-6s6,2.7,6,6C61.9,56.9,59.2,59.6,55.9,59.6z M67.7,39.8H49.9V29h7.9l0,0l9.8,9.8V39.8z"
	/>
<rect x="22.4" y="52.6" width="2" height="2"/>
<rect x="54.9" y="52.6" width="2" height="2"/>
<rect x="0.3" y="49.1" width="5.5" height="2"/>
<rect x="2.6" y="44.5" width="3.2" height="2"/>
<rect x="3.8" y="39.8" width="2" height="2"/>
<path d="M15.3,8.5C7,8.5,0.3,15.2,0.3,23.4c0,8.2,6.7,14.9,14.9,14.9c8.2,0,14.9-6.7,14.9-14.9C30.2,15.2,23.5,8.5,15.3,8.5z
	 M15.3,36.3c-7.1,0-12.9-5.8-12.9-12.9c0-7.1,5.8-12.9,12.9-12.9c7.1,0,12.9,5.8,12.9,12.9S22.4,36.3,15.3,36.3z"/>
<path d="M23.2,21.1c0-4.4-3.6-8-8-8s-8,3.6-8,8c0,4.9,6.5,11.6,7.3,12.3c0.4,0.4,1,0.4,1.4,0C16.7,32.6,23.2,26,23.2,21.1z
	 M15.3,31.2l-0.1-0.1c-1-1.1-5.9-6.6-5.9-10c0-3.3,2.7-6,6-6c3.3,0,6,2.7,6,6c0,3.4-4.5,8.5-5.9,10L15.3,31.2z"/>
<path d="M15.3,17.7c-1.8,0-3.3,1.5-3.3,3.3s1.5,3.3,3.3,3.3s3.3-1.5,3.3-3.3S17.1,17.7,15.3,17.7z M15.3,22.4
	c-0.7,0-1.3-0.6-1.3-1.3s0.6-1.3,1.3-1.3s1.3,0.6,1.3,1.3S16,22.4,15.3,22.4z"/>
<rect x="44.5" y="44.5" width="4.3" height="2"/>
</svg>
