<?xml version="1.0" encoding="utf-8"?>
<!-- Generator: Adobe Illustrator 23.0.1, SVG Export Plug-In . SVG Version: 6.00 Build 0)  -->
<svg version="1.1" id="Слой_1" xmlns="http://www.w3.org/2000/svg" xmlns:xlink="http://www.w3.org/1999/xlink" x="0px" y="0px"
	 width="70px" height="70px" viewBox="0 0 70 70" style="enable-background:new 0 0 70 70;" xml:space="preserve">
<style type="text/css">
	.st0{fill:#FFFFFF;}
	.st1{fill:#FF5555;}
	.st2{fill:none;}
</style>
<g>
	<path class="st0" d="M44.9,56.4c-11.6,0-21.1-9.5-21.1-21.1s9.5-21.1,21.1-21.1S66,23.6,66,35.3S56.5,56.4,44.9,56.4z"/>
	<path class="st1" d="M44.9,17.7c9.7,0,17.6,7.9,17.6,17.6s-7.9,17.6-17.6,17.6S27.3,45,27.3,35.3S35.2,17.7,44.9,17.7 M44.9,10.7
		c-13.6,0-24.6,11-24.6,24.6c0,13.6,11,24.6,24.6,24.6c13.6,0,24.6-11,24.6-24.6C69.5,21.7,58.5,10.7,44.9,10.7L44.9,10.7z"/>
</g>
<g>
	<path class="st0" d="M44.9,42.3c-3.8,0-7-3.1-7-7s3.1-7,7-7s7,3.1,7,7S48.7,42.3,44.9,42.3z"/>
	<path class="st1" d="M44.9,31.8c1.9,0,3.5,1.6,3.5,3.5s-1.6,3.5-3.5,3.5s-3.5-1.6-3.5-3.5S43,31.8,44.9,31.8 M44.9,24.8
		c-5.8,0-10.5,4.7-10.5,10.5s4.7,10.5,10.5,10.5s10.5-4.7,10.5-10.5S50.7,24.8,44.9,24.8L44.9,24.8z"/>
</g>
<path d="M0.6,42.2c0.2,0.1,0.3,0.2,0.5,0.2h10.3c0.3,0,0.7-0.2,0.9-0.5l3.5-5.6h3.8v0.2c0.3,6.7,3.2,12.9,8.2,17.4
	s11.4,6.9,18.1,6.5c13.8-0.6,24.6-12.4,24-26.3c-0.3-6.7-3.2-12.9-8.2-17.4s-11.4-6.8-18.1-6.5c-13.1,0.6-23.4,10.9-24,24v0.2h-3.8
	l-3.4-5.5c-0.2-0.3-0.5-0.5-0.9-0.5H1.2c-0.6,0-1,0.5-1,1c0,0.2,0.1,0.4,0.2,0.5l3.4,5.5l-0.1,0.1l-3.4,5.4
	C0,41.3,0.2,41.9,0.6,42.2z M44.7,34.2h-1.6l0.3-0.3c0.7-0.7,1.9-0.7,2.6,0c0.7,0.7,0.7,1.9,0,2.6c-0.3,0.4-0.8,0.5-1.3,0.6l0,0
	c-0.5,0-0.9-0.2-1.3-0.5l0,0l-0.2-0.3h1.6c0.6,0,1-0.5,1-1C45.7,34.7,45.3,34.2,44.7,34.2z M45.8,38.9c1-0.3,1.8-1,2.3-1.9
	s0.6-1.9,0.3-2.9c-0.6-2-2.8-3.2-4.8-2.6c-1.2,0.4-2.2,1.3-2.6,2.6v0.1h-5.2V34c0.7-4.9,5.2-8.3,10-7.7c2.4,0.3,4.5,1.5,5.9,3.4
	s2.1,4.2,1.8,6.6s-1.5,4.5-3.4,5.9c-1.6,1.2-3.5,1.8-5.4,1.8c-0.4,0-0.8,0-1.2-0.1c-4-0.5-7.1-3.7-7.7-7.7V36H41v0.1
	c0.3,1,1,1.8,1.9,2.3C43.8,39.1,44.9,39.2,45.8,38.9z M37.8,43.7c2.3,1.8,5.1,2.7,8,2.4s5.5-1.7,7.4-4c1.8-2.3,2.7-5.1,2.4-8
	s-1.7-5.5-4-7.4c-2.3-1.8-5.1-2.7-8-2.4c-5.1,0.5-9.2,4.6-9.7,9.7v0.1h-5.1v-0.2c0.3-4.3,2.3-8.2,5.5-11s7.4-4.2,11.6-3.8
	c4.3,0.3,8.2,2.3,11,5.5s4.2,7.4,3.8,11.6c-0.3,4.3-2.3,8.2-5.5,11c-2.9,2.5-6.6,3.9-10.4,3.9c-0.4,0-0.8,0-1.2,0
	c-7.9-0.6-14.2-6.9-14.8-14.8v-0.2h5.1v0.1C34.1,39.3,35.5,41.9,37.8,43.7z M32.8,48.8c3.6,3.2,8.3,4.8,13.1,4.5
	c9.9-0.6,17.5-9.2,16.8-19.2c-0.3-4.8-2.5-9.2-6.1-12.4s-8.3-4.8-13.1-4.5c-9,0.6-16.3,7.8-16.8,16.8v0.1h-5.1v-0.2
	c0.6-12.3,10.8-21.9,23.1-22l0,0c12.7,0,23.1,10.4,23.1,23.1c0,12.8-10.3,23.1-23.1,23.2l0,0c-12.3,0-22.5-9.6-23.1-22V36h5.1v0.1
	C27,41.2,29.2,45.6,32.8,48.8z M3,30.2h7.9l2.5,4H5.5L3,30.2z M5.5,36.3h7.9l-2.5,4H3L5.5,36.3z"/>
<rect x="11.8" y="0.2" width="9" height="2"/>
<rect x="21.2" y="8.3" width="9" height="2"/>
<rect x="7.2" y="0.2" width="2" height="2"/>
<rect x="4.8" y="22.3" width="9" height="2"/>
<rect x="0.2" y="22.3" width="2" height="2"/>
<rect x="9.5" y="48" width="6.7" height="2"/>
<rect x="4.8" y="48" width="2" height="2"/>
<rect x="23.5" y="58.5" width="2" height="2"/>
<rect x="4.8" y="67.8" width="9" height="2"/>
<rect x="0.2" y="67.8" width="2" height="2"/>
<rect class="st2" width="70" height="70"/>
</svg>
