<?xml version="1.0" encoding="utf-8"?>
<!-- Generator: Adobe Illustrator 23.0.1, SVG Export Plug-In . SVG Version: 6.00 Build 0)  -->
<svg version="1.1" id="Слой_1" xmlns="http://www.w3.org/2000/svg" xmlns:xlink="http://www.w3.org/1999/xlink" x="0px" y="0px"
	 width="70px" height="70px" viewBox="0 0 70 70" style="enable-background:new 0 0 70 70;" xml:space="preserve">
<style type="text/css">
	.st0{fill:#FF5555;}
</style>
<rect x="1.8" y="58.9" class="st0" width="19.8" height="3.2"/>
<rect x="29.4" y="64.8" class="st0" width="11.1" height="3.2"/>
<rect x="48.5" y="64.8" class="st0" width="19.6" height="3.2"/>
<g>
	<path d="M14,45.4h12.8c2-0.1,3.4-1.5,3.4-3.5V31.7h-2V42c0,0.7-0.5,1.3-1.3,1.3H14c-1.9,0-3.3,1.4-3.3,3.3v1.3H3.6
		c-1.9,0-3.3,1.4-3.3,3.3v9.3c0,1.9,1.4,3.3,3.3,3.3h4.6l-0.8,3.7H4.9v2h13.7v-2h-2.5l-0.8-3.7h4.6c1.9,0,3.3-1.4,3.3-3.3v-9.3
		c0-1.9-1.4-3.3-3.3-3.3h-7.1v-1.3C12.7,46,13.3,45.4,14,45.4z M9.5,67.7l0.8-3.7h3l0.8,3.7H9.5z M2.3,59.3h18.9v1.3
		c0,0.7-0.5,1.3-1.3,1.3H3.6c-0.7,0-1.3-0.5-1.3-1.3V59.3z M21.2,57.3H2.3v-6c0-0.7,0.5-1.3,1.3-1.3h16.3c0.7,0,1.3,0.5,1.3,1.3
		V57.3z"/>
	<path d="M69.7,64.1l-1.2-4.8v-8c0-1.9-1.4-3.3-3.3-3.3h-6v-1.3c0-1.9-1.4-3.3-3.3-3.3H43.2c-0.7,0-1.3-0.5-1.3-1.3V31.7h-2V42
		c0,1.9,1.4,3.3,3.3,3.3H56c0.7,0,1.3,0.5,1.3,1.3v1.3h-6c-1.9,0-3.3,1.4-3.3,3.3v8.1l-1.2,4.5l0,2.6c0,1.9,1.5,3.3,3.3,3.3h16.3
		c1.9,0,3.3-1.4,3.3-3.3L69.7,64.1z M49.9,58.4v-7.1c0-0.7,0.5-1.3,1.3-1.3h13.9c0.7,0,1.3,0.5,1.3,1.3v7.1H49.9z M49.1,63.1
		l0.7-2.6h17l0.7,2.6H49.1z M67.7,65.1v1.3c0,0.7-0.5,1.3-1.3,1.3H50.1c-0.7,0-1.3-0.5-1.3-1.3v-1.3H67.7z"/>
	<path d="M38.4,48H36V31.7h-2V48h-2.5c-0.9-0.1-1.8,0.3-2.4,0.9c-0.6,0.6-1,1.5-1,2.4v15.1c0,1.9,1.4,3.3,3.3,3.3h7
		c1.9,0,3.3-1.4,3.3-3.3V51.3C41.7,49.4,40.3,48,38.4,48z M39.8,66.4c0,0.7-0.5,1.3-1.3,1.3h-7c-0.7,0-1.3-0.5-1.3-1.3v-1.3h9.6v1.1
		h-0.1V66.4z M39.8,63.1h-9.5V51.3c0-0.7,0.5-1.3,1.3-1.3h7c0.7,0,1.3,0.5,1.3,1.3V63.1z"/>
	<path d="M18.6,37.2h6.9v-2h-6.9c-6.5,0-11.8-5.3-11.8-11.8c0-6.1,4.6-11.2,10.8-11.8l0.2,0l-0.1,0.2c-0.8,2.1-1.2,4.3-1.3,6.6
		l0,0.2h2l0-0.2C18.6,9.4,26,2.2,34.8,2.2s16.2,7.2,16.4,16.1l0,0.2h2l0-0.2c-0.1-2.2-0.5-4.5-1.3-6.5l0-0.2l0.3,0
		c6.6,0.6,11.3,6.2,10.7,12.7c-0.5,6.2-5.5,10.8-11.7,10.8h-6.9v2h6.9c7.6,0,13.8-6.2,13.8-13.8c0-7.6-6.2-13.8-13.8-13.8H51l0,0
		C45.8,0.7,34.5-2.4,25.8,2.7c-2.9,1.7-5.3,4.1-6.8,6.8l0,0h-0.3C11,9.5,4.8,15.7,4.8,23.4C4.8,31,11,37.2,18.6,37.2z"/>
</g>
</svg>
