<?xml version="1.0" encoding="utf-8"?>
<!-- Generator: Adobe Illustrator 23.0.1, SVG Export Plug-In . SVG Version: 6.00 Build 0)  -->
<svg version="1.1" id="Capa_1" xmlns="http://www.w3.org/2000/svg" xmlns:xlink="http://www.w3.org/1999/xlink" x="0px" y="0px"
	 width="70px" height="70px" viewBox="0 0 70 70" style="enable-background:new 0 0 70 70;" xml:space="preserve">
<style type="text/css">
	.st0{fill:#FF5555;}
</style>
<circle class="st0" cx="24.1" cy="4.1" r="2.1"/>
<circle class="st0" cx="42.9" cy="4.1" r="2.1"/>
<circle class="st0" cx="26.1" cy="19.6" r="2.1"/>
<circle class="st0" cx="46.2" cy="20.5" r="2.1"/>
<circle class="st0" cx="65.9" cy="21.6" r="2.1"/>
<circle class="st0" cx="57.3" cy="10.4" r="2.1"/>
<circle class="st0" cx="13.3" cy="9.4" r="2.1"/>
<circle class="st0" cx="3.8" cy="20.4" r="2.1"/>
<circle class="st0" cx="4" cy="33.9" r="2.1"/>
<circle class="st0" cx="15.9" cy="36.3" r="2.1"/>
<circle class="st0" cx="20.8" cy="47.8" r="2.1"/>
<circle class="st0" cx="41.6" cy="35" r="2.1"/>
<circle class="st0" cx="36.2" cy="52" r="2.1"/>
<circle class="st0" cx="52.7" cy="48.1" r="2.1"/>
<circle class="st0" cx="66.4" cy="37.4" r="2.1"/>
<circle class="st0" cx="52.9" cy="65.8" r="2.1"/>
<circle class="st0" cx="36.4" cy="66.1" r="2.1"/>
<path d="M67.1,34.1L67.1,34.1L67,24.9l0.1,0c1.3-0.5,2.1-1.7,2.1-3.1c0-1.8-1.4-3.2-3.2-3.2c-0.1,0-0.3,0-0.4,0
	c-0.2,0-0.4,0-0.5,0.1c0,0-0.1,0-0.1,0h-0.1l-0.1,0l-5-6.2l0-0.1c0.3-0.6,0.5-1.1,0.5-1.7c0-1.8-1.4-3.2-3.2-3.2
	c-0.8,0-1.7,0.4-2.3,1l-0.1,0.1L46,4.4L46,4c0-1.8-1.4-3.2-3.2-3.2c-1.3,0-2.6,0.9-3.1,2.1l0,0.1L27.1,3l0-0.1
	c-0.5-1.2-1.7-2.1-3.1-2.1c-1.8,0-3.2,1.4-3.2,3.2v0.4l-5.6,2.8h-0.1L15,7.2c-0.7-0.6-1.5-0.9-2.2-0.9c-1.8,0-3.2,1.4-3.2,3.2
	c0,0.6,0.2,1.2,0.5,1.7l0,0L5,17.6H4.9c-0.4-0.2-0.7-0.2-1-0.2c-1.8,0-3.2,1.4-3.2,3.2c0,1.3,0.9,2.6,2.1,3.1l0.1,0v7.2l0,0
	c-1.3,0.5-2.1,1.7-2.1,3.1c0,1.8,1.4,3.2,3.2,3.2c1.2,0,2.2-0.6,2.8-1.6l0.1-0.1l6.1,1.1l0,0c0.3,1.5,1.7,2.7,3.2,2.7h0.2l0.1,0.1
	l2.1,5.3l0,0.1l-0.1,0.1c-0.7,0.6-1.1,1.4-1.1,2.4c0,1.8,1.4,3.2,3.2,3.2c1.1,0,2.1-0.5,2.6-1.3l0.1-0.1l9.6,2.7v0
	c0.1,1.3,0.9,2.4,2.1,2.8l0.1,0v8.1l-0.1,0c-1.3,0.5-2.1,1.7-2.1,3.1c0,1.8,1.4,3.2,3.2,3.2c1.8,0,3.2-1.4,3.2-3.2
	c0-1.3-0.9-2.6-2.1-3.1l-0.1,0v-8l0.1,0c1.3-0.5,2.1-1.7,2.1-3.1c0-1-0.4-1.8-1.2-2.5l-0.1-0.1V49l1.3-3.9l0.1-0.1l10,3.4v0
	c0,1.3,0.8,2.5,2.1,3l0.1,0v11.5l-0.1,0c-1.3,0.5-2.1,1.7-2.1,3.1c0,1.8,1.4,3.2,3.2,3.2c1.7,0,3.2-1.5,3.2-3.2
	c0-1.3-0.9-2.6-2.1-3.1l-0.1,0V51.4l0.1,0c1.3-0.5,2.1-1.7,2.1-3.1c0-0.4-0.1-0.7-0.3-1.1l0-0.1l8.6-7.1l0.1,0.1h0.2
	c0.6,0.2,1,0.2,1.6,0.2c1.8,0,3.2-1.4,3.2-3.2C69.3,35.8,68.4,34.6,67.1,34.1z M54,66c0,0.6-0.5,1.2-1.2,1.2c-0.6,0-1.2-0.5-1.2-1.2
	c0-0.6,0.5-1.2,1.2-1.2l0.1,0c0.1,0,0.2,0,0.6,0.3C53.8,65.4,54,65.7,54,66z M36.2,64.9c0.6,0,1.2,0.5,1.2,1.2
	c0,0.6-0.5,1.2-1.2,1.2c-0.6,0-1.2-0.5-1.2-1.2C35,65.4,35.5,64.9,36.2,64.9z M4,32.8c0.6,0,1.2,0.5,1.2,1.2S4.6,35.1,4,35.1
	c-0.6,0-1.2-0.5-1.2-1.2S3.3,32.8,4,32.8z M5.1,20.6c0,0.6-0.5,1.2-1.2,1.2c-0.6,0-1.2-0.5-1.2-1.2c0-0.6,0.5-1.2,1.2-1.2
	C4.6,19.5,5.1,20,5.1,20.6z M42.8,5.2c-0.6,0-1.2-0.5-1.2-1.2c0-0.7,0.5-1.2,1.2-1.2c0.6,0,1.2,0.5,1.2,1.2
	C43.9,4.7,43.4,5.2,42.8,5.2z M67.2,37.2c0,0.6-0.5,1.2-1.2,1.2c-0.6,0-1.2-0.5-1.2-1.2c0-0.6,0.5-1.2,1.2-1.2
	C66.7,36.1,67.2,36.6,67.2,37.2z M20.6,44h-0.2l-0.1-0.1l-2.1-5.3l0-0.1l0.1-0.1c0.2-0.2,0.2-0.2,0.4-0.5l0.1-0.1h0.1l13.3,4.4
	l2,6.5l0.1,0.1l0,0c-0.3,0.2-0.5,0.4-0.6,0.6l-0.1,0.1h-0.1l-9.5-2.7v0C23.8,45.3,22.4,44,20.6,44z M5.1,30.9L5.1,30.9L5,23.8l0.1,0
	c0.9-0.4,1.6-1.2,2-2.1l0-0.1l6.1-0.2l1.5,12l0,0c-0.5,0.1-1,0.4-1.4,1.1l-0.1,0.1l0,0l-6.1-1.1h0v0C7,32.3,6.2,31.3,5.1,30.9z
	 M54.2,11.9l-6.6,5.9l-0.1,0c-1.3-0.6-2.4-0.5-3.3,0.1l-0.1,0.1v0l-8.2-6.2l0,0L41.2,7h0.2c0.5,0.2,1,0.4,1.4,0.4
	c0.9,0,1.8-0.4,2.3-1l0.1-0.1l8.8,4l0.1,0.1v0.4C54,11.1,54,11.5,54.2,11.9z M57.1,11.8c-0.6,0-1.2-0.5-1.2-1.2
	c0-0.6,0.5-1.2,1.2-1.2c0.6,0,1.2,0.5,1.2,1.2C58.3,11.3,57.8,11.8,57.1,11.8z M55.6,13.6c0.7,0.3,1.3,0.4,1.9,0.3
	c0.2,0,0.4,0,0.5-0.1c0,0,0.1,0,0.1,0h0.1l5.1,6.3l0,0c-0.3,0.6-0.5,1.1-0.5,1.7c0,0.2,0,0.3,0.1,0.4v0.2l-7.9,4.3l0,0L49.2,22l0,0
	c0.2-0.3,0.3-0.7,0.3-1.1c0-0.4-0.1-0.8-0.2-1.2l0-0.1l6.3-6H55.6z M66,22.9c-0.6,0-1.2-0.5-1.2-1.2c0-0.6,0.5-1.2,1.2-1.2
	c0.6,0,1.2,0.5,1.2,1.2C67.1,22.4,66.6,22.9,66,22.9z M65,34.3L65,34.3c-0.2,0-0.2,0-0.3,0.1c-0.1,0-0.2,0-0.2,0.1h-0.1l-0.1,0.1
	l-7.7-6.4l-0.1-0.1l7.2-3.9l0,0l0.1,0.1c0.3,0.3,0.6,0.4,0.9,0.5l0.2,0.1l0.1,0V34.3z M43.1,19.6c0,0,0,0.1,0,0.1c0,0,0,0.1,0,0.1
	c-0.1,0.3-0.1,0.4-0.1,0.7v0.6L34,25.7l-0.1,0L29.1,21v-0.1c0.2-0.4,0.3-0.8,0.3-1.4c0-0.4-0.1-0.8-0.2-1.3l0-0.1l5.4-5.1L43.1,19.6
	L43.1,19.6z M19.4,35.6l9.2-4.8l3,9.3l-12-3.9l0-0.1c-0.1-0.2-0.1-0.3-0.1-0.3V35.6z M26.1,20.6c-0.6,0-1.2-0.5-1.2-1.2
	c0-0.6,0.5-1.2,1.2-1.2c0.6,0,1.2,0.5,1.2,1.2C27.2,20.1,26.7,20.6,26.1,20.6z M31.9,26.7l-2.2,1l-1.4-4.6L31.9,26.7z M15.3,21.2
	l7.7-0.4l0.1,0.1c0.6,1.1,1.6,1.9,2.9,1.9l1.8,6l-9.5,5l-0.1,0.1l0,0c-0.3-0.3-0.8-0.6-1.4-0.8l-0.1,0L15.3,21.2z M46.1,21.8
	c-0.6,0-1.2-0.5-1.2-1.2c0-0.6,0.5-1.2,1.2-1.2c0.6,0,1.2,0.5,1.2,1.2C47.2,21.3,46.7,21.8,46.1,21.8z M43.8,22.9L43.8,22.9l0.1,0
	c1,0.9,2.4,1.1,3.8,0.3l0,0l5.2,4.4l-9.1,4.9h0l-0.1-0.1c-0.7-0.4-1.4-0.6-2.1-0.6c-0.6,0-1,0.1-1.5,0.4l-4.7-4.8l0-0.1L43.8,22.9z
	 M41.6,33.8c0.7,0,1.2,0.5,1.2,1.2c0,0.6-0.5,1.2-1.2,1.2c-0.7,0-1.2-0.5-1.2-1.2C40.5,34.4,41,33.8,41.6,33.8z M34.2,10.6l-7.2-5.4
	L26.9,5h12.8l0,0.1l0.1,0.1l0,0.1l0.1,0.1L34.2,10.6z M25.8,6.6v0.1l7,5.2l0,0l-5.1,4.7l-0.1,0c-0.5-0.3-1-0.4-1.5-0.4
	c-1.4,0-2.7,0.9-3.1,2.3l0,0.1L15.3,19h0l-0.9-6.5v-0.2c1.1-0.5,1.8-1.6,1.8-2.8V9.1l5.6-2.8l0.1-0.1l0.1,0c0.7,0.6,1.5,0.9,2.2,0.9
	C24.7,7.1,25.3,6.9,25.8,6.6z M12.9,10.7c-0.6,0-1.2-0.5-1.2-1.2C11.7,9.3,11.8,9,12,8.8l0,0c0.2-0.3,0.6-0.4,0.9-0.4
	c0.6,0,1.2,0.5,1.2,1.2C14,10.2,13.5,10.7,12.9,10.7z M11.8,12.6C11.8,12.6,11.9,12.6,11.8,12.6l0.1,0.1h0.2L13,19v0.2L7,19.4l0,0
	c0-0.1,0-0.1-0.1-0.1c0,0,0-0.1-0.1-0.1v0L6.7,19l0.1-0.1L11.8,12.6L11.8,12.6z M16.2,35c0.6,0,1.2,0.5,1.2,1.2
	c0,0.6-0.5,1.2-1.2,1.2S15,36.8,15,36.2C15,35.5,15.5,35,16.2,35z M36.1,48.2l0-0.2l-1.4-4.7l2.7,0.9l0.1,0.1L36.2,48L36.1,48.2z
	 M36.1,50.5c0.6,0,1.2,0.5,1.2,1.2c0,0.6-0.5,1.2-1.2,1.2c-0.6,0-1.2-0.5-1.2-1.2C34.9,51,35.4,50.5,36.1,50.5z M38.2,42.3
	L38.2,42.3l-4.3-1.4l-3.4-11l2.9-1.6l0,0l5.3,5.3l0,0.1c-0.2,0.4-0.3,0.8-0.3,1.4c0,1,0.4,1.8,1.2,2.5l0.1,0.1v0.2L38.2,42.3z
	 M41.7,38.2L41.7,38.2c1.2,0,2.3-0.7,2.9-1.9l0-0.1l18.2,1.6v0.1c0,0.1,0,0.2,0.1,0.2v0.3l-8.4,7.1l-0.1,0c-0.6-0.3-1.1-0.5-1.7-0.5
	c-1,0-1.8,0.4-2.5,1.2l-0.1,0.1h-0.1L40.2,43L40.1,43L41.7,38.2z M54.6,29.1L54.6,29.1l8.3,6.8l-0.3-0.1l-17.2-1.5l-0.3-0.1
	L54.6,29.1z M23.9,5.1c-0.7,0-1.2-0.4-1.2-1.1c0-0.7,0.5-1.2,1.2-1.2c0.6,0,1.2,0.5,1.2,1.2C25.1,4.6,24.6,5.1,23.9,5.1z M21.8,47.2
	c0,0.6-0.5,1.2-1.2,1.2c-0.6,0-1.2-0.5-1.2-1.2c0-0.6,0.5-1.2,1.2-1.2C21.3,46.1,21.8,46.6,21.8,47.2z M52.7,47.1
	c0.6,0,1.2,0.5,1.2,1.2c0,0.6-0.5,1.2-1.2,1.2c-0.6,0-1.2-0.5-1.2-1.2C51.5,47.6,52,47.1,52.7,47.1z"/>
</svg>
