<?xml version="1.0" encoding="utf-8"?>
<!-- Generator: Adobe Illustrator 23.0.1, SVG Export Plug-In . SVG Version: 6.00 Build 0)  -->
<svg version="1.1" id="Слой_1" xmlns="http://www.w3.org/2000/svg" xmlns:xlink="http://www.w3.org/1999/xlink" x="0px" y="0px"
	 width="70px" height="70px" viewBox="0 0 70 70" style="enable-background:new 0 0 70 70;" xml:space="preserve">
<style type="text/css">
	.st0{fill:#FF5555;}
</style>
<g>
	<path class="st0" d="M32.6,21.2c6.3,0,11.5,5.1,11.5,11.5s-5.1,11.5-11.5,11.5S21.2,39,21.2,32.7S26.3,21.2,32.6,21.2 M32.6,15
		c-9.7,0-17.7,7.9-17.7,17.7s7.9,17.7,17.7,17.7s17.7-7.9,17.7-17.7S42.3,15,32.6,15L32.6,15z"/>
</g>
<g>
	<path d="M34.3,14.3c-0.3,0-0.5,0-0.8,0c-0.2,0-0.5,0-0.7,0c-10.2,0-18.5,8.3-18.5,18.5c0,10.2,8.3,18.5,18.5,18.5
		c10.1,0,18.4-8.3,18.4-18.5C51.2,23.1,43.8,15.1,34.3,14.3z M49.3,32.6c-0.1,9.1-7.4,16.5-16.4,16.6c-9.1,0-16.5-7.4-16.5-16.5
		c0-9.1,7.4-16.5,16.5-16.5C41.9,16.3,49.3,23.6,49.3,32.6z"/>
	<path d="M33.9,63.1L33.9,63.1l0-8.5c-0.1-0.6-0.5-1-1-1c-0.5,0-1,0.5-1,1V63c-0.6,0.2-1,0.5-1.4,0.9c-0.7,0.7-1.1,1.7-0.9,2.7
		c0.2,1.6,1.7,2.9,3.3,2.9s3.1-1.2,3.3-2.9C36.4,65,35.4,63.5,33.9,63.1z M34.2,66.2c-0.1,0.8-0.6,1.3-1.3,1.3
		c-0.7,0-1.3-0.6-1.3-1.3s0.6-1.3,1.3-1.3C33.6,64.9,34.2,65.5,34.2,66.2z"/>
	<path d="M31.8,6.9L31.8,6.9l0,3.9c0,0.6,0.4,1,1,1c0.5,0,1-0.5,1-1V6.9l0,0c1.5-0.5,2.5-2,2.3-3.6c-0.3-1.6-1.7-2.8-3.3-2.8
		c-1.6,0-3.1,1.2-3.3,2.9C29.3,5,30.3,6.5,31.8,6.9z M32.8,2.5c0.7,0,1.3,0.6,1.3,1.3c0,0.8-0.7,1.3-1.3,1.3c-0.7,0-1.3-0.6-1.3-1.3
		S32,2.5,32.8,2.5z"/>
	<path d="M4,7.9c0.6,0.6,1.4,0.9,2.3,0.9c0.7,0,1.2-0.2,1.5-0.4l0,0l9.1,9.1l0.2,0.1c0.2,0.1,0.4,0.2,0.5,0.2h0.2
		c0.3,0,0.6-0.5,0.7-0.7c0.1-0.3,0-0.7-0.2-1L9.2,7.1C10,5.6,9.6,3.8,8.2,2.8C7.6,2.4,7,2.2,6.3,2.2c-1,0-1.9,0.4-2.5,1.2
		C2.6,4.7,2.7,6.6,4,7.9L4,7.9z M4.9,5.5c0-0.4,0.1-0.7,0.4-1c0.3-0.3,0.6-0.4,1-0.4c0.4,0,0.7,0.2,0.9,0.3c0.3,0.3,0.4,0.6,0.4,1
		c0,0.5-0.1,0.6-0.3,1l0,0C7,6.6,6.7,6.8,6.3,6.8c-0.4,0-0.8-0.2-1-0.4C5,6.2,4.9,5.8,4.9,5.5z"/>
	<path d="M34.1,19.8L34.1,19.8c-0.3,0-0.5,0-0.7-0.1l-0.7,0c-3.3,0-6.3,1.2-8.5,3.4c-2.4,2.2-3.8,5-4.2,8.3
		c-0.3,3.5,0.7,6.8,2.9,9.4c2.2,2.6,5.3,4.3,8.6,4.6c0.5,0.1,0.9,0.1,1.3,0.1c6.8,0,12.5-5.4,12.9-12.2C45.9,26.3,41,20.5,34.1,19.8
		z M43.6,33.7c-0.2,2.2-1,4-2.2,5.5c-2.1,2.7-5.2,4.2-8.6,4.2c-0.4,0-0.7,0-1.1-0.1c-2.9-0.3-5.4-1.7-7.3-3.9
		c-1.9-2.3-2.7-5.1-2.4-8c0.5-5.6,5.2-9.8,10.9-9.8c0.4,0,0.7,0,1.1,0.1c2.2,0.2,4.3,1.1,6,2.6C42.6,26.8,43.9,30.3,43.6,33.7z"/>
	<path d="M32.4,27.8c-0.1-0.4-0.8-0.5-1.1-0.5h-0.1c-0.8,0-1,0.3-1.1,0.6l-2.5,7.9l0,0.2c0,0.6,0.7,0.8,1.1,0.8c0,0,0.4,0,0.6-0.5
		l0.4-1.5l0,0h2.8l0.4,1.6c0.1,0.2,0.2,0.4,0.7,0.4c0.4,0,1-0.3,1.1-0.7l0-0.1c0-0.1,0.1-0.2,0-0.4C34.7,35.3,34.3,34,32.4,27.8z
		 M32,33.2h-1.7l0.9-3.1L32,33.2z"/>
	<path d="M36.4,27.3c-0.9,0-1,0.4-1,0.6v8.2c0,0.2,0.1,0.7,1,0.7c0.4,0,1-0.2,1-0.7v-8.2C37.4,27.5,37,27.3,36.4,27.3z"/>
	<path d="M6.4,33.7h3.9c0.6,0,1-0.4,1-1s-0.4-1-1-1H6.4c-0.4-1.3-1.6-2.2-2.9-2.2c-1.7,0-3.2,1.4-3.2,3.2s1.4,3.2,3.2,3.2
		C4.8,35.8,6,34.9,6.4,33.7z M4.5,32.7c0,0.6-0.5,1.2-1.1,1.2c-0.7,0-1.2-0.5-1.2-1.2s0.5-1.2,1.2-1.2C4,31.5,4.5,32,4.5,32.7z"/>
	<path d="M50.9,50.7l-2.7-2.8c-0.4-0.4-1-0.4-1.4,0c-0.4,0.4-0.4,1-0.1,1.4l2.8,2.8c-0.6,1.2-0.3,2.7,0.6,3.6
		c0.6,0.6,1.4,0.9,2.2,0.9c0,0,0,0,0.1,0c0.8,0,1.6-0.3,2.1-0.9c0.6-0.6,0.9-1.4,0.9-2.3c0-0.8-0.3-1.6-0.9-2.1
		C53.6,50.4,52.1,50.2,50.9,50.7z M51.5,52.7c0.2-0.2,0.5-0.3,0.8-0.3s0.6,0.1,0.8,0.3c0.5,0.5,0.5,1.2,0,1.6
		c-0.5,0.5-1.2,0.5-1.6,0C51,53.9,51,53.2,51.5,52.7z"/>
	<path d="M65.9,29.5c-1.3,0-2.5,0.9-2.9,2.2h-8.5c-0.6,0-1,0.4-1,1s0.4,1,1,1h8.5c0.4,1.3,1.6,2.2,2.9,2.2c1.7,0,3.2-1.4,3.2-3.2
		S67.6,29.5,65.9,29.5z M67.1,32.8c0,0.6-0.5,1.2-1.2,1.2c-0.7,0-1.1-0.6-1.1-1.2c0-0.7,0.6-1.1,1.1-1.1
		C66.5,31.6,67.1,32.1,67.1,32.8z"/>
	<path d="M15.9,49.1l-6,6c-1.2-0.6-2.7-0.4-3.6,0.6c-0.6,0.6-0.9,1.4-0.9,2.3c0,0.8,0.3,1.6,0.9,2.1c0.6,0.6,1.4,0.9,2.2,0.9
		c0,0,0,0,0.1,0c0.8,0,1.6-0.3,2.1-0.9c0.9-0.9,1.2-2.4,0.6-3.6l6-6c0.2-0.2,0.3-0.4,0.3-0.7s-0.1-0.5-0.3-0.7
		C16.9,48.8,16.2,48.8,15.9,49.1z M7.6,58.8c-0.5-0.5-0.5-1.2,0-1.6c0.2-0.2,0.5-0.3,0.8-0.3S9,57,9.2,57.2c0.5,0.5,0.5,1.2,0,1.6
		C8.7,59.3,8,59.3,7.6,58.8z"/>
	<path d="M48.1,19.2c0.2,0,0.5-0.1,0.7-0.3l2.8-2.8c0.5,0.2,0.9,0.3,1.3,0.3c0.8,0,1.7-0.3,2.2-0.9c0.6-0.5,1-1.3,1-2.1
		c0-0.8-0.3-1.7-0.9-2.3c-0.6-0.6-1.4-0.9-2.2-0.9c-0.8,0-1.7,0.3-2.2,0.9c-0.9,0.9-1.2,2.4-0.6,3.6l-2.8,2.8c-0.4,0.4-0.4,1,0,1.4
		C47.6,19.1,47.9,19.2,48.1,19.2z M52,13.3c0-0.3,0.1-0.6,0.3-0.8c0.2-0.2,0.5-0.3,0.8-0.3c0.3,0,0.6,0.1,0.8,0.3
		c0.5,0.5,0.5,1.2,0,1.6c-0.2,0.2-0.5,0.3-0.8,0.3c-0.3,0-0.6-0.1-0.8-0.3C52.1,13.9,52,13.6,52,13.3z"/>
</g>
</svg>
