<?xml version="1.0" encoding="utf-8"?>
<!-- Generator: Adobe Illustrator 23.0.1, SVG Export Plug-In . SVG Version: 6.00 Build 0)  -->
<svg version="1.1" id="Слой_1" xmlns="http://www.w3.org/2000/svg" xmlns:xlink="http://www.w3.org/1999/xlink" x="0px" y="0px"
	 width="70px" height="70px" viewBox="0 0 70 70" style="enable-background:new 0 0 70 70;" xml:space="preserve">
<style type="text/css">
	.st0{fill:#FF5555;}
	.st1{display:none;}
</style>
<g>
	<path class="st0" d="M19.7,41.2c0,0-4.5,5.8-4.4,5.8s3,4.8,3,4.8l4.8,2.8l5.7-4.4L21.5,44L19.7,41.2L19.7,41.2z"/>
</g>
<g>
	<path class="st0" d="M50.2,15.1c-2.8,0-5.2,2.3-5.2,5.2s2.3,5.2,5.2,5.2s5.2-2.3,5.2-5.2S53,15.1,50.2,15.1L50.2,15.1z"/>
</g>
<g>
	<path d="M1.2,67.7c-0.6,0-1,0.5-1,1c0,0.5,0.5,1,1,1c0.5,0,1-0.5,1-1C2.1,68.1,1.6,67.7,1.2,67.7z"/>
	<path d="M36.3,34.7c0.5,0,1-0.4,1-1s-0.5-1-1-1c-0.5,0-1,0.5-1,1C35.3,34.2,35.8,34.7,36.3,34.7z"/>
	<path d="M50.3,25.9c1.5,0,2.9-0.6,3.9-1.6c2.1-2.1,2.1-5.6,0-7.7c-1-1-2.4-1.6-3.9-1.6s-2.9,0.6-3.9,1.6c-2.1,2.1-2.1,5.6,0,7.7
		C47.4,25.3,48.8,25.9,50.3,25.9z M47.8,17.9c0.7-0.7,1.5-1,2.4-1c0.9,0,1.8,0.3,2.4,1c1.3,1.3,1.3,3.6,0,5c-0.7,0.7-1.5,1-2.4,1
		c-0.9,0-1.8-0.3-2.4-1C46.5,21.5,46.5,19.3,47.8,17.9z"/>
	<path d="M16.8,56.8c-0.2-0.1-0.5-0.1-0.7-0.1l-0.1,0c-0.3,0.1-0.5,0.3-0.6,0.5l-1.6,3.3c-0.7,1.5-2.3,2.6-4.1,2.7l-1.9,0.2
		c-0.5,0.1-0.8-0.1-0.9-0.3c-0.1-0.1-0.4-0.5-0.3-0.9l0.2-1.9c0.2-1.8,1.2-3.3,2.7-4.1l3.3-1.6c0.2-0.1,0.4-0.3,0.5-0.6
		c0.1-0.3,0.1-0.5-0.1-0.8c-0.2-0.3-0.4-0.4-0.5-0.5l-0.1,0h0c-0.1,0-0.1-0.1-0.2-0.1c-0.2,0-0.3,0-0.4,0.1l-3.3,1.7
		c-2.2,1-3.6,3.2-3.8,5.6l-0.2,1.9c-0.1,0.9,0.3,1.8,0.9,2.5c0.6,0.6,1.4,0.9,2.2,0.9c0.1,0,0.2,0,0.3,0l1.9-0.2
		c2.4-0.2,4.6-1.6,5.7-3.8l1.6-3.3c0.1-0.2,0.1-0.5,0.1-0.7l0-0.1C17.2,57.1,17.1,56.9,16.8,56.8z"/>
	<path d="M68.8,1.3c-0.6-0.6-1.3-0.9-2.1-0.8l-1.3,0.1c-11.4,0.7-22,6.2-29.2,15.1l-3.1,3.8L25,19.4c-6.2,0-12,2.4-16.4,6.7
		l-8.1,8.1c-0.2,0.2-0.3,0.7-0.2,1c0.1,0.4,0.5,0.6,0.9,0.6h0l17.9,1l-1.1,1.4c-0.3,0.3-0.3,0.8-0.1,1.1c0.2,0.5,0.6,1,0.9,1.4
		l0.2,0.3l-4.2,5c-0.3,0.3-0.3,0.7-0.1,1.1c0.9,1.9,2.1,3.6,3.4,4.9c1.5,1.5,3.1,2.6,5,3.5c0.3,0.2,0.8,0.1,1.1-0.1
		c0.6-0.5,1.2-1,1.9-1.6l1-0.8l0.2-0.2c0.6-0.5,1.2-1.1,1.8-1.5l0.2-0.2l1.4,0.9c0.3,0.2,0.8,0.2,1.1-0.1l1.5-1.2L34,68.5
		c0,0.3,0.2,0.6,0.6,0.9l0.1,0c0.1,0,0.3,0.1,0.4,0.1c0.3,0,0.5-0.1,0.7-0.3l8.1-8.1c4.3-4.3,6.7-10.1,6.7-16.3v-7.7l3.4-2.6
		c9.5-7.4,15.3-18.4,15.8-30.4V3.4C69.7,2.6,69.3,1.8,68.8,1.3z M48.5,38.7v6.2c0,5.7-2.2,11-6.2,14.9l-6.5,6.5L35,49.2L48.5,38.7z
		 M31.5,21.5L20.7,34.8L3.6,34l6.5-6.5c3.9-3.9,9.2-6.1,14.9-6.2L31.5,21.5z M20,42.7l0.3,0.4c0.9,1.2,1.8,2.3,2.9,3.4l0.1,0.1
		c1.2,1.2,2.4,2.3,3.7,3.2l0.4,0.3l-2.1,1.6l0,0c-0.3,0.3-0.6,0.5-1,0.8c-0.3,0.3-0.7,0.5-1,0.8l-0.2,0.2l-0.2-0.1
		c-1.3-0.6-2.4-1.5-3.6-2.7c-1.2-1.3-2-2.4-2.6-3.6l-0.2-0.3L20,42.7z M32.8,38.2c0.2-0.2,0.3-0.4,0.3-0.7c0-0.3-0.1-0.5-0.3-0.7
		c-0.4-0.4-1-0.4-1.4,0l-7.5,7.5L23.6,44c-1.5-1.6-2.7-3.3-3.6-4.9l-0.1-0.2l17.8-22c6.8-8.5,17-13.7,27.8-14.4l1.2-0.1
		c0.3,0,0.5,0.1,0.6,0.3c0.2,0.2,0.3,0.4,0.3,0.6V4c-0.5,11.4-6,21.9-15,28.9L30.8,49.9l-0.2-0.2c-1.9-1.1-3.6-2.4-5.1-3.7l-0.3-0.3
		L32.8,38.2z"/>
</g>
<path class="st1" d="M46.1,21.4l2.3,3.2c0,0,3.4-0.1,3.5-0.1c0.1,0,2.3-3.6,2.3-3.6l-0.4-4l-4-0.8l-3.8,2.2L46.1,21.4z"/>
</svg>
