<?xml version="1.0" encoding="utf-8"?>
<!-- Generator: Adobe Illustrator 23.0.1, SVG Export Plug-In . SVG Version: 6.00 Build 0)  -->
<svg version="1.1" id="Слой_1" xmlns="http://www.w3.org/2000/svg" xmlns:xlink="http://www.w3.org/1999/xlink" x="0px" y="0px"
	 width="70px" height="70px" viewBox="0 0 70 70" style="enable-background:new 0 0 70 70;" xml:space="preserve">
<style type="text/css">
	.st0{fill:#FF5555;}
	.st1{display:none;}
	.st2{display:inline;fill:#FF5555;}
	.st3{stroke:#000000;stroke-width:0.35;stroke-miterlimit:10;}
	.st4{fill:#FF0000;stroke:#000000;stroke-width:0.35;stroke-miterlimit:10;}
	.st5{display:none;fill:none;stroke:#000000;stroke-width:0.35;stroke-miterlimit:10;}
</style>
<polygon class="st0" points="10.5,33.7 19.1,29.4 19.3,20.4 10.3,24.5 "/>
<polygon class="st0" points="35.1,44.5 43.6,40.2 43.8,31.2 34.8,35.3 "/>
<polygon class="st0" points="35.2,20.3 43.8,15.9 43.9,7 35,11.1 "/>
<polygon class="st0" points="60,34.1 68.5,29.8 68.7,20.8 59.7,24.9 "/>
<polygon class="st0" points="60,55.7 68.5,51.4 68.7,42.4 59.7,46.5 "/>
<polygon class="st0" points="35.2,68.6 43.8,64.3 43.9,55.3 35,59.4 "/>
<polygon class="st0" points="10.8,55.4 19.3,51.1 19.5,42.2 10.5,46.3 "/>
<g class="st1">
	<path class="st2" d="M3.5,33.6l10.2-5.3l0.7-2.3c0,0,0-10.8-0.3-10.4s-11.3,6-11.3,6.1S3.5,33.6,3.5,33.6z"/>
	<path class="st2" d="M35.7,16.3L45.9,11l0.7-2.3c0,0,0-10.8-0.3-10.4C46-1.2,35,4.4,35,4.5S35.7,16.3,35.7,16.3z"/>
	<path class="st2" d="M67.2,33.8l10.2-5.3l0.7-2.3c0,0,0-10.8-0.3-10.4s-11.3,6-11.3,6.1C66.5,22.1,67.2,33.8,67.2,33.8z"/>
	<path class="st2" d="M67.1,62l10.2-5.3l0.7-2.3c0,0,0-10.8-0.3-10.4s-11.3,6-11.3,6.1S67.1,62,67.1,62z"/>
	<path class="st2" d="M35.4,78.1l10.2-5.3l0.7-2.3c0,0,0-10.8-0.3-10.4s-11.3,6-11.3,6.1S35.4,78.1,35.4,78.1z"/>
	<path class="st2" d="M3.9,61.6l10.2-5.3l0.7-2.3c0,0,0-10.8-0.3-10.4s-11.3,6-11.3,6.1S3.9,61.6,3.9,61.6z"/>
	<path class="st2" d="M35.6,47l10.2-5.3l0.7-2.3c0,0,0-10.8-0.3-10.4s-11.3,6-11.3,6.1S35.6,47,35.6,47z"/>
</g>
<g id="Layer_1">
	<path class="st3" d="M52.7,10.1C52.5,10,52.4,10,52.3,10c-0.2,0-0.6,0.2-0.7,0.4c-0.2,0.2-0.2,0.4-0.1,0.5c0.1,0.2,0.2,0.4,0.4,0.5
		c0.2,0.1,0.3,0.2,0.4,0.2c0.2,0,0.6-0.2,0.7-0.4c0.2-0.2,0.2-0.4,0.1-0.5C53,10.3,52.9,10.3,52.7,10.1z"/>
	<path class="st3" d="M52.4,58.8c-0.1,0-0.2,0-0.2,0.1c-0.1,0-0.1,0-0.2,0c-0.2,0.1-0.3,0.2-0.4,0.5c-0.1,0.2,0,0.4,0.1,0.6
		c0.2,0.4,0.5,0.5,0.9,0.4c0.1,0,0.1,0,0.2,0c0.2-0.1,0.3-0.2,0.4-0.5c0.1-0.2,0.1-0.5-0.1-0.5v-0.1C53,59,52.8,58.8,52.4,58.8z"/>
	<path class="st3" d="M17.7,10c-0.2,0-0.2,0.1-0.4,0.2c-0.2,0.2-0.3,0.3-0.4,0.5c-0.1,0.2-0.1,0.5,0.1,0.5v0.1
		c0.2,0.3,0.5,0.4,0.7,0.4c0.2,0,0.2-0.1,0.4-0.2c0.2-0.2,0.3-0.3,0.4-0.5c0.1-0.2,0.1-0.5-0.1-0.5v-0.1C18.3,10.1,18,10,17.7,10z"
		/>
	<path class="st3" d="M18.3,59.3c-0.1-0.2-0.2-0.4-0.4-0.5s-0.2-0.1-0.3-0.1c-0.3,0-0.5,0.2-0.7,0.5c-0.2,0.2-0.2,0.5-0.1,0.6
		c0.1,0.2,0.2,0.4,0.4,0.5c0.2,0.1,0.2,0.1,0.3,0.1c0.3,0,0.5-0.2,0.7-0.5C18.3,59.7,18.4,59.5,18.3,59.3z"/>
	<circle class="st4" cx="30.3" cy="3.8" r="0.8"/>
	<path class="st3" d="M60.8,34.5l8.2-4.4c0.3-0.2,0.5-0.4,0.5-0.7v-9.6c0-0.2-0.2-0.6-0.5-0.7l-11.6-6.3c-0.2-0.1-0.3-0.2-0.4-0.2
		c-0.2,0-0.6,0.2-0.7,0.4c-0.2,0.2-0.2,0.4-0.1,0.5c0.1,0.2,0.2,0.4,0.4,0.5l0.5,0.3l0.9,0.5l-0.9,0.5l-6.7,3.6
		c-0.2,0.2-0.5,0.5-0.5,0.7v8.9l-0.5,0.1l-5.6,0.6l-0.1-0.1L36,25h-0.2v-4l0.3-0.1l8.1-4.5c0.3-0.2,0.5-0.4,0.5-0.7V7.5l0.9,0.4
		l1.6,0.9c0.2,0.1,0.3,0.2,0.4,0.2c0.2,0,0.6-0.2,0.7-0.4c0.2-0.2,0.2-0.4,0.1-0.5c-0.1-0.2-0.2-0.4-0.4-0.5L35.4,0.6
		c-0.2-0.1-0.2-0.1-0.4-0.1c-0.1,0-0.2,0-0.2,0c-0.1,0-0.2,0-0.2,0.1L22.1,7.5c-0.4,0.2-0.5,0.7-0.3,1.1c0.2,0.3,0.5,0.4,0.7,0.4
		c0.2,0,0.2-0.1,0.4-0.2l1.6-0.9l0.9-0.4v8.2c0,0.4,0.2,0.6,0.5,0.7l8.2,4.4l0.3,0.1v4L33.9,25l-7.7,4.2l-0.1,0.1h-0.2l-5.4-0.6
		L20,28.5v-8.7c0-0.2-0.2-0.6-0.5-0.7l-6.7-3.6L12,15l0.9-0.5l0.5-0.3c0.2-0.2,0.3-0.3,0.4-0.5c0.1-0.2,0.1-0.5-0.1-0.5v-0.1
		c-0.2-0.3-0.5-0.4-0.7-0.4c-0.2,0-0.2,0.1-0.4,0.2l-0.1,0.1l0,0c-1,0.5-10.8,5.8-11.5,6.2c-0.2,0.2-0.5,0.5-0.5,0.7v9.6
		c0,0.4,0.2,0.6,0.5,0.7l8.2,4.4l0.3,0.1v1.6l-0.3,0.1L1,40.8c-0.2,0.2-0.5,0.5-0.5,0.7v9.6c0,0.4,0.2,0.6,0.5,0.7l11.4,6
		c0.2,0.1,0.2,0.1,0.3,0.1c0.3,0,0.5-0.2,0.7-0.5c0.1-0.2,0.2-0.4,0.1-0.5c-0.1-0.2-0.2-0.4-0.3-0.5h-0.1l-1-0.5l0.9-0.5l6.5-3.6
		c0.3-0.2,0.5-0.4,0.5-0.7v-8.9l0.5-0.1l5.4-1.4l0.2-0.1l0.2,0.1l7.7,4.1l0.3,0.1v3.9L34,49.1c-0.9,0.5-8.2,4.4-8.2,4.4
		c-0.2,0.2-0.5,0.5-0.5,0.7v8.3l-2.6-1.2c-0.2-0.1-0.2-0.1-0.3-0.1c-0.3,0-0.5,0.2-0.7,0.5c-0.1,0.2-0.2,0.4-0.1,0.5
		c0.1,0.2,0.2,0.4,0.4,0.5l12.5,6.6c0.2,0.1,0.3,0.2,0.4,0.2c0.1,0,0.2,0,0.2,0c0.1,0,0.2,0,0.2-0.1L48,62.8
		c0.2-0.1,0.3-0.2,0.4-0.5c0.1-0.2,0.1-0.5-0.1-0.5v-0.1c-0.2-0.3-0.5-0.5-0.9-0.4c-0.1,0-0.1,0-0.2,0l-2.6,1.2v-8.2
		c0-0.2-0.2-0.6-0.5-0.7l-8-4.5L35.8,49v-4l0.3-0.1l7.9-4.2l0.2,0.1l5.8,1.5v8.9c0,0.4,0.2,0.6,0.5,0.7L58,56l-1,0.5h-0.1
		c-0.4,0.2-0.5,0.6-0.3,1.1c0,0.1,0.4,0.3,0.6,0.3c0.1,0,0.2,0,0.3,0l0,0l11.4-6c0.3-0.2,0.5-0.4,0.5-0.7v-9.7
		c0-0.2-0.2-0.6-0.5-0.7l-8.2-4.4l-0.3-0.1v-1.6L60.8,34.5z M18.4,21.1v7.8L18,28.9l-6.1,3.3L11,32.7V25l0.3-0.1l6.1-3.3L18.4,21.1z
		 M9.4,32.8l-0.8-0.5L2.5,29l-0.3-0.1v-7.8L3,21.6L9.1,25L9.4,25V32.8z M3,19.8L4,19.3l6.2-3.3l0.2,0.1l6.9,3.8l-0.9,0.5l-6.2,3.3
		L10,23.6L3,19.8z M8.6,54.2l-6.2-3.3l-0.2-0.2v-7.7L3,43.3l6.1,3.3l0.2,0.1v1.7l0,0v6.1L8.6,54.2z M10.3,45.5L10,45.3l-7-3.8l1-0.3
		l6.2-3.3l0.2,0.1l6.9,3.8l-0.9,0.5l-5.9,3.1L10.3,45.5z M18.4,50.6L18,50.7l-6.1,3.3L11,54.4v-7.8l0.3-0.1l6.1-3.3l0.9-0.4V50.6z
		 M25.3,31.4v7.7l-0.5,0.1l-5.4,1.4l-0.2,0.2L19,40.5l-7.6-4.1L11,36.3v-1.7l0.3-0.1l7.7-4.2l0.1-0.1h0.3l5.4,0.6l0.5,0.1L25.3,31.4
		z M43.1,15.2l-0.3,0.2l-6.1,3.4l-0.9,0.4v-7.8l0.3-0.1l6.1-3.3l0.9-0.5V15.2z M34.2,19.1l-0.9-0.3l-6.1-3.3l-0.3-0.1V7.5l0.9,0.4
		l6.1,3.3l0.3,0.1V19.1z M27.8,6.1l1-0.5l5.9-3.3L35,2.3l0.2,0.1l7.1,3.8l-1,0.5l-6,3.3L35,10l-0.2-0.1L27.8,6.1z M34.2,43.2
		l-0.9-0.4l-6.1-3.3l-0.3-0.1v-7.8l0.9,0.4l6.1,3.3l0.3,0.1V43.2z M34.2,67.3l-0.9-0.4l-6.1-3.3l-0.3-0.1v-7.9l0.9,0.4l6.1,3.3
		l0.3,0.1V67.3z M43.1,63.3l-0.3,0.2l-6.1,3.4l-0.9,0.4v-7.8l0.3-0.1l6.1-3.3l0.9-0.5V63.3z M42.2,54.3l-1,0.5l-6,3.3L35,58.1
		L34.8,58l-7-3.8l0.9-0.5l6.1-3.3h0.3l0.2,0.1L42.2,54.3z M35,34.1L34.8,34l-7-3.8l0.9-0.5l6.2-3.3l0.2,0.1l6.9,3.8l-0.8,0.5
		L35,34.1z M43.1,39.3l-0.3,0.2l-6.1,3.3l-0.9,0.4v-7.8l0.3-0.1l6.1-3.3l0.9-0.4V39.3z M67.8,21.1v7.8l-0.3,0.1l-6.1,3.3l-0.9,0.4
		V25l0.3-0.1l6.1-3.3L67.8,21.1z M51.6,21.2l0.9,0.4l6.1,3.3L59,25v7.9l-0.9-0.4L52,29.1l-0.3-0.2V21.2z M50.6,40.7l-5.9-1.5v-8.3
		l0.5-0.1l5.6-0.6l0.1,0.1l7.8,4.2l0.3,0.1v1.7l-0.3,0.1l-7.9,4.3L50.6,40.7z M59,54.5l-0.9-0.4L52,50.9l-0.3-0.2v-7.7l0.9,0.4
		l6.1,3.3l0.3,0.1V54.5z M67.8,50.6l-0.3,0.1l-6.1,3.3l-0.9,0.4v-7.8l0.3-0.1l6.1-3.3l0.9-0.4V50.6z M67,41.6L66,42.2l-6.2,3.2
		l-0.3-0.1l-6-3.3l-1-0.5l1-0.5l6.2-3.3l0.2,0.1L67,41.6z M59.7,23.7l-0.2-0.1l-6.9-3.8l0.9-0.5l6.2-3.3L60,16l6.9,3.8L66,20.4
		L59.7,23.7z"/>
	<rect class="st5" width="70" height="70"/>
</g>
</svg>
