<?xml version="1.0" encoding="utf-8"?>
<!-- Generator: Adobe Illustrator 23.0.1, SVG Export Plug-In . SVG Version: 6.00 Build 0)  -->
<svg version="1.1" id="Слой_1" xmlns="http://www.w3.org/2000/svg" xmlns:xlink="http://www.w3.org/1999/xlink" x="0px" y="0px"
	 width="70px" height="70px" viewBox="0 0 70 70" style="enable-background:new 0 0 70 70;" xml:space="preserve">
<style type="text/css">
	.st0{fill:#FF5555;}
	.st1{display:none;fill:none;stroke:#000000;stroke-width:0.48;stroke-miterlimit:10;}
</style>
<path class="st0" d="M24.6,51.3c0,0-0.5-4.6-0.3-4.6s7.2-0.4,7.2-0.4l-0.1-6.7c0,0-6.7,0.4-6.6,0S24.6,34,24.6,34l10.3-6.4l11.3,6.8
	l-0.1,17.1l-4.4-0.1L41.4,42l0.1-2.3c0,0-0.7,0.4-1.1,0.4s-4.1,0.5-4.1,0.5l-0.5,11L24.6,51.3z"/>
<g>
	<path d="M51,0.5H19c-2.4,0-4.2,1.8-4.2,4.2v60.7c0,2.4,1.8,4.2,4.2,4.2h32c2.4,0,4.2-1.8,4.2-4.2V4.7C55.2,2.4,53.3,0.5,51,0.5z
		 M53.2,4.7v60.7c0,1.2-1,2.2-2.2,2.2H19c-1.2,0-2.2-1-2.2-2.2V4.7c0-1.2,1-2.2,2.2-2.2h32C52.2,2.5,53.2,3.5,53.2,4.7z"/>
	<path d="M49.9,59H20.1c-0.6,0-1,0.4-1,1s0.4,1,1,1h29.8c0.6,0,1-0.4,1-1S50.5,59,49.9,59z"/>
	<path d="M36.4,63.2h-2.9c-0.6,0-1,0.4-1,1c0,0.6,0.4,1,1,1h2.9c0.6,0,1-0.4,1-1C37.4,63.6,36.9,63.2,36.4,63.2z"/>
	<path d="M37.5,20.2c-0.7-0.5-1.6-0.7-2.5-0.7c-0.9,0-1.9,0.3-2.7,0.9c-0.4,0.3-0.5,0.9-0.2,1.4c0.2,0.2,0.5,0.4,0.8,0.4
		c0.2,0,0.4-0.1,0.6-0.2c0.9-0.6,2-0.7,2.9-0.1c0.3,0.1,0.6,0.2,0.8,0.1c0.2-0.1,0.5-0.2,0.6-0.4c0.2-0.3,0.2-0.5,0.1-0.8
		C37.9,20.5,37.7,20.3,37.5,20.2z"/>
	<path d="M39.9,18.3c0.3,0,0.5-0.2,0.7-0.4c0.1-0.2,0.2-0.4,0.2-0.6c0-0.3-0.2-0.5-0.4-0.7c-1.6-1.1-3.5-1.7-5.3-1.7
		c-1.9,0-3.9,0.7-5.4,1.8c-0.2,0.1-0.3,0.4-0.4,0.7c0,0.3,0,0.5,0.2,0.7c0.2,0.2,0.5,0.4,0.8,0.4c0.2,0,0.4-0.1,0.6-0.2
		c2.4-1.9,5.8-1.9,8.4-0.2C39.4,18.3,39.7,18.3,39.9,18.3z"/>
	<path d="M27.5,14.5c0.2,0,0.4-0.1,0.6-0.2c4.1-3,9.6-3,13.8-0.1c0.5,0.3,1.1,0.2,1.4-0.2c0.3-0.5,0.2-1.1-0.2-1.4
		C40.7,10.9,37.9,10,35,10c-3,0-5.8,0.9-8.2,2.7c-0.2,0.2-0.4,0.4-0.4,0.7c0,0.2,0,0.5,0.2,0.7C26.9,14.3,27.2,14.5,27.5,14.5z"/>
	<path d="M22.2,50.5c-0.6,0-1,0.4-1,1s0.4,1,1,1h25.6c0.6,0,1-0.4,1-1s-0.4-1-1-1h-1.1V36l0.5,0.4c0.2,0.2,0.5,0.2,0.8,0.2
		c0.3-0.1,0.5-0.2,0.7-0.5c0.1-0.3,0.2-0.6,0.1-0.8c-0.1-0.2-0.2-0.5-0.4-0.6l-12.8-8.4c-0.3-0.2-0.8-0.2-1.1,0l-12.8,8.5
		c-0.2,0.1-0.4,0.4-0.4,0.7c0,0.2,0,0.4,0.1,0.7c0.1,0.2,0.4,0.4,0.7,0.4c0.2,0,0.4,0,0.7-0.1l0.7-0.4v14.5H22.2z M40.4,40.8v9.7
		h-3.3v-9.7H40.4z M32.8,46.2v-6.4c0-0.6-0.4-1-1-1h-6.5v-4.1l9.7-6.5l9.7,6.5v15.8h-2.3V39.8c0-0.6-0.4-1-1-1h-5.3
		c-0.6,0-1,0.4-1,1v10.7h-9.7v-3.3h6.5C32.4,47.2,32.8,46.8,32.8,46.2z M25.3,45.2v-4.4h5.5v4.4H25.3z"/>
</g>
<rect x="0.8" y="0.8" class="st1" width="68.5" height="68.5"/>
</svg>
