<?xml version="1.0" encoding="utf-8"?>
<!-- Generator: Adobe Illustrator 23.0.1, SVG Export Plug-In . SVG Version: 6.00 Build 0)  -->
<svg version="1.1" id="Слой_1" xmlns="http://www.w3.org/2000/svg" xmlns:xlink="http://www.w3.org/1999/xlink" x="0px" y="0px"
	 width="70px" height="70px" viewBox="0 0 70 70" style="enable-background:new 0 0 70 70;" xml:space="preserve">
<style type="text/css">
	.st0{fill:#FF5555;}
</style>
<g>
	<g>
		<polygon class="st0" points="41,0.9 29.3,0.9 29.3,5.3 41,5.3 		"/>
	</g>
	<g>
		<polygon class="st0" points="45.3,5.9 25.2,5.9 25.2,11.8 45.3,11.8 		"/>
	</g>
	<g>
		<polygon class="st0" points="62.1,19.9 50.3,19.9 50.3,25.4 62.1,25.4 		"/>
	</g>
	<g>
		<polygon class="st0" points="59.4,14.8 53,14.8 53,20.3 59.4,20.3 		"/>
	</g>
	<g>
		<polygon class="st0" points="12.3,50.4 8.7,50.4 8.7,54.1 12.3,54.1 		"/>
	</g>
	<g>
		<polygon class="st0" points="20.4,33.1 17,33.1 17,36.6 20.4,36.6 		"/>
	</g>
</g>
<g>
	<path d="M29.4,22h11.8c0.7,0,1-0.5,1-1s-0.3-1-1-1H29.4c-0.7,0-1,0.5-1,1S28.7,22,29.4,22z"/>
	<path d="M29.4,31.9h11.8c0.7,0,1-0.5,1-1s-0.3-1-1-1H29.4c-0.7,0-1,0.5-1,1S28.7,31.9,29.4,31.9z"/>
	<path d="M29.4,41.8h11.8c0.7,0,1-0.5,1-1s-0.3-1-1-1H29.4c-0.7,0-1,0.5-1,1S28.7,41.8,29.4,41.8z"/>
	<path d="M29.4,51.8h11.8c0.7,0,1-0.5,1-1c0-0.5-0.3-1-1-1H29.4c-0.7,0-1,0.5-1,1C28.4,51.3,28.7,51.8,29.4,51.8z"/>
	<path d="M29.4,61.7h11.8c0.7,0,1-0.5,1-1c0-0.5-0.3-1-1-1H29.4c-0.7,0-1,0.5-1,1C28.4,61.1,28.7,61.7,29.4,61.7z"/>
	<path d="M51.1,31c-0.5,0-1,0.3-1,1v3.4c0,0.3,0.1,0.6,0.3,0.7c0.2,0.2,0.4,0.2,0.7,0.2c0.5,0,1-0.3,1-1V32c0-0.3-0.1-0.5-0.3-0.7
		S51.3,31,51.1,31z"/>
	<path d="M56.4,31.1c-0.5,0-1,0.3-1,1v3.4c0,0.3,0.1,0.6,0.3,0.7c0.2,0.2,0.4,0.2,0.7,0.2c0.5,0,1-0.3,1-1V32c0-0.3-0.1-0.5-0.3-0.7
		C56.9,31.1,56.6,31.1,56.4,31.1z"/>
	<path d="M51.1,39.2c-0.5,0-1,0.3-1,1v3.4c0,0.3,0.1,0.6,0.3,0.7c0.2,0.2,0.4,0.2,0.7,0.2c0.5,0,1-0.3,1-1v-3.4
		c0-0.3-0.1-0.5-0.3-0.7S51.3,39.2,51.1,39.2z"/>
	<path d="M56.4,39.3c-0.5,0-1,0.3-1,1v3.4c0,0.3,0.1,0.6,0.3,0.7c0.2,0.2,0.4,0.2,0.7,0.2c0.5,0,1-0.3,1-1v-3.5
		c0-0.3-0.1-0.5-0.3-0.7C56.9,39.3,56.6,39.3,56.4,39.3z"/>
	<path d="M51.1,47.4c-0.6,0-1,0.5-1,1v3.4c0,0.3,0.1,0.6,0.3,0.7c0.2,0.2,0.4,0.2,0.7,0.2c0.5,0,1-0.3,1-1v-3.4
		C52.1,47.7,51.6,47.4,51.1,47.4z"/>
	<path d="M56.4,47.4c-0.6,0-1,0.5-1,1v3.4c0,0.3,0.1,0.6,0.3,0.7c0.2,0.2,0.4,0.2,0.7,0.2c0.5,0,1-0.3,1-1v-3.4
		C57.4,47.7,56.9,47.4,56.4,47.4z"/>
	<path d="M61.7,36.5c0.5,0,1-0.3,1-1V32c0-0.3-0.1-0.5-0.3-0.7c-0.2-0.2-0.5-0.2-0.7-0.2c-0.5,0-1,0.3-1,1v3.4
		c0,0.3,0.1,0.6,0.3,0.7C61.2,36.4,61.4,36.5,61.7,36.5z"/>
	<path d="M61.7,44.7c0.5,0,1-0.3,1-1v-3.5c0-0.3-0.1-0.5-0.3-0.7c-0.2-0.2-0.5-0.2-0.7-0.2c-0.5,0-1,0.3-1,1v3.4
		c0,0.3,0.1,0.6,0.3,0.7C61.2,44.6,61.4,44.7,61.7,44.7z"/>
	<path d="M61.7,52.8c0.5,0,1-0.3,1-1v-3.4c0-0.6-0.5-1-1-1c-0.5,0-1,0.5-1,1v3.4c0,0.3,0.1,0.6,0.3,0.7
		C61.2,52.7,61.4,52.8,61.7,52.8z"/>
	<path d="M69,67.7h-1.1V26.9c0-0.9-0.8-1.7-1.7-1.7h-2.7v-3.6c0-0.9-0.8-1.7-1.7-1.7h-1.3v-3.7c0-0.9-0.8-1.7-1.7-1.7h-1.3V7
		c0-1.3-2-1.3-2,0v7.6h-1.3c-0.9,0-1.7,0.8-1.7,1.7v3.7H51c-0.9,0-1.7,0.8-1.7,1.7v3.6h-2.5V6.9C46.7,6,46,5.2,45,5.2h-2.7V1.7
		c0-0.9-0.8-1.7-1.7-1.7H29.9c-0.9,0-1.7,0.8-1.7,1.7v3.5h-2.7c-0.9,0-1.7,0.8-1.7,1.7V18H4.4c-0.9,0-1.7,0.8-1.7,1.7v48.1H1.3
		c-0.7,0-1,0.5-1,1c0,0.5,0.3,1,1,1H69c0.7,0,1-0.5,1-1C70,68.3,69.7,67.7,69,67.7z M54.4,20v-3.4h4.1V20H54.4z M51.3,25.1v-3.2
		h10.1v3.2H51.3z M59.2,56.2h-5.6c-0.9,0-1.7,0.8-1.7,1.7v9.7h-5.1V27.1h19.1v40.6h-5v-9.8C60.9,57,60.1,56.2,59.2,56.2z M58.9,58.3
		v9.4h-5v-9.4H58.9z M30.2,5.3V2.1h10.2v3.2H30.2z M44.8,7.2v4.4h-19V7.2H44.8z M44.8,13.7v54h-19v-54H44.8z M23.7,20v47.8h-19V20
		H23.7z"/>
	<path d="M8.9,46.4h2.8c0.9,0,1.7-0.8,1.7-1.7V25c0-0.9-0.8-1.7-1.7-1.7H8.9c-0.9,0-1.7,0.8-1.7,1.7v19.7
		C7.2,45.6,7.9,46.4,8.9,46.4z M9.2,44.4V25.3h2.2v19.1H9.2z"/>
	<path d="M17.1,64.3H20c0.9,0,1.7-0.8,1.7-1.7l0-19.7c-0.1-0.9-0.8-1.7-1.7-1.7h-2.9c-0.9,0-1.7,0.8-1.7,1.7v19.7
		C15.4,63.5,16.2,64.3,17.1,64.3z M17.4,62.3v-19h2.2v19H17.4z"/>
	<path d="M17.1,37.9H20c0.9,0,1.7-0.8,1.7-1.7l0-2.7c-0.1-0.9-0.8-1.7-1.7-1.7h-2.9c-0.9,0-1.7,0.8-1.7,1.7v2.7
		C15.4,37.2,16.2,37.9,17.1,37.9z M17.4,35.9v-2.1h2.2v2.1H17.4z"/>
	<path d="M8.9,55.9h2.8c0.9,0,1.7-0.8,1.7-1.7v-2.7c0-1-0.7-1.7-1.7-1.7H8.9c-0.9,0-1.7,0.8-1.7,1.7v2.7C7.2,55.1,7.9,55.9,8.9,55.9
		z M9.2,53.8v-2h2.2v2H9.2z"/>
</g>
</svg>
