<?xml version="1.0" encoding="utf-8"?>
<!-- Generator: Adobe Illustrator 23.0.1, SVG Export Plug-In . SVG Version: 6.00 Build 0)  -->
<svg version="1.1" id="Слой_1" xmlns="http://www.w3.org/2000/svg" xmlns:xlink="http://www.w3.org/1999/xlink" x="0px" y="0px"
	 width="70px" height="70px" viewBox="0 0 70 70" style="enable-background:new 0 0 70 70;" xml:space="preserve">
<style type="text/css">
	.st0{display:none;fill:#FF5555;}
	.st1{fill:#FF5555;}
</style>
<circle class="st0" cx="0.2" cy="15.3" r="4.4"/>
<circle class="st0" cx="35.1" cy="-4.2" r="4.4"/>
<circle class="st0" cx="69.7" cy="15.4" r="4.4"/>
<circle class="st0" cx="34.9" cy="34.9" r="4.4"/>
<circle class="st0" cx="0.3" cy="54.4" r="4.4"/>
<circle class="st0" cx="35.3" cy="74.2" r="4.4"/>
<circle class="st1" cx="61.7" cy="50" r="3.4"/>
<circle class="st1" cx="34.8" cy="65.2" r="3.4"/>
<circle class="st1" cx="8.1" cy="50.4" r="3.4"/>
<circle class="st1" cx="34.9" cy="34.9" r="3.4"/>
<circle class="st1" cx="8.1" cy="20" r="3.4"/>
<circle class="st1" cx="34.9" cy="4.4" r="3.4"/>
<circle class="st1" cx="61.9" cy="19.9" r="3.4"/>
<path d="M66.2,50c0-0.1,0-0.1,0-0.2c0-0.1,0-0.3-0.1-0.4c0-0.1,0-0.2-0.1-0.3c0-0.2-0.1-0.4-0.2-0.6c0-0.1,0-0.1-0.1-0.2
	c-0.1-0.3-0.2-0.5-0.4-0.7c0,0,0,0,0,0c-0.1-0.2-0.2-0.3-0.4-0.5c-0.4-0.4-0.8-0.7-1.2-1c0,0-0.1,0-0.1,0c-0.3-0.2-0.6-0.3-1-0.4
	V24.2h0.1l0.1,0c1.2-0.3,2.2-1,2.8-2c0.6-1.1,0.8-2.3,0.5-3.4c-0.6-2.1-2.3-3.4-4.4-3.4c0,0,0,0,0,0c0,0,0,0,0,0
	c-1.2,0-2.2,0.5-3,1.2l-19.2-11l-0.1-0.1V5.3c0-0.1,0-0.2,0.1-0.3l0-0.3c0-2.4-2.1-4.5-4.5-4.5c0,0,0,0,0,0c0,0,0,0,0,0
	c-2.5,0-4.5,2-4.5,4.5c0,0.2,0,0.5,0.1,0.7L11.3,16.6l0,0l-0.1-0.1c-0.1-0.1-0.2-0.1-0.2-0.2c-0.1-0.1-0.2-0.2-0.3-0.2
	c-0.2-0.1-0.3-0.2-0.5-0.3c-0.1,0-0.2-0.1-0.2-0.1c-0.2-0.1-0.4-0.1-0.7-0.2c-0.1,0-0.1,0-0.2-0.1c-0.3-0.1-0.6-0.1-0.9-0.1
	c-1.3,0-2.5,0.5-3.4,1.5c-0.1,0.1-0.2,0.3-0.3,0.4c0,0.1-0.1,0.1-0.1,0.2c-0.1,0.1-0.2,0.3-0.2,0.4C4.1,18,4.1,18.1,4,18.3
	c0,0.1-0.1,0.2-0.1,0.3c-0.1,0.2-0.1,0.4-0.1,0.6c0,0.1,0,0.1,0,0.2c0,0.2-0.1,0.3-0.1,0.5c0,0.1,0,0.1,0,0.2c0,0.1,0,0.1,0,0.2
	c0,0.2,0,0.5,0.1,0.7c0,0.1,0.1,0.2,0.1,0.3C4,21.4,4,21.5,4.1,21.7c0.1,0.2,0.2,0.4,0.3,0.6c0,0,0.1,0.1,0.1,0.1
	c0.2,0.3,0.4,0.6,0.7,0.8C5.6,23.5,6,23.8,6.4,24C6.4,24,6.5,24,6.6,24c0.1,0,0.2,0.1,0.2,0.1c0.1,0,0.3,0.1,0.4,0.1v21.5
	c-0.1,0-0.1,0-0.2,0.1l0,0c0,0,0,0,0,0c-1.4,0.4-2.5,1.4-3,2.8c0,0.1-0.1,0.2-0.1,0.3c-0.1,0.2-0.1,0.4-0.1,0.5c0,0.2,0,0.3,0,0.5
	c0,0.1,0,0.2,0,0.3c0,0,0,0.1,0,0.1c0,0.1,0,0.3,0,0.4c0,0.2,0,0.4,0.1,0.5c0,0,0,0,0,0.1c0,0.1,0.1,0.2,0.1,0.2
	C4,51.7,4,51.8,4.1,52c0.7,1.7,2.3,2.8,4.2,2.8c0.3,0,0.6-0.1,0.9-0.1l0.2,0c0.7-0.2,1.4-0.5,2-1l0.1-0.1l19.1,11.1
	c0,0.2-0.1,0.5-0.1,0.7c0,2.4,2.1,4.5,4.5,4.5c0,0,0,0,0,0c0,0,0,0,0,0c2.4,0,4.5-2.1,4.5-4.5c0-0.2,0-0.4-0.1-0.6v-0.1l19.1-11.2
	l0.1,0l0.1,0.1c0.8,0.7,1.9,1.1,3,1.1c1.3,0,2.5-0.5,3.4-1.5c0.8-0.9,1.1-1.9,1.1-3.1C66.2,50.1,66.2,50.1,66.2,50
	C66.2,50,66.2,50,66.2,50z M31.5,62.5l-0.1,0.1L12.5,51.7l-0.1-0.1l0.1-0.1c0.1-0.1,0.1-0.3,0.1-0.4v-0.1h12.9L32,61.9l-0.2,0.2
	c-0.1,0.1-0.1,0.1-0.1,0.2C31.6,62.3,31.5,62.4,31.5,62.5z M6.8,48.1c0.4-0.3,0.9-0.4,1.4-0.4c1.3,0,2.5,1.1,2.5,2.5
	c0,1.3-1.1,2.5-2.5,2.5c-1.3,0-2.4-1.1-2.5-2.5c0-0.7,0.3-1.3,0.7-1.7c0.1-0.1,0.1-0.1,0.2-0.2C6.7,48.2,6.7,48.2,6.8,48.1z
	 M5.8,19.9c0-1.3,1.1-2.5,2.5-2.5s2.5,1.1,2.5,2.5s-1.1,2.5-2.5,2.5S5.8,21.2,5.8,19.9z M61.7,47.7c1.4,0,2.4,1,2.4,2.4
	c0,1.3-1.1,2.4-2.4,2.4c-1.3,0-2.4-1.1-2.4-2.4C59.3,48.7,60.3,47.7,61.7,47.7z M60.9,45.6c-0.1,0-0.2,0.1-0.3,0.1l-6.5-10.7v-0.2
	l6.3-10.6l0.1-0.1h0.4V45.6z M36,9.1h0.4l5.8,9.8H36L36,9.1C36,9.1,36,9.1,36,9.1z M47.9,41.2L47.9,41.2l-8.7-4.9l-0.1-0.1V36
	c0.2-0.7,0.2-1.5,0-2.2v-0.1l8.7-4.9l3.6,6.2l0,0L47.9,41.2z M38.3,31.8L38.3,31.8c-0.6-0.6-1.3-0.9-2-1.2l-0.2,0v-9.8h7.3l3.6,6.1
	L38.3,31.8z M37.5,35c0,1.4-1.1,2.5-2.5,2.5s-2.5-1.1-2.5-2.5s1.1-2.5,2.5-2.5S37.5,33.6,37.5,35z M34,30.7h-0.1l-0.1,0
	c-0.9,0.2-1.5,0.6-2,1.2l-0.1,0.1L23,27l3.6-6l0.1-0.1H34V30.7z M36,39.3h0.1l0.1,0c0.9-0.2,1.5-0.6,2-1.2l0.1-0.1L47,43l-3.6,6
	l-0.1,0.1H36V39.3z M34.1,9.1v9.7h-6.2l5.7-9.7l0.1-0.1h0.2C33.9,9.1,34,9.1,34.1,9.1z M30.7,36.1v0.1L22,41.1H22L18.4,35l3.6-6.3
	l8.6,4.9l0.1,0.1v0.2C30.4,34.6,30.4,35.4,30.7,36.1z M21.2,44l3.1,5.1H12.6l-0.1-0.2L21.2,44z M31.6,38.2L31.6,38.2L31.6,38.2
	c0.7,0.6,1.3,1,2.1,1.3l0.2,0v9.8h-7.2l-0.1-0.1L23,43L31.6,38.2z M34,51.2v9.8h-0.4l-5.8-9.8H34z M24.3,20.9l-0.1,0.3l-2.9,5
	L21.1,26l-8.5-4.8l-0.1-0.1l0.1-0.1l0-0.1H24.3z M11.5,47L11.5,47l-0.1-0.1l0.1-0.1l5.7-9.7l3,5.2l-8.5,4.8L11.5,47L11.5,47z M36,61
	v-9.8h6.1L36.2,61l0,0C36.1,61,36.1,61,36,61z M57.3,49H45.7l3-5.2l8.7,4.9l0,0C57.4,48.8,57.4,48.9,57.3,49z M49.8,42.1l3.1-5.2
	l5.8,9.9L58.4,47L49.8,42.1z M58.5,22.9l0.1,0.1l-0.1,0.1l-5.7,9.7l-3-5.2l8.5-4.9L58.5,22.9z M57.5,21.1L57.5,21.1L48.8,26
	l-2.9-4.9l-0.1-0.3h11.6C57.4,20.9,57.4,21,57.5,21.1z M20.2,27.9L17.1,33l-5.9-9.8l0,0l0.3-0.3L20.2,27.9z M37.4,4.7
	c0,1.3-1.1,2.4-2.4,2.4c-1.4,0-2.4-1.1-2.4-2.4c0-1.4,1-2.4,2.4-2.4C36.3,2.3,37.4,3.4,37.4,4.7z M9.3,24.2h0.3l6.4,10.7l0,0.1
	l-0.1,0.1L9.5,45.8H9.3c0,0,0,0-0.1,0L9.3,24.2C9.3,24.2,9.3,24.2,9.3,24.2z M35,67.7c-1.4,0-2.5-1.1-2.5-2.5c0-0.5,0.1-0.9,0.4-1.3
	c0.4-0.6,1.2-1.1,2-1.1c1.3,0,2.5,1.1,2.5,2.5c0,0.8-0.4,1.6-1.1,2C35.9,67.6,35.5,67.7,35,67.7z M61.7,17.4c1.4,0,2.4,1,2.4,2.4
	c0,1.3-1.1,2.4-2.4,2.4c-1.3,0-2.4-1.1-2.4-2.4C59.3,18.5,60.4,17.4,61.7,17.4z M57.3,18.9H44.6L38.1,8.1V8l0.1-0.1
	c0.1-0.1,0.1-0.1,0.2-0.2l0.3-0.3l18.8,10.9l0,0C57.4,18.5,57.4,18.7,57.3,18.9z M31.9,8L31.9,8l-6.5,10.8H12.6v-0.1
	c0-0.2,0-0.2-0.1-0.3l0-0.1c0,0,0,0,0,0l0.1-0.1L31.3,7.4C31.5,7.6,31.7,7.8,31.9,8z M38.6,62.6l-0.4-0.4c0,0-0.1-0.1-0.1-0.1l0-0.1
	l0.1-0.1l6.4-10.8h12.7v0.1c0,0.2,0,0.2,0.1,0.3l0,0.1c0,0,0,0,0,0l-0.1,0.1L38.6,62.6z"/>
</svg>
