<?xml version="1.0" encoding="utf-8"?>
<!-- Generator: Adobe Illustrator 23.0.1, SVG Export Plug-In . SVG Version: 6.00 Build 0)  -->
<svg version="1.1" id="Слой_1" xmlns="http://www.w3.org/2000/svg" xmlns:xlink="http://www.w3.org/1999/xlink" x="0px" y="0px"
	 width="70px" height="70px" viewBox="0 0 70 70" style="enable-background:new 0 0 70 70;" xml:space="preserve">
<style type="text/css">
	.st0{fill:#FF5555;}
	.st1{stroke:#000000;stroke-width:0.44;stroke-miterlimit:10;}
</style>
<rect x="5.9" y="2" class="st0" width="48.2" height="6.1"/>
<rect x="5.9" y="61.8" class="st0" width="36.2" height="6.1"/>
<path class="st0" d="M51.2,45.7c0,0.2-1.8,5.2-1.8,5.2s-2.4-0.8-2.4-1s-0.6-10.3-0.6-10.3l2.3-1.6l8.8,0.6l1.3,2l-2.6,2.1
	c0,0-1.3-0.2-1.2,0s4,5.6,4,5.6l-1.1,2.4c0,0-4-1.7-4-1.9S51.2,45.7,51.2,45.7z"/>
<g>
	<path class="st1" d="M30,3.9c-0.5,0-0.8,0.4-0.8,0.8c0,0.5,0.4,0.8,0.8,0.8c0.4,0,0.8-0.4,0.8-0.8C30.7,4.3,30.4,3.9,30,3.9z"/>
	<path class="st1" d="M51.8,0.5H8.1C6.1,0.5,4.6,2.1,4.6,4v61.8c0,1.9,1.6,3.5,3.5,3.5h54.8c1.3,0,2.3-1.1,2.3-2.3v-36
		c0-1.3-1.1-2.3-2.3-2.3h-7.5V4C55.3,2.1,53.8,0.5,51.8,0.5z M6.2,4c0-1.1,0.9-1.9,1.9-1.9h43.8c1.1,0,1.9,0.9,1.9,1.9v3.3H6.2V4z
		 M8.1,67.7c-1.1,0-1.9-0.9-1.9-1.9v-3.3h35v4.4c0,0.2,0,0.3,0.1,0.5l0.1,0.3C41.3,67.7,8.1,67.7,8.1,67.7z M41.2,30.9v30h-35v-52
		h47.6v19.7H43.5C42.2,28.6,41.2,29.6,41.2,30.9z M63.6,63h-3.5c-0.5,0-0.8,0.4-0.8,0.8c0,0.5,0.4,0.8,0.8,0.8h3.5v2.4
		c0,0.5-0.4,0.8-0.8,0.8H43.5c-0.5,0-0.8-0.4-0.8-0.8v-2.4h12.6c0.5,0,0.8-0.4,0.8-0.8c0-0.5-0.4-0.8-0.8-0.8H42.8V34.5h20.9V63z
		 M62.8,30.1c0.5,0,0.8,0.4,0.8,0.8v2H42.8v-2c0-0.5,0.4-0.8,0.8-0.8H62.8z"/>
	<path class="st1" d="M20.4,18.6H14c-0.5,0-0.8,0.4-0.8,0.8s0.4,0.8,0.8,0.8h6.4c0.5,0,0.8-0.4,0.8-0.8S20.9,18.6,20.4,18.6z"/>
	<path class="st1" d="M35.1,25.4H14c-0.5,0-0.8,0.4-0.8,0.8c0,0.4,0.4,0.8,0.8,0.8h21.3c0.5,0,0.8-0.4,0.8-0.8
		C36,25.8,35.6,25.4,35.1,25.4z"/>
	<path class="st1" d="M35.1,30.4H14c-0.5,0-0.8,0.4-0.8,0.8c0,0.4,0.4,0.8,0.8,0.8h21.3c0.5,0,0.8-0.4,0.8-0.8
		C36,30.8,35.6,30.4,35.1,30.4z"/>
	<path class="st1" d="M35.1,35.3H14c-0.5,0-0.8,0.4-0.8,0.8c0,0.5,0.4,0.8,0.8,0.8h21.3c0.5,0,0.8-0.4,0.8-0.8
		C36,35.7,35.6,35.3,35.1,35.3z"/>
	<path class="st1" d="M19.8,42.4h-4.5c-1.2,0-2.2,0.9-2.2,2.2v4.5c0,1.2,0.9,2.2,2.2,2.2h4.5c1.2,0,2.2-0.9,2.2-2.2v-4.5
		C21.9,43.4,21,42.4,19.8,42.4z M20.3,49c0,0.3-0.2,0.5-0.5,0.5h-4.5c-0.3,0-0.5-0.2-0.5-0.5v-4.5c0-0.3,0.2-0.5,0.5-0.5h4.5
		c0.3,0,0.5,0.2,0.5,0.5V49z"/>
	<path class="st1" d="M56.7,37.5L56.7,37.5h-8.1c-0.8,0-1.5,0.3-2,0.9c-0.5,0.5-0.9,1.2-0.9,1.9v8.1c0,0.8,0.3,1.5,0.9,2
		c0.5,0.5,1.2,0.9,2,0.9c0.8,0,1.5-0.3,2-0.9c0.5-0.5,0.9-1.2,0.9-2v-1.3l3.8,3.8c0.5,0.5,1.2,0.9,2,0.9c0.8,0,1.5-0.3,2-0.9
		c0.5-0.5,0.9-1.2,0.9-2s-0.3-1.5-0.9-2L55.6,43h1.3c0.8,0,1.5-0.3,2-0.9c0.5-0.5,0.9-1.2,0.9-2s-0.3-1.5-0.9-2
		C58.2,37.7,57.5,37.5,56.7,37.5z M57.6,41.2c-0.2,0.2-0.5,0.4-0.9,0.4h-3.2c-0.3,0-0.6,0.2-0.7,0.5c-0.2,0.3-0.1,0.6,0.2,0.9
		l5.1,5.1c0.2,0.2,0.4,0.5,0.4,0.9c0,0.3-0.2,0.6-0.4,0.9c-0.2,0.2-0.5,0.4-0.9,0.4s-0.6-0.2-0.9-0.4l-5.2-5
		c-0.2-0.2-0.5-0.3-0.9-0.2s-0.5,0.4-0.5,0.7v3.2c0,0.3-0.2,0.6-0.4,0.9c-0.5,0.5-1.3,0.5-1.8,0c-0.2-0.2-0.4-0.5-0.4-0.9v-8.1
		c0-0.3,0.2-0.6,0.4-0.9s0.5-0.4,0.9-0.4h8.1c0.3,0,0.6,0.2,0.9,0.4c0.2,0.2,0.4,0.5,0.4,0.9C58,40.6,57.8,40.9,57.6,41.2z"/>
</g>
</svg>
