<svg id="Layer_1" data-name="Layer 1" xmlns="http://www.w3.org/2000/svg" viewBox="0 0 512 512"><defs><style>.cls-1{fill:#141f38;}</style></defs><title>helmet_1_style_2</title><path class="cls-1" d="M409.91,409.62a216.89,216.89,0,0,0,63.16-169C465.64,132.82,378,45.71,270.24,38.85c-.48,0-1,0-1.44,0v-26a12.8,12.8,0,0,0-25.6,0V38.9A216.43,216.43,0,0,0,130.46,78.24c-16,11.34-17.62,34.61-3.73,48.49l2.63,2.63a178.84,178.84,0,0,0,0,253.28l-27,27H89.6a51.2,51.2,0,0,0,0,102.4h320a51.19,51.19,0,0,0,.31-102.38ZM102.4,256a153,153,0,0,1,45.1-108.5l72.3,72.3a51.2,51.2,0,0,0,0,72.41l-72.3,72.3A153,153,0,0,1,102.4,256Zm128,0A25.6,25.6,0,1,1,256,281.6,25.63,25.63,0,0,1,230.4,256ZM139.53,408.68,242.79,305.42a51.2,51.2,0,1,0,0-98.83l-98-98a6.58,6.58,0,0,1-1.92-5.27,5.59,5.59,0,0,1,2.33-4.21A190.71,190.71,0,0,1,256,64c4.18,0,8.42.13,12.61.4C364,70.47,441,147,447.53,242.33c3.72,54-14.44,105.33-51.14,144.65a194.22,194.22,0,0,1-25.32,22.62H140.83C140.41,409.28,140,409,139.53,408.68ZM409.6,486.4H89.6a25.6,25.6,0,0,1,0-51.2h320a25.6,25.6,0,0,1,0,51.2Z"/></svg>