<svg id="Layer_1" data-name="Layer 1" xmlns="http://www.w3.org/2000/svg" xmlns:xlink="http://www.w3.org/1999/xlink" viewBox="0 0 512 512"><defs><linearGradient id="New_Gradient_Swatch_1" x1="256" y1="512" x2="256" gradientUnits="userSpaceOnUse"><stop offset="0" stop-color="#626366"/><stop offset="1" stop-color="#bbbdbf"/></linearGradient></defs><title>chart</title><path d="M512,412.3A99.71,99.71,0,0,1,412.3,512H99.69A99.69,99.69,0,0,1,0,412.3V99.7A99.69,99.69,0,0,1,99.69,0H412.3A99.71,99.71,0,0,1,512,99.7Z" fill="url(#New_Gradient_Swatch_1)"/><path d="M237.45,512H412.3a99.75,99.75,0,0,0,93.79-66.22L451.88,166.52c-4.17-21.5-25.44-35.52-47.4-31.27l-55,10.66a40.87,40.87,0,0,0-26.21,17.25,39.23,39.23,0,0,0-6.07,29.48l11.86,61.1-.11-.08a40.63,40.63,0,0,0-30.75-6.2l-54.95,10.66a40.71,40.71,0,0,0-26.21,17.27,39.26,39.26,0,0,0-6.75,24.21,41.74,41.74,0,0,0,.67,5.27l15.51,80a.59.59,0,0,0-.1-.11,40.7,40.7,0,0,0-30.75-6.18h0l-54.95,10.66c-22,4.27-36.47,25.23-32.3,46.74l14.77,76H237.45Z" fill="#262626"/><path d="M310.81,277.65,256.74,285c-9.93,1.35-17,10.17-15.71,19.67L269.25,512h91.8L331.18,292.4C329.9,282.92,320.74,276.3,310.81,277.65Zm129.92-88.58c-1.3-9.48-10.43-16.1-20.36-14.75l-54.07,7.35c-9.93,1.35-17,10.18-15.71,19.65l42.09,309.44c.06.44.2.84.29,1.25H412.3a99.28,99.28,0,0,0,68.61-27.49ZM203.79,399.58l-54.07,7.35c-9.93,1.35-17,10.17-15.69,19.65L145.65,512h91.8l-13.29-97.67C222.86,404.85,213.71,398.22,203.79,399.58Z" fill="#fff"/></svg>