<svg xmlns="http://www.w3.org/2000/svg" xmlns:xlink="http://www.w3.org/1999/xlink" version="1.1" width="256" height="256" viewBox="0 0 256 256" xml:space="preserve">
<desc>Created with Fabric.js 1.7.22</desc>
<defs>
</defs>
<g transform="translate(128 128) scale(0.72 0.72)" style="">
	<g style="stroke: none; stroke-width: 0; stroke-dasharray: none; stroke-linecap: butt; stroke-linejoin: miter; stroke-miterlimit: 10; fill: none; fill-rule: nonzero; opacity: 1;" transform="translate(-175.05 -175.05000000000004) scale(3.89 3.89)" >
	<ellipse cx="52.244" cy="17.936" rx="10.284" ry="4.606" style="stroke: none; stroke-width: 1; stroke-dasharray: none; stroke-linecap: butt; stroke-linejoin: miter; stroke-miterlimit: 10; fill: rgb(240,188,94); fill-rule: nonzero; opacity: 1;" transform=" matrix(0.6739 -0.7388 0.7388 0.6739 3.7846 44.4466) "/>
	<ellipse cx="37.756" cy="8.754000000000001" rx="4.606" ry="10.284" style="stroke: none; stroke-width: 1; stroke-dasharray: none; stroke-linecap: butt; stroke-linejoin: miter; stroke-miterlimit: 10; fill: rgb(240,188,94); fill-rule: nonzero; opacity: 1;" transform=" matrix(0.7388 -0.6739 0.6739 0.7388 3.9625 27.7311) "/>
	<path d="M 45 48.104 c -8.909 0 -16.131 7.222 -16.131 16.131 c 0 6.282 3.591 11.725 8.832 14.389 c 4.761 -0.506 9.678 -0.5 14.725 -0.064 c 5.173 -2.687 8.707 -8.093 8.707 -14.325 C 61.131 55.327 53.909 48.104 45 48.104 z M 45 75.423 c -6.178 0 -11.187 -5.009 -11.187 -11.187 c 0 -6.178 5.009 -11.187 11.187 -11.187 s 11.187 5.009 11.187 11.187 C 56.187 70.414 51.178 75.423 45 75.423 z" style="stroke: none; stroke-width: 1; stroke-dasharray: none; stroke-linecap: butt; stroke-linejoin: miter; stroke-miterlimit: 10; fill: rgb(240,188,94); fill-rule: nonzero; opacity: 1;" transform=" matrix(1 0 0 1 0 0) " stroke-linecap="round" />
	<path d="M 45 49.104 c -0.552 0 -1 -0.447 -1 -1 V 15.495 c 0 -0.552 0.448 -1 1 -1 s 1 0.448 1 1 v 32.609 C 46 48.657 45.552 49.104 45 49.104 z" style="stroke: none; stroke-width: 1; stroke-dasharray: none; stroke-linecap: butt; stroke-linejoin: miter; stroke-miterlimit: 10; fill: rgb(0,0,0); fill-rule: nonzero; opacity: 1;" transform=" matrix(1 0 0 1 0 0) " stroke-linecap="round" />
	<path d="M 46.745 26.691 c -0.57 0 -1.125 -0.06 -1.658 -0.183 c -0.34 -0.079 -0.615 -0.329 -0.725 -0.661 c -1.118 -3.386 0.35 -7.975 3.74 -11.69 c 3.387 -3.715 7.823 -5.596 11.296 -4.794 c 0.341 0.079 0.615 0.329 0.725 0.661 c 1.118 3.386 -0.349 7.975 -3.737 11.69 C 53.516 24.86 49.896 26.691 46.745 26.691 z M 46.112 24.657 c 2.672 0.296 6.126 -1.364 8.796 -4.291 c 2.669 -2.927 4.008 -6.516 3.466 -9.152 c -2.671 -0.296 -6.126 1.365 -8.795 4.291 C 46.909 18.432 45.57 22.021 46.112 24.657 z" style="stroke: none; stroke-width: 1; stroke-dasharray: none; stroke-linecap: butt; stroke-linejoin: miter; stroke-miterlimit: 10; fill: rgb(0,0,0); fill-rule: nonzero; opacity: 1;" transform=" matrix(1 0 0 1 0 0) " stroke-linecap="round" />
	<path d="M 43.255 17.509 c -3.152 0 -6.771 -1.831 -9.641 -4.977 c -3.389 -3.715 -4.856 -8.304 -3.739 -11.69 c 0.109 -0.332 0.384 -0.582 0.725 -0.661 c 3.476 -0.803 7.909 1.08 11.298 4.794 c 3.389 3.715 4.856 8.304 3.739 11.69 c -0.11 0.332 -0.384 0.582 -0.725 0.661 C 44.38 17.449 43.825 17.509 43.255 17.509 z M 31.626 2.032 c -0.542 2.636 0.797 6.225 3.467 9.152 c 2.67 2.927 6.129 4.588 8.796 4.291 c 0.542 -2.636 -0.797 -6.225 -3.467 -9.152 C 37.751 3.396 34.302 1.736 31.626 2.032 z" style="stroke: none; stroke-width: 1; stroke-dasharray: none; stroke-linecap: butt; stroke-linejoin: miter; stroke-miterlimit: 10; fill: rgb(0,0,0); fill-rule: nonzero; opacity: 1;" transform=" matrix(1 0 0 1 0 0) " stroke-linecap="round" />
	<path d="M 61.395 89.998 h -32.79 c -3.436 0 -6.232 -2.796 -6.232 -6.231 V 43.17 c 0 -2.674 2.176 -4.849 4.85 -4.849 h 35.555 c 2.674 0 4.849 2.175 4.849 4.849 v 40.596 C 67.627 87.202 64.831 89.998 61.395 89.998 z M 27.223 40.321 c -1.572 0 -2.85 1.278 -2.85 2.849 v 40.596 c 0 2.333 1.898 4.231 4.232 4.231 h 32.79 c 2.334 0 4.232 -1.898 4.232 -4.231 V 43.17 c 0 -1.571 -1.278 -2.849 -2.849 -2.849 H 27.223 z" style="stroke: none; stroke-width: 1; stroke-dasharray: none; stroke-linecap: butt; stroke-linejoin: miter; stroke-miterlimit: 10; fill: rgb(0,0,0); fill-rule: nonzero; opacity: 1;" transform=" matrix(1 0 0 1 0 0) " stroke-linecap="round" />
	<path d="M 62.778 40.321 H 27.223 c -2.674 0 -4.85 -2.176 -4.85 -4.85 c 0 -2.674 2.176 -4.849 4.85 -4.849 h 35.555 c 2.674 0 4.849 2.175 4.849 4.849 C 67.627 38.145 65.451 40.321 62.778 40.321 z M 27.223 32.622 c -1.572 0 -2.85 1.278 -2.85 2.849 c 0 1.572 1.278 2.85 2.85 2.85 h 35.555 c 1.571 0 2.849 -1.278 2.849 -2.85 c 0 -1.571 -1.278 -2.849 -2.849 -2.849 H 27.223 z" style="stroke: none; stroke-width: 1; stroke-dasharray: none; stroke-linecap: butt; stroke-linejoin: miter; stroke-miterlimit: 10; fill: rgb(0,0,0); fill-rule: nonzero; opacity: 1;" transform=" matrix(1 0 0 1 0 0) " stroke-linecap="round" />
	<path d="M 66.627 82.389 c -0.096 0 -0.192 -0.014 -0.289 -0.043 c -13.677 -4.125 -28.042 -4.123 -42.694 0.006 c -0.527 0.15 -1.083 -0.16 -1.233 -0.691 c -0.15 -0.532 0.16 -1.084 0.691 -1.234 c 15.023 -4.233 29.765 -4.231 43.814 0.006 c 0.528 0.159 0.828 0.717 0.668 1.246 C 67.454 82.111 67.057 82.389 66.627 82.389 z" style="stroke: none; stroke-width: 1; stroke-dasharray: none; stroke-linecap: butt; stroke-linejoin: miter; stroke-miterlimit: 10; fill: rgb(0,0,0); fill-rule: nonzero; opacity: 1;" transform=" matrix(1 0 0 1 0 0) " stroke-linecap="round" />
	<path d="M 45 76.422 c -6.72 0 -12.187 -5.468 -12.187 -12.187 S 38.28 52.049 45 52.049 c 2.327 0 4.59 0.658 6.544 1.904 c 0.465 0.297 0.602 0.915 0.305 1.381 c -0.296 0.465 -0.913 0.603 -1.381 0.305 c -1.631 -1.04 -3.522 -1.59 -5.468 -1.59 c -5.617 0 -10.187 4.57 -10.187 10.187 c 0 5.617 4.57 10.187 10.187 10.187 s 10.187 -4.57 10.187 -10.187 c 0 -2.374 -0.834 -4.684 -2.349 -6.507 c -0.354 -0.425 -0.295 -1.056 0.129 -1.408 c 0.427 -0.354 1.056 -0.295 1.408 0.129 c 1.813 2.182 2.811 4.946 2.811 7.786 C 57.187 70.955 51.719 76.422 45 76.422 z" style="stroke: none; stroke-width: 1; stroke-dasharray: none; stroke-linecap: butt; stroke-linejoin: miter; stroke-miterlimit: 10; fill: rgb(0,0,0); fill-rule: nonzero; opacity: 1;" transform=" matrix(1 0 0 1 0 0) " stroke-linecap="round" />
	<path d="M 37.699 79.624 c -0.152 0 -0.307 -0.035 -0.452 -0.108 c -5.785 -2.94 -9.379 -8.796 -9.379 -15.281 c 0 -9.446 7.685 -17.131 17.132 -17.131 c 9.446 0 17.131 7.685 17.131 17.131 c 0 6.422 -3.543 12.25 -9.246 15.213 c -0.49 0.254 -1.094 0.063 -1.349 -0.427 c -0.254 -0.49 -0.063 -1.094 0.427 -1.349 c 5.038 -2.617 8.168 -7.766 8.168 -13.438 c 0 -8.343 -6.788 -15.131 -15.131 -15.131 s -15.132 6.788 -15.132 15.131 c 0 5.728 3.175 10.9 8.285 13.497 c 0.492 0.25 0.688 0.853 0.438 1.345 C 38.415 79.424 38.064 79.624 37.699 79.624 z" style="stroke: none; stroke-width: 1; stroke-dasharray: none; stroke-linecap: butt; stroke-linejoin: miter; stroke-miterlimit: 10; fill: rgb(0,0,0); fill-rule: nonzero; opacity: 1;" transform=" matrix(1 0 0 1 0 0) " stroke-linecap="round" />
	<path d="M 45.552 70.178 c -3.276 0 -5.942 -2.666 -5.942 -5.942 c 0 -3.276 2.665 -5.941 5.942 -5.941 c 1.477 0 2.893 0.546 3.988 1.537 c 0.41 0.37 0.441 1.003 0.07 1.412 c -0.37 0.409 -1.003 0.441 -1.412 0.07 c -0.727 -0.657 -1.666 -1.019 -2.646 -1.019 c -2.173 0 -3.942 1.768 -3.942 3.941 c 0 2.174 1.768 3.942 3.942 3.942 c 0.98 0 1.919 -0.362 2.645 -1.02 c 0.409 -0.369 1.042 -0.34 1.413 0.069 c 0.371 0.409 0.34 1.042 -0.069 1.413 C 48.446 69.632 47.03 70.178 45.552 70.178 z" style="stroke: none; stroke-width: 1; stroke-dasharray: none; stroke-linecap: butt; stroke-linejoin: miter; stroke-miterlimit: 10; fill: rgb(0,0,0); fill-rule: nonzero; opacity: 1;" transform=" matrix(1 0 0 1 0 0) " stroke-linecap="round" />
	<path d="M 45.552 60.294 c -0.552 0 -1 -0.447 -1 -1 v -1.895 c 0 -0.553 0.448 -1 1 -1 s 1 0.447 1 1 v 1.895 C 46.553 59.847 46.104 60.294 45.552 60.294 z" style="stroke: none; stroke-width: 1; stroke-dasharray: none; stroke-linecap: butt; stroke-linejoin: miter; stroke-miterlimit: 10; fill: rgb(0,0,0); fill-rule: nonzero; opacity: 1;" transform=" matrix(1 0 0 1 0 0) " stroke-linecap="round" />
	<path d="M 45.552 72.072 c -0.552 0 -1 -0.447 -1 -1 v -1.894 c 0 -0.553 0.448 -1 1 -1 s 1 0.447 1 1 v 1.894 C 46.553 71.625 46.104 72.072 45.552 72.072 z" style="stroke: none; stroke-width: 1; stroke-dasharray: none; stroke-linecap: butt; stroke-linejoin: miter; stroke-miterlimit: 10; fill: rgb(0,0,0); fill-rule: nonzero; opacity: 1;" transform=" matrix(1 0 0 1 0 0) " stroke-linecap="round" />
</g>
</g>
</svg>