<svg id="Layer_1" data-name="Layer 1" xmlns="http://www.w3.org/2000/svg" viewBox="0 0 512 512"><defs><style>.cls-1{fill:#141f38;}</style></defs><title>chart-outline</title><path class="cls-1" d="M512,460.77A12.81,12.81,0,0,1,506.88,471l-51.2,38.42a12.8,12.8,0,0,1-15.36-20.49l20.48-15.37H51.2a12.8,12.8,0,0,1-12.8-12.81V50.94L23,71.43A12.8,12.8,0,1,1,2.56,56.06L41,4.83c4.82-6.44,15.65-6.44,20.47,0l38.4,51.23A12.8,12.8,0,1,1,79.36,71.43L64,50.94V448H460.8l-20.48-15.37a12.8,12.8,0,0,1,15.36-20.49l51.2,38.42A12.81,12.81,0,0,1,512,460.77ZM102.4,319.89a38.39,38.39,0,0,1,57.22-33.49l47.91-41.94a38.39,38.39,0,1,1,72.32-2.72l44.47,33.37a38.39,38.39,0,0,1,32.23-4.85L416.36,188A38.37,38.37,0,1,1,437.06,203l-59.81,82.29A38.39,38.39,0,1,1,309,295.59l-44.47-33.37a38.37,38.37,0,0,1-40.1,1.51l-47.91,41.95a38.4,38.4,0,1,1-74.07,14.22ZM435.2,166.2A12.8,12.8,0,1,0,448,153.4,12.82,12.82,0,0,0,435.2,166.2ZM332.8,307.08a12.8,12.8,0,1,0,12.8-12.81A12.82,12.82,0,0,0,332.8,307.08ZM230.4,230.24a12.8,12.8,0,1,0,12.8-12.81A12.82,12.82,0,0,0,230.4,230.24ZM128,319.89a12.8,12.8,0,1,0,12.8-12.81A12.82,12.82,0,0,0,128,319.89Z"/></svg>