<svg id="Layer_1" data-name="Layer 1" xmlns="http://www.w3.org/2000/svg" viewBox="0 0 512 512"><title>target-flat</title><path d="M256,510.4C116.1,510.4,2.28,396.28,2.28,256S116.1,1.6,256,1.6,509.72,115.73,509.72,256,395.9,510.4,256,510.4Z" fill="none" stroke="#131313" stroke-miterlimit="10" stroke-width="4.56"/><ellipse cx="256" cy="256" rx="217.71" ry="218.3" fill="#131313"/><path d="M242.07,235.64a23.58,23.58,0,1,0,8.4,32.28A23.5,23.5,0,0,0,242.07,235.64Zm-3,5.17a17.59,17.59,0,1,1-24,6.28A17.61,17.61,0,0,1,239,240.81Z" fill="#ede9e2"/><path d="M256.86,210.31a52.91,52.91,0,1,0,18.88,72.45A52.73,52.73,0,0,0,256.86,210.31Zm-6.76,11.59A39.5,39.5,0,1,1,196.16,236,39.58,39.58,0,0,1,250.11,221.9Z" fill="#ede9e2"/><path d="M282.24,166.9A103.2,103.2,0,1,0,319,308.21,102.86,102.86,0,0,0,282.24,166.9Zm-13.19,22.59A77,77,0,1,1,163.84,217,77.2,77.2,0,0,1,269.06,189.49Z" fill="#ede9e2"/><path d="M234.21,250a7.24,7.24,0,1,0,2.56,9.9A7.22,7.22,0,0,0,234.21,250Z" fill="#ede9e2"/><path d="M384.85,190s-1.69-5.72-6.64-7.06a1.85,1.85,0,0,0-.15-.47l-1.13-2.22a1.48,1.48,0,0,0-.57-.65c2.37-5-1.41-10.12-1.41-10.12A37.18,37.18,0,0,0,354.17,190L231.11,253.63a1.84,1.84,0,0,0-.78,2.43l1.13,2.23a1.76,1.76,0,0,0,2.39.79l123.87-64A36.56,36.56,0,0,0,384.85,190Z" fill="#ede9e2"/></svg>