<svg xmlns="http://www.w3.org/2000/svg" xmlns:xlink="http://www.w3.org/1999/xlink" version="1.1" width="256" height="256" viewBox="0 0 256 256" xml:space="preserve">
<desc>Created with Fabric.js 1.7.22</desc>
<defs>
</defs>
<g transform="translate(128 128) scale(0.72 0.72)" style="">
	<g style="stroke: none; stroke-width: 0; stroke-dasharray: none; stroke-linecap: butt; stroke-linejoin: miter; stroke-miterlimit: 10; fill: none; fill-rule: nonzero; opacity: 1;" transform="translate(-175.05 -175.05000000000004) scale(3.89 3.89)" >
	<path d="M 74.921 12.705 C 64.588 10.826 55.58 6.945 48.145 1.171 c -1.008 -0.782 -2.215 -1.173 -3.422 -1.173 c -9.265 30.337 -9.479 60.344 0 90 c 0.867 0 1.734 -0.137 2.561 -0.41 c 19.584 -6.506 32.238 -22.036 32.238 -39.566 V 18.234 C 79.522 15.516 77.587 13.19 74.921 12.705 z" style="stroke: none; stroke-width: 1; stroke-dasharray: none; stroke-linecap: butt; stroke-linejoin: miter; stroke-miterlimit: 10; fill: rgb(236,71,71); fill-rule: nonzero; opacity: 1;" transform=" matrix(1 0 0 1 0 0) " stroke-linecap="round" />
	<path d="M 15.079 12.705 c 10.333 -1.879 19.341 -5.76 26.775 -11.534 c 1.008 -0.782 2.215 -1.173 3.422 -1.173 v 90 c -0.867 0 -1.734 -0.137 -2.561 -0.41 c -19.584 -6.506 -32.238 -22.036 -32.238 -39.566 V 18.234 C 10.478 15.516 12.413 13.19 15.079 12.705 z" style="stroke: none; stroke-width: 1; stroke-dasharray: none; stroke-linecap: butt; stroke-linejoin: miter; stroke-miterlimit: 10; fill: rgb(212,47,47); fill-rule: nonzero; opacity: 1;" transform=" matrix(1 0 0 1 0 0) " stroke-linecap="round" />
	<path d="M 45.277 22.528 c -0.186 -0.005 -0.367 -0.028 -0.553 -0.028 c -11.855 0 -21.5 9.645 -21.5 21.5 c 0 11.855 9.645 21.5 21.5 21.5 c 0.187 0 0.368 -0.023 0.553 -0.028 C 47.16 51.086 47.193 36.77 45.277 22.528 z" style="stroke: none; stroke-width: 1; stroke-dasharray: none; stroke-linecap: butt; stroke-linejoin: miter; stroke-miterlimit: 10; fill: rgb(245,229,229); fill-rule: nonzero; opacity: 1;" transform=" matrix(1 0 0 1 0 0) " stroke-linecap="round" />
	<path d="M 45.277 22.528 c 0.186 -0.005 0.367 -0.028 0.553 -0.028 c 11.855 0 21.5 9.645 21.5 21.5 c 0 11.855 -9.645 21.5 -21.5 21.5 c -0.187 0 -0.368 -0.023 -0.553 -0.028 V 22.528 z" style="stroke: none; stroke-width: 1; stroke-dasharray: none; stroke-linecap: butt; stroke-linejoin: miter; stroke-miterlimit: 10; fill: rgb(247,239,239); fill-rule: nonzero; opacity: 1;" transform=" matrix(1 0 0 1 0 0) " stroke-linecap="round" />
	<path d="M 55.468 39.434 h -5.901 v -5.901 c 0 -1.641 -1.335 -2.976 -2.976 -2.976 h -1.314 c -1.961 8.963 -1.961 17.925 0 26.888 h 1.314 c 1.641 0 2.976 -1.335 2.976 -2.977 v -5.901 h 5.901 c 1.642 0 2.977 -1.335 2.977 -2.976 v -3.182 C 58.444 40.769 57.109 39.434 55.468 39.434 z" style="stroke: none; stroke-width: 1; stroke-dasharray: none; stroke-linecap: butt; stroke-linejoin: miter; stroke-miterlimit: 10; fill: rgb(236,71,71); fill-rule: nonzero; opacity: 1;" transform=" matrix(1 0 0 1 0 0) " stroke-linecap="round" />
	<path d="M 45.277 30.556 h -1.868 c -1.641 0 -2.976 1.335 -2.976 2.976 v 5.901 h -5.901 c -1.641 0 -2.976 1.335 -2.976 2.976 v 3.182 c 0 1.641 1.335 2.976 2.976 2.976 h 5.901 v 5.901 c 0 1.642 1.335 2.977 2.976 2.977 h 1.868 V 30.556 z" style="stroke: none; stroke-width: 1; stroke-dasharray: none; stroke-linecap: butt; stroke-linejoin: miter; stroke-miterlimit: 10; fill: rgb(212,47,47); fill-rule: nonzero; opacity: 1;" transform=" matrix(1 0 0 1 0 0) " stroke-linecap="round" />
</g>
</g>
</svg>