<svg id="Layer_1" data-name="Layer 1" xmlns="http://www.w3.org/2000/svg" viewBox="0 0 512 512"><defs><style>.cls-1{fill:#eff2f4;}.cls-2{fill:#40c168;}.cls-3{fill:#141f38;}</style></defs><title>network-filled</title><path class="cls-1" d="M192,140.8a64,64,0,0,1,128,0Z"/><path class="cls-2" d="M256,89.6a38.4,38.4,0,1,1,38.4-38.4A38.44,38.44,0,0,1,256,89.6Z"/><path class="cls-1" d="M12.8,499.2a64,64,0,0,1,128,0Z"/><path class="cls-2" d="M76.8,448a38.4,38.4,0,1,1,38.4-38.4A38.44,38.44,0,0,1,76.8,448Z"/><path class="cls-1" d="M371.2,499.2a64,64,0,0,1,128,0Z"/><path class="cls-2" d="M435.2,448a38.4,38.4,0,1,1,38.4-38.4A38.44,38.44,0,0,1,435.2,448Z"/><path class="cls-3" d="M356,353a12.8,12.8,0,0,1-17.86,3L256,297.33,173.84,356A12.8,12.8,0,1,1,159,335.18L243.2,275V204.8a12.8,12.8,0,0,1,25.6,0V275L353,335.18A12.8,12.8,0,0,1,356,353ZM179.2,140.8a76.68,76.68,0,0,1,33-63.07,51.2,51.2,0,1,1,87.6,0,76.68,76.68,0,0,1,33,63.07A12.8,12.8,0,0,1,320,153.6H192A12.8,12.8,0,0,1,179.2,140.8Zm51.2-89.6A25.6,25.6,0,1,0,256,25.6,25.63,25.63,0,0,0,230.4,51.2Zm-24,76.8h99.16a51.41,51.41,0,0,0-24.8-32,51.21,51.21,0,0,1-49.55,0A51.41,51.41,0,0,0,206.42,128ZM153.6,499.2A12.8,12.8,0,0,1,140.8,512H12.8A12.8,12.8,0,0,1,0,499.2a76.68,76.68,0,0,1,33-63.07,51.2,51.2,0,1,1,87.6,0A76.68,76.68,0,0,1,153.6,499.2ZM51.2,409.6A25.6,25.6,0,1,0,76.8,384,25.63,25.63,0,0,0,51.2,409.6Zm75.18,76.8a51.41,51.41,0,0,0-24.8-32,51.21,51.21,0,0,1-49.55,0,51.41,51.41,0,0,0-24.8,32ZM512,499.2A12.8,12.8,0,0,1,499.2,512h-128a12.8,12.8,0,0,1-12.8-12.8,76.68,76.68,0,0,1,33-63.07,51.2,51.2,0,1,1,87.6,0A76.68,76.68,0,0,1,512,499.2ZM409.6,409.6A25.6,25.6,0,1,0,435.2,384,25.63,25.63,0,0,0,409.6,409.6Zm75.18,76.8a51.41,51.41,0,0,0-24.8-32,51.21,51.21,0,0,1-49.55,0,51.41,51.41,0,0,0-24.8,32Z"/></svg>