<svg xmlns="http://www.w3.org/2000/svg" xmlns:xlink="http://www.w3.org/1999/xlink" version="1.1" width="256" height="256" viewBox="0 0 256 256" xml:space="preserve">
<desc>Created with Fabric.js 1.7.22</desc>
<defs>
</defs>
<g transform="translate(128 128) scale(0.72 0.72)" style="">
	<g style="stroke: none; stroke-width: 0; stroke-dasharray: none; stroke-linecap: butt; stroke-linejoin: miter; stroke-miterlimit: 10; fill: none; fill-rule: nonzero; opacity: 1;" transform="translate(-175.05 -175.05000000000004) scale(3.89 3.89)" >
	<path d="M 51.959 13.205 C 55.751 10.22 57.016 5.819 55.751 0 H 34.249 c -2.789 5.694 -2.074 10.264 3.792 13.205 H 51.959 z" style="stroke: none; stroke-width: 1; stroke-dasharray: none; stroke-linecap: butt; stroke-linejoin: miter; stroke-miterlimit: 10; fill: rgb(233,84,84); fill-rule: nonzero; opacity: 1;" transform=" matrix(1 0 0 1 0 0) " stroke-linecap="round" />
	<polygon points="42.95,30.28 34.25,0 17.75,10.71 25.63,37.49 " style="stroke: none; stroke-width: 1; stroke-dasharray: none; stroke-linecap: butt; stroke-linejoin: miter; stroke-miterlimit: 10; fill: rgb(237,99,98); fill-rule: nonzero; opacity: 1;" transform="  matrix(1 0 0 1 0 0) "/>
	<polygon points="64.37,37.49 72.25,10.71 55.75,0 47.06,30.28 " style="stroke: none; stroke-width: 1; stroke-dasharray: none; stroke-linecap: butt; stroke-linejoin: miter; stroke-miterlimit: 10; fill: rgb(237,99,98); fill-rule: nonzero; opacity: 1;" transform="  matrix(1 0 0 1 0 0) "/>
	<path d="M 45 90 c 16.769 0 30.363 -13.594 30.363 -30.363 S 61.769 29.273 45 29.273 C 34.997 49.991 34.2 70.271 45 90 z" style="stroke: none; stroke-width: 1; stroke-dasharray: none; stroke-linecap: butt; stroke-linejoin: miter; stroke-miterlimit: 10; fill: rgb(255,204,91); fill-rule: nonzero; opacity: 1;" transform=" matrix(1 0 0 1 0 0) " stroke-linecap="round" />
	<path d="M 45 90 c -16.769 0 -30.363 -13.594 -30.363 -30.363 S 28.231 29.273 45 29.273 v 60.696" style="stroke: none; stroke-width: 1; stroke-dasharray: none; stroke-linecap: butt; stroke-linejoin: miter; stroke-miterlimit: 10; fill: rgb(253,188,75); fill-rule: nonzero; opacity: 1;" transform=" matrix(1 0 0 1 0 0) " stroke-linecap="round" />
	<path d="M 37.402 79.821 c -0.124 0 -0.25 -0.023 -0.372 -0.071 c -5.372 -2.129 -9.594 -6.223 -11.887 -11.527 c -2.293 -5.305 -2.384 -11.185 -0.255 -16.557 c 0.206 -0.52 0.793 -0.773 1.314 -0.568 c 0.519 0.206 0.774 0.794 0.568 1.314 c -1.93 4.87 -1.848 10.2 0.231 15.008 c 2.079 4.809 5.905 8.519 10.774 10.448 c 0.52 0.206 0.774 0.794 0.568 1.314 C 38.186 79.579 37.805 79.821 37.402 79.821 z" style="stroke: none; stroke-width: 1; stroke-dasharray: none; stroke-linecap: butt; stroke-linejoin: miter; stroke-miterlimit: 10; fill: rgb(236,153,34); fill-rule: nonzero; opacity: 1;" transform=" matrix(1 0 0 1 0 0) " stroke-linecap="round" />
	<path d="M 64.172 68.247 c -0.125 0 -0.25 -0.023 -0.373 -0.071 c -0.52 -0.206 -0.774 -0.794 -0.568 -1.314 c 3.983 -10.052 -0.954 -21.471 -11.006 -25.455 c -0.52 -0.206 -0.774 -0.794 -0.568 -1.314 c 0.206 -0.52 0.794 -0.773 1.314 -0.568 c 11.09 4.395 16.537 16.993 12.142 28.083 C 64.956 68.005 64.574 68.247 64.172 68.247 z" style="stroke: none; stroke-width: 1; stroke-dasharray: none; stroke-linecap: butt; stroke-linejoin: miter; stroke-miterlimit: 10; fill: rgb(236,153,34); fill-rule: nonzero; opacity: 1;" transform=" matrix(1 0 0 1 0 0) " stroke-linecap="round" />
	<path d="M 36.908 72.68 c -0.207 0 -0.414 -0.064 -0.588 -0.191 c -0.308 -0.224 -0.462 -0.603 -0.398 -0.978 l 1.457 -8.493 l -6.17 -6.015 c -0.272 -0.266 -0.371 -0.663 -0.253 -1.024 c 0.118 -0.362 0.431 -0.626 0.808 -0.681 l 8.527 -1.239 l 3.814 -7.727 c 0.168 -0.341 0.516 -0.558 0.896 -0.558 l 0 0 c 0.381 0 0.729 0.216 0.897 0.558 l 3.813 7.727 l 8.527 1.239 c 0.377 0.055 0.689 0.318 0.808 0.681 c 0.117 0.361 0.02 0.759 -0.253 1.024 l -6.171 6.015 l 1.457 8.493 c 0.064 0.375 -0.09 0.754 -0.397 0.978 c -0.308 0.226 -0.718 0.255 -1.053 0.076 L 45 68.556 l -7.627 4.009 C 37.227 72.642 37.067 72.68 36.908 72.68 z" style="stroke: none; stroke-width: 1; stroke-dasharray: none; stroke-linecap: butt; stroke-linejoin: miter; stroke-miterlimit: 10; fill: rgb(236,153,34); fill-rule: nonzero; opacity: 1;" transform=" matrix(1 0 0 1 0 0) " stroke-linecap="round" />
</g>
</g>
</svg>