<svg xmlns="http://www.w3.org/2000/svg" xmlns:xlink="http://www.w3.org/1999/xlink" version="1.1" width="256" height="256" viewBox="0 0 256 256" xml:space="preserve">
<desc>Created with Fabric.js 1.7.22</desc>
<defs>
</defs>
<g transform="translate(128 128) scale(0.72 0.72)" style="">
	<g style="stroke: none; stroke-width: 0; stroke-dasharray: none; stroke-linecap: butt; stroke-linejoin: miter; stroke-miterlimit: 10; fill: none; fill-rule: nonzero; opacity: 1;" transform="translate(-175.05 -175.05000000000004) scale(3.89 3.89)" >
	<polyline points="51.08,58.19 51.08,72.45 38.92,72.45 38.92,58.19 " style="stroke: none; stroke-width: 1; stroke-dasharray: none; stroke-linecap: butt; stroke-linejoin: miter; stroke-miterlimit: 10; fill: rgb(163,163,163); fill-rule: nonzero; opacity: 1;" transform="  matrix(1 0 0 1 0 0) "/>
	<path d="M 72.615 4.465 h 15.411 v 3.427 c 0 19.07 -12.559 42.049 -28.284 42.668 l 4.903 -8.455 c 7.963 -4.503 15.252 -17.734 16.377 -30.785 h -8.407 V 4.465 z" style="stroke: none; stroke-width: 1; stroke-dasharray: none; stroke-linecap: butt; stroke-linejoin: miter; stroke-miterlimit: 10; fill: rgb(163,163,163); fill-rule: nonzero; opacity: 1;" transform=" matrix(1 0 0 1 0 0) " stroke-linecap="round" />
	<path d="M 30.259 50.561 C 14.533 49.941 1.974 26.962 1.974 7.892 V 4.465 h 15.412 v 6.855 H 8.979 c 1.122 13.019 8.379 26.218 16.319 30.753 L 30.259 50.561 z" style="stroke: none; stroke-width: 1; stroke-dasharray: none; stroke-linecap: butt; stroke-linejoin: miter; stroke-miterlimit: 10; fill: rgb(163,163,163); fill-rule: nonzero; opacity: 1;" transform=" matrix(1 0 0 1 0 0) " stroke-linecap="round" />
	<path d="M 61.215 82.276 h -32.43 v -3.6 c 0 -3.438 2.787 -6.224 6.224 -6.224 h 19.982 c 3.438 0 6.224 2.787 6.224 6.224 V 82.276 z" style="stroke: none; stroke-width: 1; stroke-dasharray: none; stroke-linecap: butt; stroke-linejoin: miter; stroke-miterlimit: 10; fill: rgb(114,114,114); fill-rule: nonzero; opacity: 1;" transform=" matrix(1 0 0 1 0 0) " stroke-linecap="round" />
	<rect x="23.67" y="82.28" rx="0" ry="0" width="42.67" height="6.72" style="stroke: none; stroke-width: 1; stroke-dasharray: none; stroke-linecap: butt; stroke-linejoin: miter; stroke-miterlimit: 10; fill: rgb(86,86,86); fill-rule: nonzero; opacity: 1;" transform=" matrix(1 0 0 1 0 0) "/>
	<path d="M 72.614 1 c 0 32.373 -12.363 58.616 -27.614 58.616 S 17.386 33.373 17.386 1 H 72.614 z" style="stroke: none; stroke-width: 1; stroke-dasharray: none; stroke-linecap: butt; stroke-linejoin: miter; stroke-miterlimit: 10; fill: rgb(255,213,34); fill-rule: nonzero; opacity: 1;" transform=" matrix(1 0 0 1 0 0) " stroke-linecap="round" />
	<polygon points="45,12.92 48.69,20.39 56.93,21.59 50.97,27.4 52.37,35.61 45,31.73 37.63,35.61 39.04,27.4 33.07,21.59 41.31,20.39 " style="stroke: none; stroke-width: 1; stroke-dasharray: none; stroke-linecap: butt; stroke-linejoin: miter; stroke-miterlimit: 10; fill: rgb(255,255,34); fill-rule: nonzero; opacity: 1;" transform="  matrix(1 0 0 1 0 0) "/>
	<path d="M 45 60.616 C 29.222 60.616 16.386 33.873 16.386 1 c 0 -0.552 0.448 -1 1 -1 h 55.228 c 0.553 0 1 0.448 1 1 C 73.614 33.873 60.778 60.616 45 60.616 z M 18.39 2 C 18.637 33.311 30.479 58.616 45 58.616 c 14.521 0 26.363 -25.305 26.61 -56.616 H 18.39 z" style="stroke: none; stroke-width: 1; stroke-dasharray: none; stroke-linecap: butt; stroke-linejoin: miter; stroke-miterlimit: 10; fill: rgb(0,0,0); fill-rule: nonzero; opacity: 1;" transform=" matrix(1 0 0 1 0 0) " stroke-linecap="round" />
	<path d="M 51.075 73.452 h -12.15 c -0.552 0 -1 -0.447 -1 -1 V 58.188 c 0 -0.553 0.448 -1 1 -1 s 1 0.447 1 1 v 13.265 h 10.15 V 58.186 c 0 -0.553 0.447 -1 1 -1 s 1 0.447 1 1 v 14.267 C 52.075 73.005 51.628 73.452 51.075 73.452 z" style="stroke: none; stroke-width: 1; stroke-dasharray: none; stroke-linecap: butt; stroke-linejoin: miter; stroke-miterlimit: 10; fill: rgb(0,0,0); fill-rule: nonzero; opacity: 1;" transform=" matrix(1 0 0 1 0 0) " stroke-linecap="round" />
	<path d="M 61.216 83.276 H 28.785 c -0.552 0 -1 -0.447 -1 -1 v -3.601 c 0 -3.983 3.241 -7.224 7.224 -7.224 h 19.982 c 3.983 0 7.225 3.24 7.225 7.224 v 3.601 C 62.216 82.829 61.769 83.276 61.216 83.276 z M 29.785 81.276 h 30.431 v -2.601 c 0 -2.88 -2.344 -5.224 -5.225 -5.224 H 35.009 c -2.88 0 -5.224 2.344 -5.224 5.224 V 81.276 z" style="stroke: none; stroke-width: 1; stroke-dasharray: none; stroke-linecap: butt; stroke-linejoin: miter; stroke-miterlimit: 10; fill: rgb(0,0,0); fill-rule: nonzero; opacity: 1;" transform=" matrix(1 0 0 1 0 0) " stroke-linecap="round" />
	<path d="M 37.628 36.611 c -0.207 0 -0.414 -0.064 -0.588 -0.191 c -0.308 -0.224 -0.462 -0.603 -0.398 -0.978 l 1.319 -7.691 l -5.588 -5.447 c -0.272 -0.266 -0.371 -0.663 -0.253 -1.025 c 0.118 -0.362 0.431 -0.626 0.807 -0.681 l 7.723 -1.122 l 3.453 -6.998 c 0.337 -0.683 1.457 -0.683 1.793 0 l 3.454 6.998 l 7.722 1.122 c 0.377 0.055 0.689 0.319 0.808 0.681 c 0.117 0.362 0.02 0.759 -0.253 1.025 l -5.588 5.447 l 1.319 7.691 c 0.064 0.375 -0.09 0.754 -0.397 0.978 c -0.307 0.224 -0.718 0.253 -1.053 0.076 L 45 32.865 l -6.907 3.631 C 37.947 36.573 37.787 36.611 37.628 36.611 z M 45 30.735 c 0.16 0 0.32 0.038 0.465 0.115 l 5.58 2.933 l -1.065 -6.212 c -0.056 -0.324 0.052 -0.655 0.287 -0.885 l 4.514 -4.4 l -6.237 -0.906 c -0.326 -0.047 -0.607 -0.252 -0.753 -0.547 L 45 15.181 l -2.789 5.652 c -0.146 0.295 -0.427 0.5 -0.753 0.547 l -6.238 0.906 l 4.514 4.399 c 0.235 0.23 0.343 0.561 0.288 0.885 l -1.065 6.212 l 5.579 -2.933 C 44.68 30.773 44.84 30.735 45 30.735 z" style="stroke: none; stroke-width: 1; stroke-dasharray: none; stroke-linecap: butt; stroke-linejoin: miter; stroke-miterlimit: 10; fill: rgb(0,0,0); fill-rule: nonzero; opacity: 1;" transform=" matrix(1 0 0 1 0 0) " stroke-linecap="round" />
	<path d="M 66.335 90 H 23.666 c -0.552 0 -1 -0.447 -1 -1 v -6.724 c 0 -0.553 0.448 -1 1 -1 h 42.669 c 0.553 0 1 0.447 1 1 V 89 C 67.335 89.553 66.888 90 66.335 90 z M 24.666 88 h 40.669 v -4.724 H 24.666 V 88 z" style="stroke: none; stroke-width: 1; stroke-dasharray: none; stroke-linecap: butt; stroke-linejoin: miter; stroke-miterlimit: 10; fill: rgb(0,0,0); fill-rule: nonzero; opacity: 1;" transform=" matrix(1 0 0 1 0 0) " stroke-linecap="round" />
	<path d="M 64.646 43.104 c -0.349 0 -0.688 -0.183 -0.871 -0.508 c -0.272 -0.48 -0.103 -1.091 0.378 -1.363 c 7.604 -4.3 14.397 -16.846 15.765 -28.915 h -7.303 c -0.553 0 -1 -0.448 -1 -1 s 0.447 -1 1 -1 h 8.407 c 0.28 0 0.548 0.118 0.737 0.324 c 0.188 0.207 0.283 0.483 0.259 0.762 c -1.138 13.199 -8.395 26.771 -16.881 31.57 C 64.981 43.063 64.813 43.104 64.646 43.104 z" style="stroke: none; stroke-width: 1; stroke-dasharray: none; stroke-linecap: butt; stroke-linejoin: miter; stroke-miterlimit: 10; fill: rgb(0,0,0); fill-rule: nonzero; opacity: 1;" transform=" matrix(1 0 0 1 0 0) " stroke-linecap="round" />
	<path d="M 59.741 51.56 c -0.534 0 -0.978 -0.422 -0.998 -0.961 c -0.021 -0.552 0.408 -1.017 0.96 -1.038 c 15.135 -0.596 27.323 -23.283 27.323 -41.668 V 5.464 H 72.614 c -0.553 0 -1 -0.448 -1 -1 s 0.447 -1 1 -1 h 15.412 c 0.553 0 1 0.448 1 1 v 3.428 c 0 19.661 -12.774 43.018 -29.245 43.667 C 59.769 51.56 59.755 51.56 59.741 51.56 z" style="stroke: none; stroke-width: 1; stroke-dasharray: none; stroke-linecap: butt; stroke-linejoin: miter; stroke-miterlimit: 10; fill: rgb(0,0,0); fill-rule: nonzero; opacity: 1;" transform=" matrix(1 0 0 1 0 0) " stroke-linecap="round" />
	<path d="M 30.26 51.561 c -0.013 0 -0.026 0 -0.04 -0.001 C 13.75 50.91 0.974 27.553 0.974 7.892 V 4.464 c 0 -0.552 0.448 -1 1 -1 h 15.412 c 0.552 0 1 0.448 1 1 s -0.448 1 -1 1 H 2.974 v 2.428 c 0 18.386 12.188 41.073 27.325 41.669 c 0.552 0.021 0.981 0.486 0.959 1.038 C 31.237 51.139 30.794 51.561 30.26 51.561 z" style="stroke: none; stroke-width: 1; stroke-dasharray: none; stroke-linecap: butt; stroke-linejoin: miter; stroke-miterlimit: 10; fill: rgb(0,0,0); fill-rule: nonzero; opacity: 1;" transform=" matrix(1 0 0 1 0 0) " stroke-linecap="round" />
	<path d="M 25.296 43.072 c -0.168 0 -0.338 -0.042 -0.495 -0.132 C 16.346 38.111 9.115 24.554 7.982 11.405 c -0.024 -0.279 0.07 -0.556 0.259 -0.762 c 0.189 -0.206 0.457 -0.324 0.737 -0.324 h 8.408 c 0.552 0 1 0.448 1 1 s -0.448 1 -1 1 h -7.303 c 1.363 12.024 8.132 24.556 15.71 28.884 c 0.479 0.274 0.646 0.885 0.372 1.364 C 25.981 42.891 25.644 43.072 25.296 43.072 z" style="stroke: none; stroke-width: 1; stroke-dasharray: none; stroke-linecap: butt; stroke-linejoin: miter; stroke-miterlimit: 10; fill: rgb(0,0,0); fill-rule: nonzero; opacity: 1;" transform=" matrix(1 0 0 1 0 0) " stroke-linecap="round" />
</g>
</g>
</svg>