<svg xmlns="http://www.w3.org/2000/svg" shape-rendering="geometricPrecision" text-rendering="geometricPrecision" image-rendering="optimizeQuality" fill-rule="evenodd" clip-rule="evenodd" viewBox="0 0 406 511.51"><path d="M99.14 67.77c49.7-61.41 106.98-94.81 149.99-40.18 49.43 2.59 70.62 77.62 36.62 114.62 2.44-.03 4.73.47 6.72 1.56 2.6 1.42 4.57 3.72 5.56 6.98.99 3.21.99 7.37-.41 12.54l-.17.51c-.62 1.83-1.16 4.15-1.71 6.54-2.28 9.88-4.79 20.74-16.05 20.14-.6-.04-1.19-.1-1.79-.2-.41 20.42-10.39 29.82-23.44 42.09 3.5 5.11 7.01 10.26 11.22 15.02l.01-.02c22.08 19.88 78.99 23.86 103.3 37.43 7.69 4.28 14.64 9.74 20.23 17.12.81 1.06 1.57 2.13 2.3 3.2-.54-.04-1.05-.06-1.51-.06H17.69c.71-1.05 1.46-2.1 2.25-3.14 5.59-7.38 12.54-12.84 20.23-17.12 23.55-13.14 77.12-17.29 101.08-35.58 1.49-2.55 3.04-5.77 4.54-9.18 1.94-4.44 3.76-9.15 5.26-13.24-9.5-8.8-16.8-18.31-18.45-36.45l-1.13.02c-2.64-.04-5.17-.64-7.54-1.99-5.25-2.98-8.11-8.67-9.49-15.16-1.77-8.25-1.18-18.03-.33-24.21.06-.43.17-.83.33-1.21 1.83-5.13 4.14-7.9 7.03-9.08-1.31-24.51 2.83-63.34-22.33-70.95zM15.99 317.5h374.02c9.51 0 17.27 8.92 15.81 19.8l-20.67 154.41c-1.42 10.79-8.91 19.8-19.8 19.8H40.65c-10.89 0-18.36-9.01-19.8-19.8L.17 337.3c-1.43-10.89 6.3-19.8 15.82-19.8zm185.2 71.49c13.11 0 23.75 10.63 23.75 23.74 0 13.12-10.64 23.75-23.75 23.75s-23.74-10.63-23.74-23.75c0-13.11 10.63-23.74 23.74-23.74zm47.04-150.72c-12.92 12.03-26.99 17.88-41.28 17.88-14.97.01-29.95-6.39-43.88-18.79l-4.9-4.28-.33-.28c-1.29 3.44-2.76 7.12-4.29 10.62-2.1 4.77-4.34 9.26-6.51 12.51 23.46 47.56 92.8 49.22 115.28.27-5.65-5.72-9.92-11.83-14.09-17.93zM242.5 73.56c-11.34 11.43-23.34 14.72-35.1 15.75-3.47.61-6.85 1.03-10.22 1.45-11.28 1.39-22.54 2.78-37.44 13.1-7.04 4.86-11.73 10.75-14.16 17.6-2.49 7.06-2.66 15.3-.6 24.67a4.936 4.936 0 0 1-6.52 5.69l-5.71-2.09c-4.64-1.62-7.55-2.16-8.94 1.15-.71 5.42-1.16 13.59.27 20.29.85 3.97 2.31 7.28 4.71 8.65.85.48 1.79.7 2.79.71 1.26.02 2.67-.26 4.17-.72.43-.13.87-.2 1.33-.21 2.72-.06 4.98 2.09 5.04 4.8.54 22.33 10.44 30.86 22.49 41.23l5.02 4.36c12.1 10.77 24.84 16.33 37.32 16.33 12.14-.01 24.27-5.31 35.59-16.23l5.1-4.84c12.64-11.87 21.95-20.62 20.16-41.93-.07-1.06.18-2.15.81-3.1a4.918 4.918 0 0 1 6.81-1.41c.82.54 1.64.98 2.45 1.29l.21.07c.74.27 1.46.43 2.12.47 3.01.16 4.54-6.47 5.93-12.5.62-2.67 1.22-5.27 2-7.53.85-3.22.94-5.49.49-6.97-.19-.62-.49-1.03-.86-1.23-.59-.32-1.47-.42-2.52-.32-2.51.23-5.53 1.56-8.37 3.71a4.92 4.92 0 0 1-3.8.93 4.942 4.942 0 0 1-4.04-5.69c4.65-27.1 2.52-44.76-3.25-56.81-5.06-10.55-13.13-16.95-21.88-21.73l-1.4 1.06z"/></svg>