<svg width="66" height="70" viewBox="0 0 66 70" fill="none" xmlns="http://www.w3.org/2000/svg">
<path d="M49.3293 43.1666C49.3293 42.5227 48.8067 42 48.1627 42H41.1627C40.5188 42 39.9961 42.5227 39.9961 43.1666C39.9961 43.8106 40.5188 44.3332 41.1627 44.3332H48.1627C48.8067 44.3334 49.3293 43.8107 49.3293 43.1666Z" fill="black"/>
<path d="M44.6633 12.8334V7C44.6633 6.35605 44.1406 5.83337 43.4967 5.83337C42.8528 5.83337 42.3301 6.35605 42.3301 7V12.8334C42.3301 16.0498 44.9469 18.6668 48.1635 18.6668H58.6635V40.8334C58.6635 41.4773 59.1861 42 59.8301 42C60.474 42 60.9967 41.4773 60.9967 40.8334V17.5C60.9967 16.8561 60.474 16.3334 59.8301 16.3334H48.1635C46.2337 16.3334 44.6633 14.763 44.6633 12.8334Z" fill="black"/>
<path d="M48.1621 28H38.8287C38.1848 28 37.6621 28.5227 37.6621 29.1666C37.6621 29.8106 38.1848 30.3332 38.8287 30.3332H48.1621C48.8061 30.3332 49.3287 29.8106 49.3287 29.1666C49.3289 28.5227 48.8062 28 48.1621 28Z" fill="black"/>
<path d="M35.3293 29.1666C35.3293 28.5227 34.8067 28 34.1627 28H27.1627C26.5188 28 25.9961 28.5227 25.9961 29.1666C25.9961 29.8106 26.5188 30.3332 27.1627 30.3332H34.1627C34.8067 30.3334 35.3293 29.8107 35.3293 29.1666Z" fill="black"/>
<path d="M27.1627 35C26.5188 35 25.9961 35.5227 25.9961 36.1666C25.9961 36.8106 26.5188 37.3332 27.1627 37.3332H29.4961C30.14 37.3332 30.6627 36.8106 30.6627 36.1666C30.6627 35.5227 30.14 35 29.4961 35H27.1627Z" fill="black"/>
<path d="M27.1627 23.3334H38.8293C39.4733 23.3334 39.996 22.8107 39.996 22.1667C39.996 21.5228 39.4733 21.0001 38.8293 21.0001H27.1627C26.5188 21.0001 25.9961 21.5228 25.9961 22.1667C25.9961 22.8107 26.5188 23.3334 27.1627 23.3334Z" fill="black"/>
<path d="M34.1627 37.3334H45.8293C46.4733 37.3334 46.996 36.8107 46.996 36.1667C46.996 35.5228 46.4733 35.0001 45.8293 35.0001H34.1627C33.5188 35.0001 32.9961 35.5228 32.9961 36.1667C32.9961 36.8107 33.5188 37.3334 34.1627 37.3334Z" fill="black"/>
<path d="M41.1627 49C40.5188 49 39.9961 49.5227 39.9961 50.1666C39.9961 50.8106 40.5188 51.3332 41.1627 51.3332H43.4961C44.1401 51.3332 44.6627 50.8106 44.6627 50.1666C44.6627 49.5227 44.1401 49 43.4961 49H41.1627Z" fill="black"/>
<path d="M36.4961 42H27.1627C26.5188 42 25.9961 42.5227 25.9961 43.1666C25.9961 43.8106 26.5188 44.3332 27.1627 44.3332H36.4961C37.14 44.3332 37.6627 43.8106 37.6627 43.1666C37.6627 42.5227 37.14 42 36.4961 42Z" fill="black"/>
<path d="M36.4961 49H27.1627C26.5188 49 25.9961 49.5227 25.9961 50.1666C25.9961 50.8106 26.5188 51.3332 27.1627 51.3332H36.4961C37.14 51.3332 37.6627 50.8106 37.6627 50.1666C37.6627 49.5227 37.14 49 36.4961 49Z" fill="black"/>
<path d="M64.2732 48.0562L61.9399 45.7228C60.1467 43.9296 57.4143 43.9332 55.6236 45.7228L40.3379 61.0085C40.1197 61.2267 39.9961 61.5242 39.9961 61.8334V68.8334C39.9961 69.4773 40.5188 70 41.1627 70H48.1627C48.4718 70 48.7693 69.8764 48.9875 69.6582L64.2732 54.3725C66.1318 52.5139 66.1318 49.9159 64.2732 48.0562ZM54.115 50.5307L55.9654 52.381L45.8293 62.5171L43.979 60.6667L54.115 50.5307ZM42.3295 67.6666V62.3163L47.6798 67.6666H42.3295ZM49.3295 66.017L47.4791 64.1666L57.6152 54.0306L59.4655 55.8809L49.3295 66.017ZM62.6236 52.7228L61.115 54.2314L55.7647 48.881L57.2732 47.3725C58.1949 46.452 59.3639 46.4473 60.2902 47.3725L62.6236 49.7059C63.5674 50.6509 63.5674 51.7789 62.6236 52.7228Z" fill="#FF5555"/>
<path d="M36.4967 67.6666H6.16332C4.23367 67.6666 2.66332 66.0963 2.66332 64.1666V5.83338C2.66332 3.90373 4.23367 2.33338 6.16332 2.33338H43.0137L54.3385 13.6582C54.7946 14.1144 55.5321 14.1144 55.9881 13.6582C56.4444 13.2021 56.4444 12.4646 55.9881 12.0086L44.3215 0.341797C44.1033 0.1225 43.8058 0 43.4967 0H6.16332C2.94688 0 0.330078 2.6168 0.330078 5.83338V64.1668C0.330078 67.3832 2.94687 70.0001 6.16346 70.0001H36.4968C37.1408 70.0001 37.6635 69.4775 37.6635 68.8335C37.6635 68.1896 37.1406 67.6666 36.4967 67.6666Z" fill="black"/>
<path d="M36.4961 56H27.1627C26.5188 56 25.9961 56.5227 25.9961 57.1666C25.9961 57.8106 26.5188 58.3332 27.1627 58.3332H36.4961C37.14 58.3332 37.6627 57.8106 37.6627 57.1666C37.6627 56.5227 37.14 56 36.4961 56Z" fill="black"/>
<path d="M21.3293 22.1666C21.3293 21.5227 20.8067 21 20.1627 21H13.1627C12.5188 21 11.9961 21.5227 11.9961 22.1666V29.1666C11.9961 29.8106 12.5188 30.3332 13.1627 30.3332H20.1627C20.8067 30.3332 21.3293 29.8106 21.3293 29.1666V22.1666ZM18.996 28H14.3293V23.3334H18.996V28Z" fill="black"/>
<path d="M13.1647 58.3334H20.1647C20.8086 58.3334 21.3313 57.8107 21.3313 57.1667V50.1667C21.3313 49.5228 20.8086 49.0001 20.1647 49.0001H13.1647C12.5207 49.0001 11.998 49.5228 11.998 50.1667V57.1667C11.998 57.8107 12.5207 58.3334 13.1647 58.3334ZM14.3314 51.3334H18.998V56H14.3314V51.3334Z" fill="black"/>
<path d="M14.6716 43.9914C14.8909 44.2107 15.1884 44.3332 15.4964 44.3332C15.535 44.3332 15.5723 44.3321 15.6119 44.3273C15.9596 44.2936 16.2734 44.1045 16.4671 43.814L21.1337 36.814C21.4907 36.2773 21.3461 35.5527 20.8105 35.1958C20.2727 34.8376 19.5505 34.9834 19.1923 35.519L15.3155 41.3348L13.9879 40.0084C13.5318 39.5522 12.7943 39.5522 12.3382 40.0084C11.8821 40.4646 11.882 41.202 12.3382 41.6581L14.6716 43.9914Z" fill="black"/>
</svg>
