<svg width="64" height="70" viewBox="0 0 64 70" fill="none" xmlns="http://www.w3.org/2000/svg">
<path d="M53.6606 50.3357L57.9667 49.474V38.5905L53.6606 37.7289C53.1998 36.1417 52.5674 34.6141 51.7741 33.1697L54.2092 29.5175L46.5127 21.8221L42.8604 24.2571C41.4183 23.4638 39.8895 22.8315 38.3024 22.3706L37.4407 18.0645H26.5573L25.6967 22.3706C24.1217 22.8282 22.6067 23.4522 21.1762 24.2356L17.4787 21.8298L9.79653 29.5109L12.2023 33.2105C11.4256 34.6284 10.8059 36.129 10.35 37.687L6.03125 38.6004V49.463L10.35 50.3775C10.8048 51.9355 11.4256 53.4361 12.2023 54.854L9.79653 58.5537L17.4787 66.2347L21.1762 63.8289C22.5941 64.6046 24.0947 65.2253 25.6526 65.6812L26.5672 70H37.4297L38.3454 65.6812C39.9171 65.222 41.4298 64.593 42.8593 63.8074L46.5116 66.2424L54.2081 58.547L51.773 54.8948C52.5674 53.4504 53.1987 51.9217 53.6606 50.3357ZM51.3033 58.2593L46.226 63.3377L42.9415 61.1486L42.3306 61.5108C40.7027 62.475 38.9424 63.2065 37.1 63.6839L36.4236 63.8592L35.5994 67.7419H28.3974L27.5744 63.8581L26.8979 63.6828C25.071 63.2098 23.3256 62.4876 21.7093 61.5356L21.1061 61.1811L17.7797 63.3443L12.6869 58.2516L14.8502 54.924L14.4957 54.3209C13.5436 52.7056 12.8225 50.9603 12.3495 49.1333L12.1753 48.4558L8.28931 47.6327V40.4307L12.1742 39.6076L12.3484 38.9301C12.8214 37.1032 13.5436 35.3578 14.4946 33.7425L14.8491 33.1394L12.6858 29.8119L17.7786 24.7191L21.105 26.8823L21.7076 26.5278C23.3372 25.567 25.0997 24.8409 26.9454 24.3679L27.6328 24.1915L28.4085 20.3226H35.5884L36.363 24.1932L37.0504 24.369C38.9099 24.8453 40.6867 25.5807 42.3295 26.5549L42.9403 26.9171L46.2249 24.7279L51.3022 29.8063L49.1142 33.0909L49.4753 33.7017C50.4483 35.3457 51.1848 37.1213 51.6611 38.9808L51.837 39.6683L55.7087 40.4417V47.6228L51.837 48.3973L51.6611 49.0848C51.1848 50.9443 50.4494 52.72 49.4753 54.3639L49.1142 54.9747L51.3033 58.2593Z" fill="black"/>
<path d="M30.8711 22.5806H33.1292V24.8387H30.8711V22.5806Z" fill="black"/>
<path d="M16.0332 29.6613L17.6297 28.0648L19.2268 29.6613L17.6297 31.2584L16.0332 29.6613Z" fill="black"/>
<path d="M10.5488 42.9032H12.8069V45.1613H10.5488V42.9032Z" fill="black"/>
<path d="M16.0332 58.4021L17.6303 56.805L19.2268 58.4021L17.6303 59.9986L16.0332 58.4021Z" fill="black"/>
<path d="M30.8711 63.2258H33.1292V65.4839H30.8711V63.2258Z" fill="black"/>
<path d="M44.7715 58.4021L46.368 56.8055L47.9645 58.4021L46.368 59.9986L44.7715 58.4021Z" fill="black"/>
<path d="M51.1934 42.9032H53.4514V45.1613H51.1934V42.9032Z" fill="black"/>
<path d="M44.7715 29.6619L46.3686 28.0648L47.9651 29.6619L46.3686 31.2584L44.7715 29.6619Z" fill="black"/>
<path d="M31.9997 29.3549C23.9068 29.3549 17.3223 35.9394 17.3223 44.0323C17.3223 52.1251 23.9068 58.7097 31.9997 58.7097C40.0926 58.7097 46.6771 52.1251 46.6771 44.0323C46.6771 35.9394 40.0926 29.3549 31.9997 29.3549ZM31.9997 56.4516C25.1522 56.4516 19.5803 50.8798 19.5803 44.0323C19.5803 37.1848 25.1522 31.6129 31.9997 31.6129C38.8472 31.6129 44.419 37.1848 44.419 44.0323C44.419 50.8798 38.8472 56.4516 31.9997 56.4516Z" fill="black"/>
<path d="M31.9989 36.129C27.6421 36.129 24.0957 39.6743 24.0957 44.0323C24.0957 48.3902 27.6421 51.9355 31.9989 51.9355C36.3557 51.9355 39.9022 48.3902 39.9022 44.0323C39.9022 39.6743 36.3557 36.129 31.9989 36.129ZM31.9989 49.6774C28.8864 49.6774 26.3538 47.1448 26.3538 44.0323C26.3538 40.9197 28.8864 38.3871 31.9989 38.3871C35.1115 38.3871 37.6441 40.9197 37.6441 44.0323C37.6441 47.1448 35.1115 49.6774 31.9989 49.6774Z" fill="black"/>
<path d="M7.16091 20.3226C10.5469 20.3226 13.7229 18.6075 15.6005 15.8065H48.3998C50.2775 18.6075 53.4534 20.3226 56.8394 20.3226C59.1697 20.3226 61.3682 19.5447 63.1935 18.0733L63.6136 17.7348V13.5484H58.6664L56.9728 10.1613L58.6664 6.77419H63.6125V2.58773L63.1924 2.24924C61.3671 0.777864 59.1686 0 56.8383 0C53.4523 0 50.2764 1.71505 48.3987 4.51613H15.6005C13.7229 1.71505 10.5469 0 7.16091 0C4.83063 0 2.6321 0.777864 0.806798 2.24924L0.386719 2.58773V6.77419H5.33395L7.0275 10.1613L5.33395 13.5484H0.386719V17.7348L0.806798 18.0733C2.6321 19.5447 4.83063 20.3226 7.16091 20.3226V20.3226ZM2.64478 15.8065H6.72981L9.55239 10.1613L6.72981 4.51613H2.64478V3.68975C3.97614 2.75146 5.5258 2.25806 7.16091 2.25806C9.9653 2.25806 12.5861 3.773 13.9985 6.21078L14.3249 6.77419H49.6755L50.0018 6.21078C51.4131 3.773 54.0339 2.25806 56.8383 2.25806C58.4734 2.25806 60.0231 2.75146 61.3545 3.68975V4.51613H57.2694L54.4469 10.1613L57.2694 15.8065H61.3545V16.6328C60.0231 17.5711 58.4734 18.0645 56.8383 18.0645C54.0339 18.0645 51.4131 16.5496 50.0007 14.1118L49.6744 13.5484H14.3249L13.9985 14.1118C12.5861 16.5496 9.9653 18.0645 7.16091 18.0645C5.5258 18.0645 3.97614 17.5711 2.64478 16.6328V15.8065Z" fill="#FF5555"/>
</svg>
