<svg width="70" height="70" viewBox="0 0 70 70" fill="none" xmlns="http://www.w3.org/2000/svg">
<path d="M69.0226 9.92676L60.0734 0.977556C58.7699 -0.325921 56.6488 -0.325784 55.3454 0.977556L38.4957 17.827C38.0738 18.2491 38.0738 18.933 38.4957 19.355C38.9176 19.7768 39.6017 19.7768 40.0236 19.355L56.8731 2.50553C57.0965 2.28213 57.3934 2.15922 57.7092 2.15922C58.025 2.15922 58.322 2.28213 58.5454 2.50553L67.4947 11.4547C67.718 11.678 67.841 11.9749 67.841 12.2909C67.841 12.6067 67.718 12.9037 67.4947 13.1269L65.2985 15.3232L59.5441 9.56896C59.1222 9.14719 58.4382 9.14719 58.0163 9.56896C57.5944 9.99101 57.5944 10.6749 58.0163 11.0969L63.7705 16.8512L61.2613 19.3603L58.7323 16.8313C58.3104 16.4095 57.6264 16.4095 57.2045 16.8313C56.7826 17.2534 56.7826 17.9372 57.2045 18.3593L59.7335 20.8882L57.2243 23.3974L54.6953 20.8684C54.2734 20.4466 53.5893 20.4466 53.1674 20.8684C52.7455 21.2904 52.7455 21.9743 53.1674 22.3963L55.6965 24.9252L53.1873 27.4344L47.4329 21.6799C47.0111 21.2583 46.327 21.258 45.9051 21.6799C45.4832 22.102 45.4832 22.7858 45.9051 23.2079L51.6594 28.9622L49.1502 31.4714L46.6212 28.9424C46.1993 28.5206 45.5153 28.5206 45.0934 28.9424C44.6715 29.3645 44.6715 30.0483 45.0934 30.4704L47.6223 32.9993L45.4996 35.122L34.878 24.5004L36.8536 22.5247C37.2755 22.1027 37.2755 21.4188 36.8536 20.9967C36.4317 20.575 35.7477 20.575 35.3258 20.9967L33.35 22.9725L13.4208 3.04392C12.0348 1.65787 10.1919 0.894568 8.23181 0.894568C6.27167 0.894705 4.42884 1.65801 3.04292 3.04406C1.65673 4.43012 0.893428 6.27281 0.893428 8.23308C0.893428 10.1932 1.65673 12.0361 3.04278 13.4221L22.9716 33.3509L0.979561 55.3434C-0.323916 56.647 -0.323916 58.7679 0.979561 60.0715L9.92876 69.0208C10.5601 69.6522 11.3997 70 12.2928 70C13.1858 70 14.0254 69.6522 14.6568 69.0208L36.6491 47.0285L38.2155 48.5949C38.6374 49.0167 39.3214 49.0167 39.7433 48.5949C40.1652 48.1729 40.1652 47.489 39.7433 47.067L37.5812 44.9049C37.5392 44.8384 37.49 44.7753 37.4322 44.7174C37.3744 44.6596 37.3112 44.6104 37.2449 44.5684L13.8355 21.159L16.7327 18.2618L18.524 20.0531C18.7349 20.2639 19.0114 20.3695 19.288 20.3695C19.5646 20.3695 19.841 20.2639 20.052 20.0531C20.4739 19.6311 20.4739 18.9472 20.052 18.5251L18.2608 16.734L21.158 13.8368L32.5848 25.2636C32.5852 25.2641 32.5857 25.2646 32.5862 25.2651C32.5867 25.2656 32.5872 25.2659 32.5877 25.2665L44.63 37.3088C44.6598 37.3482 44.6916 37.3867 44.7275 37.4227C44.7635 37.4586 44.8019 37.4904 44.8413 37.5202L60.874 53.5529L57.9768 56.4501L41.8008 40.2741C41.7911 40.2636 41.7823 40.2525 41.7721 40.2424L35.3214 33.7916C35.3107 33.7809 35.2991 33.7716 35.2882 33.7615L23.8936 22.3671C23.4717 21.9453 22.7877 21.9453 22.3658 22.3671C21.9439 22.7891 21.9439 23.473 22.3658 23.895L56.4485 57.9778L53.5512 60.875L43.2842 50.6078C42.8623 50.1861 42.1783 50.1861 41.7563 50.6078C41.3344 51.0299 41.3344 51.7138 41.7563 52.1358L52.7874 63.1668C52.8922 63.2717 53.0221 63.3563 53.1603 63.4099L66.214 68.4779C66.4199 68.5578 66.6345 68.5966 66.8475 68.5966C67.3044 68.5966 67.7531 68.4178 68.088 68.0827C68.5789 67.5914 68.7334 66.8559 68.4817 66.2087L63.4083 53.1611C63.3548 53.0232 63.2701 52.8931 63.1654 52.7885L47.0273 36.6504L69.0226 14.6549C70.3262 13.3513 70.3262 11.2304 69.0226 9.92676ZM35.1217 45.5007L33.0016 47.6203L30.4725 45.0912C30.0506 44.6695 29.3666 44.6695 28.9447 45.0912C28.5228 45.5133 28.5228 46.1972 28.9447 46.6192L31.4737 49.1482L28.9645 51.6574L23.2102 45.9031C22.7883 45.4813 22.1042 45.4813 21.6823 45.9031C21.2604 46.3251 21.2604 47.009 21.6823 47.431L27.4367 53.1854L24.9275 55.6946L22.3985 53.1656C21.9766 52.7438 21.2925 52.7438 20.8706 53.1656C20.4487 53.5876 20.4487 54.2715 20.8706 54.6935L23.3997 57.2224L20.8905 59.7316L18.3614 57.2026C17.9395 56.7808 17.2555 56.7808 16.8336 57.2026C16.4117 57.6247 16.4117 58.3085 16.8336 58.7306L19.3626 61.2596L16.8534 63.7688L11.0991 58.0144C10.6772 57.5927 9.99315 57.5927 9.57124 58.0144C9.14933 58.4365 9.14933 59.1204 9.57124 59.5424L15.3256 65.2966L13.1293 67.4929C12.9059 67.7163 12.609 67.8393 12.2932 67.8393C11.9774 67.8393 11.6804 67.7163 11.457 67.4929L2.5078 58.5435C2.04679 58.0825 2.04679 57.3323 2.5078 56.8713L24.5 34.879L35.1217 45.5007ZM4.57062 11.8943C2.55183 9.87549 2.55183 6.59068 4.57062 4.57189C6.5894 2.55297 9.87421 2.55297 11.893 4.57189L15.3077 7.98658L7.9853 15.309L4.57062 11.8943ZM15.9695 15.9692C15.9693 15.9695 15.969 15.9696 15.9689 15.9699C15.9686 15.9701 15.9684 15.9704 15.9682 15.9705L12.3077 19.6311L9.51327 16.8367L16.8357 9.51427L19.63 12.3087L15.9695 15.9692ZM66.1323 66.1283L55.4869 61.9954L61.9948 55.4875L66.1323 66.1283Z" fill="black"/>
<path d="M41.8002 40.2741L57.9763 56.4501L56.448 57.9778L22.3653 23.895C21.9433 23.473 21.9433 22.7891 22.3653 22.3671C22.7872 21.9453 23.4712 21.9453 23.8931 22.3671L35.2876 33.7615C35.2986 33.7716 35.3102 33.7809 35.3209 33.7915L41.7715 40.2423C41.7818 40.2525 41.7905 40.2635 41.8002 40.2741Z" fill="#FF5555"/>
</svg>
