<svg width="69" height="71" viewBox="0 0 69 71" fill="none" xmlns="http://www.w3.org/2000/svg">
<path d="M3.40023 48.5245H18.1345V46.2577H3.40023C2.77375 46.2577 2.26682 45.7502 2.26682 45.1242V9.98859H45.3363V19.0559H47.6032V4.32155C47.6032 2.44379 46.0807 0.921326 44.2029 0.921326H3.40023C1.52191 0.921326 0 2.44379 0 4.32155V45.1242C0 47.002 1.52191 48.5245 3.40023 48.5245ZM3.40023 3.18814H44.2029C44.8288 3.18814 45.3363 3.69563 45.3363 4.32155V7.72178H2.26682V4.32155C2.26682 3.69563 2.77375 3.18814 3.40023 3.18814Z" fill="#FF5555"/>
<path d="M4.5332 4.32153H6.80002V6.58835H4.5332V4.32153Z" fill="#FF5555"/>
<path d="M9.06836 4.32153H11.3352V6.58835H9.06836V4.32153Z" fill="#FF5555"/>
<path d="M13.5996 4.32153H15.8664V6.58835H13.5996V4.32153Z" fill="#FF5555"/>
<path d="M64.6033 23.3182H23.8006C21.9223 23.3182 20.4004 24.8406 20.4004 26.7184V67.5211C20.4004 69.3989 21.9223 70.9213 23.8006 70.9213H64.6033C66.4811 70.9213 68.0035 69.3989 68.0035 67.5211V26.7184C68.0035 24.8406 66.4811 23.3182 64.6033 23.3182ZM23.8006 25.585H64.6033C65.2292 25.585 65.7367 26.0925 65.7367 26.7184V30.1186H22.6672V26.7184C22.6672 26.0925 23.1741 25.585 23.8006 25.585ZM64.6033 68.6545H23.8006C23.1741 68.6545 22.6672 68.147 22.6672 67.5211V32.3854H65.7367V67.5211C65.7367 68.147 65.2292 68.6545 64.6033 68.6545Z" fill="black"/>
<path d="M24.9336 26.7183H27.2004V28.9851H24.9336V26.7183Z" fill="black"/>
<path d="M29.4688 26.7183H31.7356V28.9851H29.4688V26.7183Z" fill="black"/>
<path d="M34.002 26.7183H36.2688V28.9851H34.002V26.7183Z" fill="black"/>
<path d="M44.2028 43.7241C40.4467 43.7241 37.4023 46.769 37.4023 50.5245C37.4023 54.2806 40.4467 57.325 44.2028 57.325C47.9583 57.325 51.0032 54.2806 51.0032 50.5245C50.9994 46.7701 47.9567 43.7279 44.2028 43.7241ZM44.2028 55.0581C41.6986 55.0581 39.6692 53.0282 39.6692 50.5245C39.6692 48.0208 41.6986 45.9909 44.2028 45.9909C46.7065 45.9909 48.7364 48.0208 48.7364 50.5245C48.7364 53.0282 46.7065 55.0581 44.2028 55.0581Z" fill="black"/>
<path d="M56.8963 47.1424L54.8857 46.7401C54.754 46.3654 54.6029 45.998 54.4325 45.6393L55.5659 43.9392C55.8653 43.4898 55.8061 42.891 55.4242 42.5092L52.2166 39.2993C51.8347 38.9169 51.2359 38.8577 50.786 39.1577L49.0859 40.2911C48.7272 40.1206 48.3603 39.9695 47.9857 39.8378L47.58 37.8256C47.4721 37.2982 47.0078 36.9191 46.4693 36.9191H41.9356C41.3966 36.9191 40.9323 37.2982 40.8244 37.8256L40.422 39.8367C40.0479 39.9684 39.6805 40.1195 39.3218 40.29L37.6217 39.1566C37.1718 38.8566 36.5735 38.9158 36.1911 39.2982L32.9813 42.5059C32.5994 42.8877 32.5402 43.4865 32.8396 43.9359L33.973 45.636C33.8031 45.9946 33.6515 46.3621 33.5198 46.7368L31.5081 47.1424C30.9801 47.2503 30.601 47.7147 30.6016 48.2532V52.7868C30.601 53.3253 30.9801 53.7896 31.5081 53.8975L33.5187 54.2998C33.6504 54.6745 33.802 55.042 33.9719 55.4006L32.8385 57.1007C32.5391 57.5501 32.5983 58.1489 32.9802 58.5308L36.1878 61.7406C36.5697 62.123 37.1685 62.1822 37.6184 61.8823L39.3185 60.7489C39.6771 60.9193 40.0446 61.0704 40.4187 61.2021L40.8244 63.2144C40.9323 63.7418 41.3966 64.1209 41.9356 64.1209H46.4693C47.0078 64.1209 47.4721 63.7418 47.58 63.2144L47.9823 61.2038C48.3564 61.0721 48.7239 60.9204 49.0825 60.75L50.7826 61.8834C51.2326 62.1833 51.8308 62.1241 52.2132 61.7417L55.4231 58.5341C55.805 58.1522 55.8642 57.5534 55.5648 57.104L54.4314 55.4039C54.6013 55.0453 54.7529 54.6778 54.8846 54.3032L56.8963 53.8975C57.4243 53.7896 57.8034 53.3253 57.8034 52.7868V48.2532C57.8034 47.7147 57.4243 47.2503 56.8963 47.1424ZM55.5365 51.8576L53.7816 52.209C53.366 52.292 53.0312 52.6008 52.9144 53.0087C52.7241 53.675 52.4579 54.3175 52.1214 54.9235C51.9144 55.2943 51.9327 55.7498 52.1679 56.1034L53.1585 57.5877L51.2658 59.481L49.781 58.4904C49.4273 58.2546 48.9719 58.2369 48.6011 58.4439C47.9951 58.7803 47.3531 59.0465 46.6868 59.2369C46.2789 59.3537 45.9701 59.688 45.8865 60.1041L45.5395 61.854H42.8648L42.5134 60.0997C42.4299 59.6835 42.121 59.3487 41.7132 59.2325C41.0469 59.0421 40.4043 58.7759 39.7989 58.4389C39.4281 58.2325 38.9726 58.2502 38.619 58.4854L37.1342 59.476L35.2415 57.5833L36.2321 56.0985C36.4673 55.7454 36.4855 55.2899 36.2786 54.9186C35.9415 54.3131 35.6753 53.6706 35.485 53.0043C35.3687 52.5964 35.0339 52.2876 34.6183 52.204L32.8684 51.8576V49.1823L34.6227 48.8315C35.0389 48.7479 35.3732 48.4391 35.4899 48.0312C35.6803 47.3649 35.9465 46.7224 36.283 46.1169C36.49 45.7456 36.4717 45.2901 36.2365 44.937L35.2459 43.4522L37.1386 41.5595L38.6234 42.5501C38.9771 42.7853 39.4325 42.8031 39.8033 42.5966C40.4093 42.2596 41.0513 41.9934 41.7176 41.803C42.126 41.6862 42.4343 41.352 42.5178 40.9358L42.8648 39.1859H45.5395L45.891 40.9402C45.9745 41.3564 46.2833 41.6912 46.6912 41.8074C47.3575 41.9978 48 42.264 48.6055 42.6011C48.9763 42.8075 49.4317 42.7898 49.7854 42.5546L51.2702 41.5639L53.1629 43.4566L52.1723 44.9415C51.9371 45.2951 51.9188 45.7506 52.1258 46.1214C52.4628 46.7268 52.729 47.3693 52.9194 48.0357C53.0356 48.4435 53.3704 48.7523 53.7861 48.8359L55.5365 49.1823V51.8576Z" fill="black"/>
<path d="M6.80078 22.4561H15.868V24.7229H6.80078V22.4561Z" fill="#FF5555"/>
<path d="M6.80078 26.9897H15.868V29.2565H6.80078V26.9897Z" fill="#FF5555"/>
<path d="M6.80078 31.5233H15.868V33.7901H6.80078V31.5233Z" fill="#FF5555"/>
<path d="M6.80078 36.057H15.868V38.3238H6.80078V36.057Z" fill="#FF5555"/>
<path d="M6.80078 40.5906H15.868V42.8574H6.80078V40.5906Z" fill="#FF5555"/>
</svg>
