<?xml version="1.0" encoding="utf-8"?>
<!-- Generator: Adobe Illustrator 23.0.1, SVG Export Plug-In . SVG Version: 6.00 Build 0)  -->
<svg version="1.1" id="Слой_1" xmlns="http://www.w3.org/2000/svg" xmlns:xlink="http://www.w3.org/1999/xlink" x="0px" y="0px"
	 width="80px" height="80px" viewBox="0 0 80 80" style="enable-background:new 0 0 80 80;" xml:space="preserve">
<style type="text/css">
	.st0{fill:none;stroke:#000000;stroke-width:2;stroke-linecap:round;stroke-miterlimit:10;}
	.st1{fill:none;stroke:#FF5555;stroke-width:2;stroke-linecap:round;stroke-miterlimit:10;}
</style>
<path class="st0" d="M19.9,28.5c0.1-0.1,0.3-0.1,0.3,0L39.9,75c0,0,0,0.1,0,0L11.5,43.3L19.9,28.5z M20.1,28.2h19.8l-13.5,15"/>
<path class="st0" d="M34.2,43.2H11.5"/>
<path class="st0" d="M37.9,43.2h2"/>
<path class="st1" d="M28.6,20.1l-3.2-5.2"/>
<path class="st1" d="M23.5,11.6l-0.9-1.5"/>
<path class="st0" d="M60,28.5c-0.1-0.1-0.3-0.1-0.3,0L40,75c0,0,0,0.1,0,0l28.3-31.7L60,28.5z M59.8,28.2H39.9l13.5,15"/>
<path class="st0" d="M45.6,43.2h22.7"/>
<path class="st0" d="M41.9,43.2h-2"/>
<path class="st1" d="M51.3,20.1l3.2-5.2"/>
<path class="st1" d="M56.4,11.6l0.9-1.5"/>
<path class="st1" d="M39.9,17.3v-6.4"/>
<path class="st1" d="M39.9,5v1.6"/>
</svg>
