<?xml version="1.0" encoding="utf-8"?>
<!-- Generator: Adobe Illustrator 23.0.1, SVG Export Plug-In . SVG Version: 6.00 Build 0)  -->
<svg version="1.1" id="Слой_1" xmlns="http://www.w3.org/2000/svg" xmlns:xlink="http://www.w3.org/1999/xlink" x="0px" y="0px"
	 width="80px" height="80px" viewBox="0 0 80 80" style="enable-background:new 0 0 80 80;" xml:space="preserve">
<style type="text/css">
	.st0{fill:none;stroke:#000000;stroke-width:2;stroke-linecap:round;stroke-miterlimit:10;}
	.st1{fill:none;stroke:#FF5555;stroke-width:2;stroke-linecap:round;stroke-miterlimit:10;}
</style>
<path class="st0" d="M47.2,38.3c0,0,0-3,0-13.6S41.7,7.5,41.1,6.6c-0.6-0.9-1.8-1.1-1.8-1.1s-1.2,0.2-1.8,1.1
	c-0.6,0.9-6.1,7.5-6.1,18.1s0,13.4,0,13.4"/>
<path class="st0" d="M53.3,43.5c0,0,0-2.1,0-9s-2.1-11.2-2.4-11.8c-0.2-0.6-0.7-0.7-0.7-0.7s-0.5,0.2-0.7,0.7
	c-0.2,0.6-2.4,4.9-2.4,11.8"/>
<path class="st0" d="M25.4,43.7c0,0,0-2.3,0-9.2s2.1-11.2,2.4-11.8c0.2-0.6,0.7-0.7,0.7-0.7s0.5,0.2,0.7,0.7
	c0.2,0.6,2.4,4.9,2.4,11.8"/>
<path class="st0" d="M42.3,55.2h-5.7V27.2c0-1.6,1.3-2.8,2.9-2.8c1.6,0,2.9,1.3,2.9,2.8V55.2z"/>
<path class="st0" d="M32.6,16.5h13.4"/>
<path class="st0" d="M36.5,30.7c0,0-0.8,4.6-7.8,10.2c-7,5.6-9.4,8.2-9.4,14.3c3.8,0,17.2,0,17.2,0L34.4,66"/>
<path class="st0" d="M42.3,30.7c0,0,0.8,4.6,7.8,10.2c7,5.6,9.4,8.2,9.4,14.3c-3.8,0-17.2,0-17.2,0"/>
<path class="st1" d="M18.3,21.9v10.4"/>
<path class="st1" d="M18.3,38.5V40"/>
<path class="st0" d="M27.9,55.2v10.2"/>
<path class="st0" d="M51.9,55.2v6"/>
<path class="st1" d="M51.9,66v1.2"/>
<path class="st0" d="M42.3,55.5l3.3,15"/>
<path class="st1" d="M75.1,75.5c0-4.2-3.5-7.7-7.7-7.7c-2.8,0-5.3,1.5-6.7,3.8c-0.9-0.4-2-0.6-3-0.6c-2.3,0-4.4,1-5.8,2.6
	c-0.8-1.6-2.5-2.8-4.4-2.8c-0.5,0-1,0.1-1.4,0.2c-1.6-3.3-4.9-5.5-8.9-5.5c-4,0-7.5,2.4-9,5.9c-0.9-1.4-2.5-2.3-4.3-2.3
	c-1.3,0-2.5,0.5-3.4,1.3c-1.6-2.5-4.3-4.1-7.5-4.1C8,66.2,4,70.2,4,75"/>
</svg>
