<?xml version="1.0" encoding="utf-8"?>
<!-- Generator: Adobe Illustrator 23.0.1, SVG Export Plug-In . SVG Version: 6.00 Build 0)  -->
<svg version="1.1" id="Слой_1" xmlns="http://www.w3.org/2000/svg" xmlns:xlink="http://www.w3.org/1999/xlink" x="0px" y="0px"
	 width="80px" height="80px" viewBox="0 0 80 80" style="enable-background:new 0 0 80 80;" xml:space="preserve">
<style type="text/css">
	.st0{fill:#FF5555;}
</style>
<path d="M69.4,68.1c3,0,5.5-2.5,5.5-5.5V26.5c0-3-2.5-5.5-5.5-5.5h-6.6v2h6.6c1.9,0,3.5,1.6,3.5,3.5v30.6H7.1V26.5
	c0-1.9,1.6-3.5,3.5-3.5h6.6v-2h-6.6c-3,0-5.5,2.5-5.5,5.5v36.1c0,3,2.5,5.5,5.5,5.5h14.8v4.8h-4.5v2h38.1v-2h-4.5v-4.8H69.4z
	 M52.5,72.9H27.5v-4.8h25.1V72.9z M10.6,66.1c-1.9,0-3.5-1.6-3.5-3.5v-3.5h65.7v3.5c0,1.9-1.6,3.5-3.5,3.5H10.6z"/>
<rect x="63.8" y="61.6" width="2" height="2"/>
<rect x="68.4" y="61.6" width="2" height="2"/>
<rect x="59.3" y="61.6" width="2" height="2"/>
<rect x="48.3" y="13" transform="matrix(0.3827 -0.9239 0.9239 0.3827 17.664 54.2222)" class="st0" width="2.2" height="1.8"/>
<rect x="16.4" y="26.1" transform="matrix(0.3828 -0.9238 0.9238 0.3828 -14.4641 32.7543)" class="st0" width="1.8" height="2.2"/>
<rect x="29.7" y="12.8" transform="matrix(0.9238 -0.3829 0.3829 0.9238 -2.9879 12.7701)" class="st0" width="1.8" height="2.2"/>
<path class="st0" d="M59.2,14.3c-1.7,0-3.1,1.4-3.1,3.1c0,0.5,0.1,0.9,0.3,1.3l0.1,0.2L56.4,19l-4.4,4.4l-0.2-0.2
	c-1.2-1.1-2.5-1.9-3.9-2.6l-0.2-0.1l1.1-2.5L47,17.3L46,19.9l-0.2-0.1c-1.5-0.5-3.1-0.8-4.7-0.9l-0.2,0v-7.4l0.2-0.1
	c1.3-0.4,2.1-1.6,2.1-2.9c0-1.7-1.4-3.1-3.1-3.1s-3.1,1.4-3.1,3.1c0,1.3,0.8,2.5,2.1,2.9l0.2,0.1v7.4l-0.2,0
	c-1.6,0.1-3.2,0.4-4.7,0.9L34,19.9L33,17.3L31.3,18l1.1,2.5l-0.2,0.1c-1.4,0.7-2.8,1.6-3.9,2.6l-0.2,0.2l-4.5-4.5l0.1-0.2
	c0.2-0.4,0.3-0.9,0.3-1.3c0-1.7-1.4-3.1-3.1-3.1s-3.1,1.4-3.1,3.1s1.4,3.1,3.1,3.1c0.5,0,0.9-0.1,1.3-0.3l0.2-0.1l4.5,4.5l-0.2,0.2
	c-1.1,1.2-1.9,2.5-2.6,3.9L23.9,29l-2.5-1.1l-0.7,1.6l2.5,1.1l-0.1,0.2c-0.6,1.9-1,3.8-1,5.8c0,9.8,8,17.8,17.8,17.8
	s17.8-8,17.8-17.8c0-1.9-0.3-3.9-1-5.8l-0.1-0.2l2.5-1.1l-0.7-1.6L56.1,29L56,28.8c-0.7-1.4-1.6-2.8-2.6-3.9l-0.2-0.2l0.1-0.1
	l4.4-4.4l0.2,0.1c0.4,0.2,0.9,0.3,1.3,0.3c1.7,0,3.1-1.4,3.1-3.1S60.9,14.3,59.2,14.3z M20.8,18.8c-0.8,0-1.4-0.6-1.4-1.4
	S20,16,20.8,16s1.4,0.6,1.4,1.4S21.6,18.8,20.8,18.8z M38.6,8.4C38.6,7.6,39.2,7,40,7c0.8,0,1.4,0.6,1.4,1.4S40.8,9.8,40,9.8
	C39.2,9.8,38.6,9.1,38.6,8.4z M25.1,42.6c-0.8-1.9-1.2-3.9-1.2-6c0-5.3,2.6-10.2,7-13.2l0.2-0.1l3.5,3.5c0.7,0.7,1.2,1.7,1.2,2.8
	c0,1.8-1.2,3.3-2.9,3.8l-1,0.3c-2.4,0.7-4,2.9-4,5.3c0,1.1-0.5,2.1-1.3,2.9l-1.3,1.1L25.1,42.6z M48.2,50.4
	c-2.5,1.5-5.3,2.3-8.2,2.3c-3,0-6-0.9-8.5-2.5L31.2,50l1.8-1.8c1.4-1.4,2.2-3.4,2.2-5.4v-1.7c0-0.8,0.6-1.4,1.4-1.4
	c0.8,0,1.4,0.6,1.4,1.4c0,3,2.4,5.4,5.4,5.4h0.2c1.1,0,2.1,0.5,2.8,1.3l2.1,2.5L48.2,50.4z M53.4,45.4c-0.9,1.4-2,2.6-3.3,3.7
	l-0.2,0.2l-2.2-2.6c-1-1.2-2.5-1.9-4.1-1.9h-0.2c-2,0-3.6-1.6-3.6-3.6c0-1.7-1.4-3.1-3.1-3.1c-1.7,0-3.1,1.4-3.1,3.1v1.7
	c0,1.6-0.6,3.1-1.7,4.2l-2,2l-0.2-0.2c-1.4-1.2-2.5-2.5-3.4-4.1l-0.1-0.2l1.6-1.4c1.2-1,1.9-2.6,1.9-4.2c0-1.7,1.1-3.2,2.7-3.6
	l1-0.3c2.4-0.7,4.1-3,4.1-5.5c0-1.5-0.6-3-1.7-4l-3.2-3.2l0.3-0.2c2.2-1.1,4.6-1.7,7-1.7c0.5,0,1,0,1.5,0.1l0.4,0l-0.6,1.3
	c-0.7,1.3-1,2.8-1,4.3c0,3.2,1.6,6.2,4.3,8l0.6,0.4c1.1,0.8,1.8,2,1.8,3.4c0,2.2,1.2,4.1,3.1,5.2l3.5,1.9L53.4,45.4z M56.1,36.6
	c0,2.4-0.5,4.7-1.5,6.8l-0.1,0.2l-3.5-1.9c-1.3-0.7-2.1-2.1-2.1-3.6c0-2-1-3.8-2.6-4.9l-0.6-0.4c-2.2-1.5-3.5-3.9-3.5-6.6
	c0-1.2,0.3-2.4,0.8-3.5l0.9-1.7l0.2,0C51.1,22.9,56.1,29.2,56.1,36.6z M59.2,18.8c-0.8,0-1.4-0.6-1.4-1.4s0.6-1.4,1.4-1.4
	s1.4,0.6,1.4,1.4S60,18.8,59.2,18.8z"/>
<rect x="61.6" y="26.3" transform="matrix(0.9238 -0.3828 0.3828 0.9238 -5.6356 26.0778)" class="st0" width="2.2" height="1.8"/>
</svg>
