<?xml version="1.0" encoding="utf-8"?>
<!-- Generator: Adobe Illustrator 23.0.1, SVG Export Plug-In . SVG Version: 6.00 Build 0)  -->
<svg version="1.1" id="Слой_1" xmlns="http://www.w3.org/2000/svg" xmlns:xlink="http://www.w3.org/1999/xlink" x="0px" y="0px"
	 width="80px" height="80px" viewBox="0 0 80 80" style="enable-background:new 0 0 80 80;" xml:space="preserve">
<style type="text/css">
	.st0{fill:none;stroke:#000000;stroke-width:2;stroke-linecap:round;stroke-miterlimit:10;}
	.st1{fill:none;stroke:#FF5555;stroke-width:2;stroke-linecap:round;stroke-miterlimit:10;}
</style>
<path class="st0" d="M4,75h15.3l11.8-11.8H54l15.1-15.1h5.7V75"/>
<path class="st0" d="M36.4,27.2c3.8,0,7-3.1,7-6.9c0-3.8-3.1-6.9-7-6.9s-7,3.1-7,6.9C29.5,24.1,32.6,27.2,36.4,27.2z"/>
<path class="st1" d="M68.1,19.4c4,0,7.2-3.2,7.2-7.2c0-4-3.2-7.2-7.2-7.2s-7.2,3.2-7.2,7.2C60.9,16.2,64.1,19.4,68.1,19.4z"/>
<path class="st0" d="M35.6,34.2l-4.7,9.3"/>
<path class="st1" d="M16.9,45.7l-1.5-1.5c-1.2-1.2-1.9-2.7-2.2-4.3c-0.3-1.6,0-3.3,0.7-4.8l3.4-6.8l0.6-1.1c0.3-0.6,0.7-1.1,1.2-1.6
	c0.5-0.4,1.1-0.8,1.7-1c0.6-0.2,1.3-0.3,2-0.2c0.7,0.1,1.3,0.2,1.9,0.5l2.8,1.4"/>
<path class="st1" d="M18.1,27.2l6.5,3.1"/>
<path class="st0" d="M42.5,63c0,0-0.9-4.9-5.3-6.5v-9.6c0-0.9-0.4-1.7-1-2.3c-0.6-0.6-1.5-1-2.4-1H18"/>
<path class="st0" d="M31.1,63.2V49.4h-7.3v7.2l-9.1,9.1c0,0,1.7,4.9-1.5,8L6,66.4l12-11.9l-0.6-0.6c-2.6-4.1-0.6-7.6-0.6-7.6
	L25.4,29c0.7-1.3,1.8-2.3,3.2-2.8c1.4-0.5,2.9-0.4,4.3,0.2l11.1,5.2h11.4c0.4,0,0.8,0.1,1.2,0.2c0.4,0.2,0.7,0.4,1,0.7
	c0.3,0.3,0.5,0.6,0.7,1c0.2,0.4,0.2,0.8,0.2,1.2c0,0.8-0.3,1.6-0.9,2.1c-0.6,0.6-1.3,0.9-2.1,0.9H43l-10.5-4.9"/>
<path class="st0" d="M14.6,65.6l-3.9-3.9"/>
<path class="st0" d="M37,56.4h-5.7"/>
<path class="st0" d="M54.5,22.6v8.8"/>
<path class="st0" d="M54.5,37.7v25"/>
</svg>
