<?xml version="1.0" encoding="utf-8"?>
<!-- Generator: Adobe Illustrator 23.0.1, SVG Export Plug-In . SVG Version: 6.00 Build 0)  -->
<svg version="1.1" id="Слой_1" xmlns="http://www.w3.org/2000/svg" xmlns:xlink="http://www.w3.org/1999/xlink" x="0px" y="0px"
	 width="80px" height="80px" viewBox="0 0 80 80" style="enable-background:new 0 0 80 80;" xml:space="preserve">
<style type="text/css">
	.st0{fill:none;stroke:#000000;stroke-width:2;stroke-linecap:round;stroke-miterlimit:10;}
	.st1{fill:none;stroke:#FF5555;stroke-width:2;stroke-linecap:round;stroke-miterlimit:10;}
</style>
<path class="st0" d="M60.5,52.6l-2.6,1.1"/>
<path class="st0" d="M19.5,52.6l2.9,1.2"/>
<path class="st0" d="M31.6,26.9v-2c0-0.5,0.2-1,0.6-1.4c0.4-0.4,0.9-0.6,1.4-0.6h6.3c0,0,5-0.3,9.1,2.9"/>
<path class="st0" d="M52.3,29.2c0.7-1.3,1.1-2.8,1.1-4.2V14.8c0-0.3-0.1-0.7-0.2-1c-0.1-0.3-0.3-0.6-0.6-0.8
	c-0.2-0.2-0.5-0.4-0.8-0.6c-0.3-0.1-0.7-0.2-1-0.2H35.7c-4.9,0-8.9,3.8-8.9,8.7v4c0,1.5,0.4,2.9,1.1,4.2l0,0.4v3.2
	c0,3.2,1.3,6.3,3.6,8.6c2.3,2.3,5.4,3.6,8.7,3.6c1.6,0,3.2-0.3,4.7-0.9c1.5-0.6,2.8-1.5,4-2.6c1.1-1.1,2-2.5,2.7-3.9
	c0.6-1.5,0.9-3.1,0.9-4.6v-3.2L52.3,29.2z"/>
<path class="st0" d="M32.9,42.7v4.6"/>
<path class="st0" d="M47.3,42.7v4.6"/>
<path class="st1" d="M40.2,52.4v15.2"/>
<path class="st1" d="M53.6,60.9v6.7"/>
<path class="st1" d="M26.8,60.9v6.7"/>
<path class="st1" d="M30.9,50.3l-7.7,3.1c-1,0.4-1.8,1.1-2.4,1.9c-0.6,0.9-0.9,1.9-0.9,2.9v9.5"/>
<path class="st1" d="M49.6,50.3l7.7,3.1c1,0.4,1.8,1.1,2.4,1.9c0.6,0.9,0.9,1.9,0.9,2.9v9.5"/>
<path class="st1" d="M30.5,49.7c0.1-0.1,2.6-2.5,2.6-2.5l7.2,4.8l-3.6,3.6c-0.1,0.1-0.3,0.2-0.4,0.3C36,56,35.8,56,35.6,56
	c-0.2,0-0.4-0.1-0.5-0.2c-0.2-0.1-0.3-0.2-0.4-0.4L30.5,49.7z"/>
<path class="st1" d="M49.9,49.7c-0.1-0.1-2.6-2.5-2.6-2.5l-7.2,4.8l3.6,3.6c0.1,0.1,0.3,0.2,0.4,0.3c0.2,0.1,0.3,0.1,0.5,0.1
	c0.2,0,0.4-0.1,0.5-0.2s0.3-0.2,0.4-0.4L49.9,49.7z"/>
<path class="st0" d="M61.6,36.5H65c0,0,3.2-0.2,5.6,1.7"/>
<path class="st0" d="M73.1,40.2c0.4-0.8,0.6-1.6,0.6-2.5v-5.9c0-0.4-0.2-0.8-0.4-1.1c-0.3-0.3-0.7-0.4-1.1-0.4h-8.9
	c-2.9,0-5.2,2.2-5.2,5.1v2.3c0,0.9,0.2,1.7,0.6,2.5v0.2v1.9c0,0.9,0.2,1.9,0.5,2.7c0.4,0.9,0.9,1.7,1.6,2.3c0.7,0.7,1.5,1.2,2.3,1.5
	c0.9,0.4,1.8,0.5,2.8,0.5l0,0c1.9,0,3.7-0.8,5.1-2.1c1.3-1.3,2.1-3.1,2.1-5v-1.9L73.1,40.2z"/>
<path class="st0" d="M60.2,52.3c0.1-0.1,1.5-1.4,1.5-1.4l4.2,2.8l-2.1,2.1c-0.1,0.1-0.2,0.1-0.3,0.2c-0.1,0-0.2,0.1-0.3,0
	c-0.1,0-0.2,0-0.3-0.1c-0.1-0.1-0.2-0.1-0.2-0.2L60.2,52.3z"/>
<path class="st0" d="M71.6,52.3c-0.1-0.1-1.5-1.4-1.5-1.4l-4.2,2.8l2.1,2.1c0.1,0.1,0.2,0.1,0.3,0.2c0.1,0,0.2,0.1,0.3,0
	c0.1,0,0.2,0,0.3-0.1c0.1-0.1,0.2-0.1,0.2-0.2L71.6,52.3z"/>
<path class="st0" d="M61.7,48.1v2.7"/>
<path class="st0" d="M70.1,48.1v2.7"/>
<path class="st0" d="M66,53.8v13.7"/>
<path class="st0" d="M73.3,63.1v4.6"/>
<path class="st0" d="M71.5,52.6l3.9,1.6c0.8,0.3,1.4,0.8,1.9,1.5c0.5,0.7,0.7,1.5,0.7,2.3v9.7"/>
<path class="st0" d="M21.3,42.3c0,0.9-0.2,1.9-0.5,2.7c-0.4,0.9-0.9,1.7-1.6,2.3c-0.7,0.7-1.5,1.2-2.3,1.5c-0.9,0.4-1.8,0.5-2.8,0.5
	l0,0c-0.9,0-1.9-0.2-2.8-0.5C10.4,48.5,9.7,48,9,47.3c-0.7-0.7-1.2-1.4-1.6-2.3c-0.4-0.9-0.5-1.8-0.5-2.7"/>
<path class="st0" d="M9.9,48.1v3.6c0,0.3-0.1,0.5-0.2,0.7c-0.1,0.2-0.4,0.4-0.6,0.5L8.8,53"/>
<path class="st0" d="M18.1,48.1v3.6c0,0.3,0.1,0.5,0.2,0.7c0.1,0.2,0.4,0.4,0.6,0.5l0.3,0.1"/>
<path class="st0" d="M14,56.3v11.2"/>
<path class="st0" d="M6.7,63.1v4.6"/>
<path class="st0" d="M2.1,67.6V58c0-0.8,0.2-1.6,0.7-2.3c0.5-0.7,1.1-1.2,1.9-1.5l3.9-1.6c0,0,1.2,3.7,5.5,3.7"/>
<path class="st0" d="M19.6,52.6c0,0-1.2,3.7-5.5,3.7"/>
<path class="st0" d="M19.6,52.6c3.4-0.8,5.4-4.1,5.4-4.1s-1.8-2.5-1.8-10.3c0-0.9-0.1-1.9-0.4-2.8c-2.5-8.7-15.1-8.7-17.6,0
	c-0.3,0.9-0.4,1.9-0.4,2.8c0,7.8-1.8,10.3-1.8,10.3s2,3.4,5.5,4.1"/>
<path class="st0" d="M8.8,38.9l2.3-2.3c0,0,5.2-1.1,10.2,4.4"/>
</svg>
