<?xml version="1.0" encoding="utf-8"?>
<!-- Generator: Adobe Illustrator 23.0.1, SVG Export Plug-In . SVG Version: 6.00 Build 0)  -->
<svg version="1.1" id="Слой_1" xmlns="http://www.w3.org/2000/svg" xmlns:xlink="http://www.w3.org/1999/xlink" x="0px" y="0px"
	 width="80px" height="80px" viewBox="0 0 80 80" style="enable-background:new 0 0 80 80;" xml:space="preserve">
<style type="text/css">
	.st0{fill:none;stroke:#000000;stroke-width:2;stroke-linecap:round;stroke-miterlimit:10;}
	.st1{fill:none;stroke:#FF5555;stroke-width:2;stroke-linecap:round;stroke-miterlimit:10;}
</style>
<path class="st0" d="M46.7,52.9c0.7,0.3,1.3,0.8,1.8,1.4c0.5,0.6,0.9,1.3,1.1,2c0.8,2.5,5.7,6,11.2,2.4c5.5-3.6,3.2-10.2,1.5-11.9
	c2.6-1,5.6-4.6,5.2-8.6c-0.4-3.9-3.1-7.3-6-8.3c0.8-2.3,0.9-6.5-3.2-9c-4.1-2.5-7-1.4-9.5,1.7c-2.5,3.2-3.9,2.1-3.9,2.1"/>
<path class="st0" d="M53.8,19.6c0,0-0.5-6.9-7.4-7.2c-5.3-0.2-6.4,4.7-6.4,4.7v44.9c0,0,1.4,5.3,7.3,5.3s7-7,7-7.4"/>
<path class="st0" d="M33.2,52.9c-0.7,0.3-1.3,0.8-1.8,1.4c-0.5,0.6-0.9,1.3-1.1,2c-0.8,2.5-5.7,6-11.2,2.4
	c-5.5-3.6-3.2-10.2-1.5-11.9c-2.6-1-5.6-4.6-5.2-8.6c0.4-3.9,3.1-7.3,6-8.3c-0.8-2.3-0.9-6.5,3.2-9s7-1.4,9.5,1.7s3.9,2.1,3.9,2.1"
	/>
<path class="st0" d="M40,61.9c0,0-1.4,5.3-7.3,5.3c-5.9,0-7-7-7-7.4"/>
<path class="st0" d="M26.1,19.6c0,0,0.5-6.9,7.4-7.2c5.3-0.2,6.4,4.7,6.4,4.7"/>
<path class="st0" d="M39.9,31.6c0,0,4.9-0.5,7.8,4c1.5,2.5,4.7,2.8,4.7,2.8"/>
<path class="st0" d="M50.1,46.6c-3.3-7.1-10.2-3.2-10.2,0"/>
<path class="st0" d="M26.1,32.4c0,0,3.8-0.3,5.4,4.5c1.6,4.9,8.3,4.5,8.3,4.5"/>
<path class="st0" d="M27.7,42.9c0,0,3.7,0.2,5.6-3.4"/>
<path class="st1" d="M22.9,42.5l-0.5-0.1"/>
<path class="st1" d="M57.4,37.5l0.5-0.1"/>
<path class="st1" d="M39.9,2.5v2.8"/>
<path class="st1" d="M39.9,74.4v2.8"/>
<path class="st1" d="M58.6,7.5l-1.4,2.4"/>
<path class="st1" d="M22.6,69.8l-1.4,2.4"/>
<path class="st1" d="M72.2,21.2l-2.4,1.4"/>
<path class="st1" d="M9.9,57.2l-2.4,1.4"/>
<path class="st1" d="M77.2,39.8l-2.8,0"/>
<path class="st1" d="M5.3,40l-2.8,0"/>
<path class="st1" d="M72.2,58.5l-2.4-1.4"/>
<path class="st1" d="M9.9,22.6l-2.4-1.4"/>
<path class="st1" d="M58.6,72.2l-1.4-2.4"/>
<path class="st1" d="M22.5,10l-1.4-2.4"/>
</svg>
