<svg width="70" height="62" viewBox="0 0 70 62" fill="none" xmlns="http://www.w3.org/2000/svg">
<path d="M66.7188 0H3.28125C1.47219 0 0 1.47219 0 3.28125V60.1606C0 60.7655 0.488906 61.2544 1.09375 61.2544H68.9062C69.5111 61.2544 70 60.7655 70 60.1606V3.28125C70 1.47219 68.5278 0 66.7188 0ZM2.1875 6.5625H67.8125V59.0669H2.1875V6.5625ZM3.28125 2.1875H4.39469C3.79203 2.18969 3.30859 2.6775 3.30859 3.28125C3.30859 3.885 3.80297 4.375 4.40781 4.375C5.01156 4.375 5.50156 3.885 5.50156 3.28125C5.50156 2.67859 5.01266 2.18969 4.41109 2.1875H7.67375C7.07219 2.18969 6.58875 2.6775 6.58875 3.28125C6.58875 3.885 7.08312 4.375 7.68797 4.375C8.29172 4.375 8.78172 3.885 8.78172 3.28125C8.78172 2.67859 8.29281 2.18969 7.69016 2.1875H10.9583C10.3567 2.18969 9.87328 2.6775 9.87328 3.28125C9.87328 3.885 10.3677 4.375 10.9725 4.375C11.5762 4.375 12.0662 3.885 12.0662 3.28125C12.0662 2.67859 11.5773 2.18969 10.9758 2.1875H66.7188C67.3225 2.1875 67.8125 2.67859 67.8125 3.28125V4.375H2.1875V3.28125C2.1875 2.67859 2.6775 2.1875 3.28125 2.1875Z" fill="black"/>
<path d="M64.5311 54.6897H6.56348V9.84595C6.56348 9.2422 6.07457 8.7522 5.46973 8.7522C4.86488 8.7522 4.37598 9.2422 4.37598 9.84595V55.7834C4.37598 56.3883 4.86488 56.8772 5.46973 56.8772H64.5311C65.136 56.8772 65.6249 56.3883 65.6249 55.7834C65.6249 55.1786 65.136 54.6897 64.5311 54.6897Z" fill="black"/>
<path d="M9.84486 52.4989C10.3742 52.4989 10.8172 52.1216 10.9167 51.6217C10.9834 51.3319 12.2117 46.2186 16.1558 41.2727C16.567 41.4586 17.0199 41.568 17.5 41.568C19.3091 41.568 20.7813 40.0947 20.7813 38.2856C20.7813 37.8262 20.685 37.3909 20.5144 36.9928C24.3228 34.0605 28.9034 32.3422 34.1578 31.8719C34.65 33.063 35.8214 33.9041 37.1886 33.9041C38.6674 33.9041 39.9044 32.9153 40.3134 31.5689C46.1256 31.0778 51.1908 29.1659 55.3941 25.8748C55.8403 26.1034 56.3391 26.2445 56.875 26.2445C58.6841 26.2445 60.1563 24.7723 60.1563 22.9622C60.1563 22.4459 60.0261 21.9647 59.8139 21.5294C64.2119 16.0858 65.6261 10.2452 65.6261 9.84156C65.6261 9.23781 65.1372 8.74781 64.5324 8.74781C64.0019 8.74781 63.5589 9.12515 63.4605 9.62718C63.3927 9.9225 62.1764 15.05 58.2477 19.9905C57.8288 19.7958 57.3661 19.6798 56.875 19.6798C55.0659 19.6798 53.5938 21.152 53.5938 22.9622C53.5938 23.4336 53.6977 23.8787 53.877 24.2845C50.0697 27.2103 45.4847 28.922 40.2238 29.3825C39.7338 28.187 38.5602 27.3416 37.1897 27.3416C35.7088 27.3416 34.4684 28.3336 34.0616 29.6844C28.2669 30.1853 23.2138 32.1005 19.0138 35.3883C18.5588 35.1498 18.0491 35.0011 17.5011 35.0011C15.692 35.0011 14.2199 36.4744 14.2199 38.2834C14.2199 38.8106 14.3566 39.3039 14.5797 39.7458C10.1719 45.1937 8.7522 51.0037 8.7522 51.403C8.75111 52.01 9.24001 52.4989 9.84486 52.4989ZM56.875 21.8684C57.4788 21.8684 57.9688 22.3595 57.9688 22.9633C57.9688 23.567 57.4788 24.0581 56.875 24.0581C56.2713 24.0581 55.7813 23.567 55.7813 22.9633C55.7813 22.3595 56.2713 21.8684 56.875 21.8684ZM37.1886 29.5302C37.7924 29.5302 38.2824 30.0212 38.2824 30.6239C38.2824 31.2266 37.7924 31.7177 37.1886 31.7177C36.5849 31.7177 36.0949 31.2266 36.0949 30.6239C36.0949 30.0212 36.5849 29.5302 37.1886 29.5302ZM17.5 37.1908C18.1038 37.1908 18.5938 37.6819 18.5938 38.2856C18.5938 38.8894 18.1038 39.3805 17.5 39.3805C16.8963 39.3805 16.4063 38.8894 16.4063 38.2856C16.4063 37.6819 16.8963 37.1908 17.5 37.1908Z" fill="#0071B3"/>
<path d="M49.245 45.9397H49.2329C48.6292 45.9397 48.1458 46.4286 48.1458 47.0334C48.1458 47.6383 48.6401 48.1272 49.245 48.1272C49.8487 48.1272 50.3387 47.6383 50.3387 47.0334C50.3387 46.4286 49.8487 45.9397 49.245 45.9397Z" fill="black"/>
<path d="M64.5247 45.9397H52.4934C51.8886 45.9397 51.3997 46.4286 51.3997 47.0334C51.3997 47.6383 51.8886 48.1272 52.4934 48.1272H64.5247C65.1295 48.1272 65.6184 47.6383 65.6184 47.0334C65.6184 46.4286 65.1295 45.9397 64.5247 45.9397Z" fill="black"/>
<path d="M49.245 41.5626H49.2329C48.6292 41.5626 48.1458 42.0515 48.1458 42.6564C48.1458 43.2612 48.6401 43.7501 49.245 43.7501C49.8487 43.7501 50.3387 43.2612 50.3387 42.6564C50.3387 42.0515 49.8487 41.5626 49.245 41.5626Z" fill="black"/>
<path d="M64.5247 41.5626H52.4934C51.8886 41.5626 51.3997 42.0515 51.3997 42.6564C51.3997 43.2612 51.8886 43.7501 52.4934 43.7501H64.5247C65.1295 43.7501 65.6184 43.2612 65.6184 42.6564C65.6184 42.0515 65.1295 41.5626 64.5247 41.5626Z" fill="black"/>
<path d="M49.245 50.3147H49.2329C48.6292 50.3147 48.1458 50.8036 48.1458 51.4084C48.1458 52.0133 48.6401 52.5022 49.245 52.5022C49.8487 52.5022 50.3387 52.0133 50.3387 51.4084C50.3387 50.8036 49.8487 50.3147 49.245 50.3147Z" fill="black"/>
<path d="M64.5247 50.3147H52.4934C51.8886 50.3147 51.3997 50.8036 51.3997 51.4084C51.3997 52.0133 51.8886 52.5022 52.4934 52.5022H64.5247C65.1295 52.5022 65.6184 52.0133 65.6184 51.4084C65.6184 50.8036 65.1295 50.3147 64.5247 50.3147Z" fill="black"/>
<path d="M27.3469 24.0625H34.7407L36.6985 25.0414C36.8527 25.118 37.02 25.1562 37.1874 25.1562C37.3547 25.1562 37.5232 25.118 37.6763 25.0414L39.6341 24.0625H47.03C47.6349 24.0625 48.1238 23.5725 48.1238 22.9687V14.2188C48.1238 13.615 47.6349 13.125 47.03 13.125H27.3469C26.7421 13.125 26.2532 13.615 26.2532 14.2188V22.9687C26.2532 23.5725 26.7421 24.0625 27.3469 24.0625ZM28.4407 15.3125H45.9363V21.875H39.376C39.2064 21.875 39.038 21.9144 38.8871 21.9898L37.1874 22.8397L35.4877 21.9909C35.3357 21.9155 35.1683 21.8761 34.9988 21.8761H28.4407V15.3125Z" fill="black"/>
<path d="M43.75 18.5937C43.75 17.99 43.2611 17.5 42.6562 17.5H31.7188C31.1139 17.5 30.625 17.99 30.625 18.5937C30.625 19.1975 31.1139 19.6875 31.7188 19.6875H42.6562C43.2611 19.6875 43.75 19.1975 43.75 18.5937Z" fill="black"/>
</svg>
