<svg width="70" height="70" viewBox="0 0 70 70" fill="none" xmlns="http://www.w3.org/2000/svg">
<path d="M66.5 0H3.5C2.57174 0 1.6815 0.368749 1.02513 1.02513C0.368749 1.6815 0 2.57174 0 3.5V66.5C0 67.4283 0.368749 68.3185 1.02513 68.9749C1.6815 69.6312 2.57174 70 3.5 70H66.5C67.4283 70 68.3185 69.6312 68.9749 68.9749C69.6312 68.3185 70 67.4283 70 66.5V3.5C70 2.57174 69.6312 1.6815 68.9749 1.02513C68.3185 0.368749 67.4283 0 66.5 0ZM67.6667 66.5C67.6667 66.8094 67.5437 67.1062 67.325 67.325C67.1062 67.5437 66.8094 67.6667 66.5 67.6667H3.5C3.19058 67.6667 2.89383 67.5437 2.67504 67.325C2.45625 67.1062 2.33333 66.8094 2.33333 66.5V11.6667H67.6667V66.5ZM2.33333 9.33333V3.5C2.33333 3.19058 2.45625 2.89383 2.67504 2.67504C2.89383 2.45625 3.19058 2.33333 3.5 2.33333H66.5C66.8094 2.33333 67.1062 2.45625 67.325 2.67504C67.5437 2.89383 67.6667 3.19058 67.6667 3.5V9.33333H2.33333Z" fill="black"/>
<path d="M5.00508 5.005C4.79019 5.22746 4.66905 5.52403 4.66675 5.83333C4.66859 5.98579 4.7003 6.13641 4.76008 6.27667C4.81363 6.42087 4.89713 6.55209 5.00508 6.66167C5.22477 6.88135 5.52273 7.00477 5.83341 7.00477C6.1441 7.00477 6.44206 6.88135 6.66175 6.66167C6.88144 6.44198 7.00485 6.14402 7.00485 5.83333C7.00485 5.52265 6.88144 5.22469 6.66175 5.005C6.43613 4.79682 6.1404 4.68123 5.83341 4.68123C5.52643 4.68123 5.2307 4.79682 5.00508 5.005Z" fill="#0071B3"/>
<path d="M9.67159 5.005C9.45859 5.2287 9.33778 5.52449 9.33325 5.83333C9.33524 5.91158 9.34304 5.98957 9.35659 6.06667C9.36929 6.13977 9.39288 6.21056 9.42659 6.27667C9.45208 6.35103 9.4874 6.42165 9.53159 6.48667C9.57465 6.54779 9.6214 6.60623 9.67159 6.66167C9.89274 6.87856 10.1902 7.00006 10.4999 7.00006C10.8097 7.00006 11.1071 6.87856 11.3283 6.66167L11.4683 6.48667C11.5124 6.42165 11.5478 6.35103 11.5733 6.27667C11.607 6.21056 11.6305 6.13977 11.6433 6.06667C11.6568 5.98957 11.6646 5.91158 11.6666 5.83333C11.6679 5.6016 11.6002 5.37472 11.4721 5.18162C11.344 4.98851 11.1613 4.83793 10.9473 4.74907C10.7333 4.66021 10.4977 4.63709 10.2705 4.68267C10.0433 4.72826 9.83477 4.84047 9.67159 5.005Z" fill="#0071B3"/>
<path d="M14.3384 5.005C14.1215 5.22616 14 5.52357 14 5.83333C14 6.1431 14.1215 6.44051 14.3384 6.66167C14.4472 6.77044 14.5763 6.85673 14.7184 6.9156C14.8606 6.97447 15.0129 7.00477 15.1667 7.00477C15.3206 7.00477 15.4729 6.97447 15.615 6.9156C15.7571 6.85673 15.8863 6.77044 15.9951 6.66167C16.1038 6.55289 16.1901 6.42375 16.249 6.28162C16.3079 6.1395 16.3382 5.98717 16.3382 5.83333C16.3382 5.6795 16.3079 5.52717 16.249 5.38504C16.1901 5.24292 16.1038 5.11378 15.9951 5.005C15.7694 4.79682 15.4737 4.68123 15.1667 4.68123C14.8597 4.68123 14.564 4.79682 14.3384 5.005Z" fill="#0071B3"/>
<path d="M65.3334 14H4.66675V30.3333H65.3334V14ZM63.0001 28H7.00008V16.3333H63.0001V28Z" fill="#0071B3"/>
<path d="M25.6667 32.6667H4.66675V45.3333H25.6667V32.6667ZM23.3334 43H7.00008V35H23.3334V43Z" fill="black"/>
<path d="M25.6667 48H4.66675V60.6667H25.6667V48ZM23.3334 58.3333H7.00008V50.3333H23.3334V58.3333Z" fill="black"/>
<path d="M28 60.8333H65.3333V32.6667H28V60.8333ZM30.3333 35H63V58.5H30.3333V35Z" fill="#0071B3"/>
</svg>
