<svg width="70" height="70" viewBox="0 0 70 70" fill="none" xmlns="http://www.w3.org/2000/svg">
<path d="M68.9039 55.9707C69.5093 55.9707 70 55.4802 70 54.8747V16.2944C70 16.0037 69.8846 15.7251 69.6791 15.5194L57.9882 3.8284C57.7824 3.62291 57.5038 3.50752 57.2131 3.50752H32.5887V3.28809C32.5887 1.47506 31.1136 0 29.3006 0H3.28809C1.47506 0 0 1.47506 0 3.28809V38.6534C0 40.4664 1.47506 41.9415 3.28809 41.9415H11.691V68.9039C11.691 69.5093 12.1815 70 12.787 70H68.9039C69.5093 70 70 69.5095 70 68.9039V60.7202C70 60.1148 69.5095 59.6241 68.9039 59.6241C68.2985 59.6241 67.8079 60.1147 67.8079 60.7202V67.8079H13.8831V41.9415H29.3006C31.1136 41.9415 32.5887 40.4664 32.5887 38.6534V19.801C32.5887 19.1956 32.0981 18.7049 31.4926 18.7049C30.8871 18.7049 30.3965 19.1954 30.3965 19.801V38.6535C30.3965 39.258 29.9049 39.7496 29.3005 39.7496H3.28809C2.68365 39.7496 2.19201 39.258 2.19201 38.6535V3.28809C2.19201 2.68365 2.68365 2.19201 3.28809 2.19201H29.3006C29.905 2.19201 30.3967 2.68365 30.3967 3.28809V13.9561C30.3967 14.5615 30.8872 15.0522 31.4928 15.0522C32.0983 15.0522 32.5888 14.5616 32.5888 13.9561V5.69939H56.1207C56.1191 5.72359 56.117 5.74779 56.117 5.7724V16.2943C56.117 16.8997 56.6076 17.3904 57.2131 17.3904H67.735C67.7597 17.3904 67.7838 17.3883 67.808 17.3867V54.8748C67.808 55.4802 68.2985 55.9707 68.9039 55.9707ZM58.309 15.1983V7.24937L66.258 15.1983H58.309Z" fill="black"/>
<path d="M27.1086 50.2714H19.8016C19.1963 50.2714 18.7056 50.7619 18.7056 51.3674C18.7056 51.9728 19.1961 52.4635 19.8016 52.4635H27.1086C27.714 52.4635 28.2046 51.973 28.2046 51.3674C28.2045 50.762 27.714 50.2714 27.1086 50.2714Z" fill="black"/>
<path d="M27.1086 56.1169H19.8016C19.1963 56.1169 18.7056 56.6075 18.7056 57.213C18.7056 57.8184 19.1961 58.3091 19.8016 58.3091H27.1086C27.714 58.3091 28.2046 57.8185 28.2046 57.213C28.2045 56.6075 27.714 56.1169 27.1086 56.1169Z" fill="black"/>
<path d="M49.0291 33.9039C44.5494 33.9039 40.3738 35.6844 37.2712 38.9175C36.852 39.3543 36.8662 40.048 37.303 40.4672C37.74 40.8865 38.4337 40.8722 38.8528 40.4354C41.538 37.6371 45.1522 36.096 49.0291 36.096C56.8052 36.096 63.1314 42.4223 63.1314 50.1983C63.1314 57.9743 56.8052 64.3006 49.0291 64.3006C41.2531 64.3006 34.9269 57.9743 34.9269 50.1983C34.9269 47.9017 35.4612 45.7122 36.515 43.6904C36.7947 43.1535 36.5864 42.4916 36.0497 42.2118C35.513 41.9324 34.851 42.1404 34.5711 42.6771C33.3699 44.9821 32.7349 47.5829 32.7349 50.1983C32.7349 59.1831 40.0445 66.4927 49.0293 66.4927C58.014 66.4927 65.3237 59.1831 65.3237 50.1983C65.3237 41.2136 58.0138 33.9039 49.0291 33.9039Z" fill="#0071B3"/>
<path d="M51.5314 49.2484L49.8329 49.1983V43.1105H53.7056C54.311 43.1105 54.8017 42.62 54.8017 42.0145C54.8017 41.4091 54.3111 40.9184 53.7056 40.9184H49.8329V39.6762C49.8329 39.0708 49.3424 38.5801 48.7368 38.5801C48.1314 38.5801 47.6408 39.0706 47.6408 39.6762V40.9184H46.5447C44.7317 40.9184 43.2566 42.3934 43.2566 44.2065V48.006C43.2566 49.813 44.7221 51.2845 46.5269 51.2941L47.6408 51.3268V57.2857H44.3527C43.7473 57.2857 43.2566 57.7762 43.2566 58.3817C43.2566 58.9871 43.7471 59.4778 44.3527 59.4778H47.6408V60.72C47.6408 61.3254 48.1313 61.8161 48.7368 61.8161C49.3422 61.8161 49.8329 61.3256 49.8329 60.72V59.4778H51.5134C53.3265 59.4778 54.8015 58.0028 54.8015 56.1897V52.5363C54.8017 50.7295 53.3362 49.2581 51.5314 49.2484ZM47.6409 49.1339L46.5772 49.1026C46.5666 49.1024 46.5558 49.1022 46.545 49.1022C45.9405 49.1022 45.4489 48.6106 45.4489 48.0062V44.2066C45.4489 43.6022 45.9405 43.1105 46.545 43.1105H47.641V49.1339H47.6409ZM52.6097 56.19C52.6097 56.7944 52.118 57.2861 51.5136 57.2861H49.833V51.3916L51.4813 51.4401C51.492 51.4404 51.5028 51.4405 51.5136 51.4405C52.118 51.4405 52.6097 51.9322 52.6097 52.5366V56.19Z" fill="#0071B3"/>
<path d="M27.9854 3.50726H4.6034C3.99801 3.50726 3.50732 3.99781 3.50732 4.60334V10.4489C3.50732 11.0543 3.99787 11.545 4.6034 11.545H27.9854C28.5908 11.545 29.0815 11.0544 29.0815 10.4489V4.60334C29.0815 3.99795 28.591 3.50726 27.9854 3.50726ZM26.8894 9.35281H5.69947V5.69941H26.8895V9.35281H26.8894Z" fill="black"/>
<path d="M9.27986 12.8602H4.6034C3.99801 12.8602 3.50732 13.3507 3.50732 13.9563V18.6327C3.50732 19.2381 3.99787 19.7288 4.6034 19.7288H9.27986C9.88525 19.7288 10.3759 19.2383 10.3759 18.6327V13.9563C10.3758 13.3507 9.88525 12.8602 9.27986 12.8602ZM8.18379 17.5365H5.69947V15.0522H8.18379V17.5365Z" fill="black"/>
<path d="M18.6324 12.8602H13.9559C13.3505 12.8602 12.8599 13.3507 12.8599 13.9563V18.6327C12.8599 19.2381 13.3504 19.7288 13.9559 19.7288H18.6324C19.2378 19.7288 19.7285 19.2383 19.7285 18.6327V13.9563C19.7285 13.3507 19.2378 12.8602 18.6324 12.8602ZM17.5363 17.5365H15.052V15.0522H17.5363V17.5365Z" fill="black"/>
<path d="M27.9854 12.8602H23.309C22.7036 12.8602 22.2129 13.3507 22.2129 13.9563V18.6327C22.2129 19.2381 22.7034 19.7288 23.309 19.7288H27.9854C28.5908 19.7288 29.0815 19.2383 29.0815 18.6327V13.9563C29.0815 13.3507 28.591 12.8602 27.9854 12.8602ZM26.8894 17.5365H24.405V15.0522H26.8894V17.5365Z" fill="black"/>
<path d="M9.27986 22.2129H4.6034C3.99801 22.2129 3.50732 22.7035 3.50732 23.309V27.9855C3.50732 28.5909 3.99787 29.0815 4.6034 29.0815H9.27986C9.88525 29.0815 10.3759 28.591 10.3759 27.9855V23.309C10.3758 22.7035 9.88525 22.2129 9.27986 22.2129ZM8.18379 26.8892H5.69947V24.4049H8.18379V26.8892Z" fill="black"/>
<path d="M18.6324 22.2129H13.9559C13.3505 22.2129 12.8599 22.7035 12.8599 23.309V27.9855C12.8599 28.5909 13.3504 29.0815 13.9559 29.0815H18.6324C19.2378 29.0815 19.7285 28.591 19.7285 27.9855V23.309C19.7285 22.7035 19.2378 22.2129 18.6324 22.2129ZM17.5363 26.8892H15.052V24.4049H17.5363V26.8892Z" fill="black"/>
<path d="M9.27986 31.5658H4.6034C3.99801 31.5658 3.50732 32.0563 3.50732 32.6618V37.3383C3.50732 37.9437 3.99787 38.4344 4.6034 38.4344H9.27986C9.88525 38.4344 10.3759 37.9438 10.3759 37.3383V32.6618C10.3758 32.0563 9.88525 31.5658 9.27986 31.5658ZM8.18379 36.2422H5.69947V33.7579H8.18379V36.2422Z" fill="black"/>
<path d="M18.6324 31.5658H13.9559C13.3505 31.5658 12.8599 32.0563 12.8599 32.6618V37.3383C12.8599 37.9437 13.3504 38.4344 13.9559 38.4344H18.6324C19.2378 38.4344 19.7285 37.9438 19.7285 37.3383V32.6618C19.7285 32.0563 19.2378 31.5658 18.6324 31.5658ZM17.5363 36.2422H15.052V33.7579H17.5363V36.2422Z" fill="black"/>
<path d="M27.9854 22.2129H23.309C22.7036 22.2129 22.2129 22.7035 22.2129 23.309V37.3382C22.2129 37.9436 22.7034 38.4343 23.309 38.4343H27.9854C28.5908 38.4343 29.0815 37.9438 29.0815 37.3382V23.309C29.0815 22.7035 28.591 22.2129 27.9854 22.2129ZM26.8894 36.2422H24.405V24.4051H26.8894V36.2422Z" fill="black"/>
<path d="M64.982 25.8454L59.0118 20.176C58.5731 19.7591 57.8793 19.7772 57.4624 20.2161C57.0454 20.655 57.0635 21.3487 57.5024 21.7655L62.6569 26.6603L61.7471 27.5701L45.989 11.8113C45.8359 11.6583 45.6411 11.554 45.4289 11.5116L41.3675 10.6994L39.4123 8.54346C39.0056 8.09489 38.3121 8.06098 37.8641 8.46772C37.4158 8.87432 37.3819 9.56735 37.7884 10.0159C37.7884 10.0159 40.0421 12.4819 40.117 12.5313L40.8323 16.108C40.8747 16.3202 40.979 16.515 41.132 16.6681L58.5958 34.132C59.2368 34.773 60.0787 35.0933 60.9208 35.0933C61.7628 35.0933 62.6048 34.773 63.2457 34.132C63.2457 34.132 63.2457 34.132 63.2458 34.132L63.4524 33.9253C64.7342 32.6433 64.7342 30.5572 63.4524 29.2754L63.2974 29.1203L65.0024 27.4153C65.4321 26.9855 65.4228 26.2637 64.982 25.8454ZM42.9167 15.353L42.4777 13.157L44.6735 13.5962L55.2373 24.1602L53.4807 25.9167L42.9167 15.353ZM61.9026 32.3752L61.6961 32.5818C61.2685 33.0089 60.5733 33.0093 60.146 32.5818L55.0311 27.4667L56.7875 25.7102L61.9026 30.8252C62.33 31.2525 62.3298 31.9478 61.9026 32.3752Z" fill="black"/>
</svg>
