<svg width="51" height="70" viewBox="0 0 51 70" fill="none" xmlns="http://www.w3.org/2000/svg">
<path d="M49.2251 9.84384L45.962 9.82555C45.9598 9.82555 45.9578 9.82555 45.9557 9.82555C45.9496 9.82555 45.9437 9.82641 45.9377 9.82641V7.65616C45.9377 7.05209 45.4481 6.56232 44.844 6.56232H41.5628V4.37507C41.5628 3.771 41.0731 3.28137 40.4691 3.28137H13.2402C13.1011 1.44874 11.5666 0 9.69911 0C7.83147 0 6.29715 1.44874 6.15799 3.28123H1.0937C0.489627 3.28123 0 3.77086 0 4.37493V60.1564C0 60.7605 0.489627 61.2501 1.0937 61.2501H3.28109V64.5314C3.28109 65.1354 3.77072 65.6251 4.37479 65.6251H6.56232V68.9063C6.56232 69.5104 7.05195 70 7.65602 70H49.2188C49.8229 70 50.3125 69.5104 50.3125 68.9063V10.9375C50.3128 10.3359 49.8269 9.84713 49.2251 9.84384ZM9.69911 2.18754C10.3589 2.18754 10.9107 2.65816 11.0368 3.28123H8.36139C8.4874 2.65816 9.03918 2.18754 9.69911 2.18754ZM2.18754 59.0627V5.46877H6.1467V13.3872C6.1467 15.3462 7.74032 16.9398 9.69911 16.9398C11.6581 16.9398 13.2515 15.346 13.2515 13.3872V8.46982C13.2515 7.86576 12.7619 7.37613 12.1577 7.37613C11.5536 7.37613 11.064 7.86576 11.064 8.46982V13.3872C11.064 14.1399 10.4516 14.7523 9.69897 14.7523C8.94631 14.7523 8.3341 14.1399 8.3341 13.3872V5.46877H39.3749V59.0627H2.18754ZM5.46848 63.4378V61.2503H5.46863H40.4688C41.0729 61.2503 41.5625 60.7607 41.5625 60.1566V8.75H43.75V63.4378H5.46848ZM8.75 67.8129V65.6254H44.8438C45.4479 65.6254 45.9375 65.1357 45.9375 64.5317V12.0125C45.9417 12.0127 45.9456 12.0132 45.9497 12.0132L48.1251 12.0254V67.8129H8.75Z" fill="black"/>
<path d="M28.4377 24.0627H13.1248C12.5208 24.0627 12.031 24.5523 12.031 25.1565C12.0311 25.7604 12.5208 26.2502 13.1248 26.2502H28.4377C29.0418 26.2502 29.5314 25.7606 29.5314 25.1565C29.5314 24.5524 29.0418 24.0627 28.4377 24.0627Z" fill="#0071B3"/>
<path d="M28.4377 28.4377H13.1248C12.5208 28.4377 12.031 28.9273 12.031 29.5315C12.0311 30.1354 12.5208 30.6252 13.1248 30.6252H28.4377C29.0418 30.6252 29.5314 30.1356 29.5314 29.5315C29.5314 28.9274 29.0418 28.4377 28.4377 28.4377Z" fill="#0071B3"/>
<path d="M24.0626 32.8126H17.4999C16.8959 32.8126 16.4062 33.3022 16.4062 33.9065C16.4062 34.5105 16.8959 35.0002 17.4999 35.0002H24.0626C24.6666 35.0002 25.1562 34.5105 25.1562 33.9065C25.1562 33.3024 24.6668 32.8126 24.0626 32.8126Z" fill="#0071B3"/>
</svg>
