<svg width="70" height="62" viewBox="0 0 70 62" fill="none" xmlns="http://www.w3.org/2000/svg">
<path d="M66.7188 0.372803H3.28125C1.47219 0.372803 0 1.84499 0 3.65405V60.5334C0 61.1383 0.488906 61.6272 1.09375 61.6272H68.9062C69.5111 61.6272 70 61.1383 70 60.5334V3.65405C70 1.84499 68.5278 0.372803 66.7188 0.372803ZM2.1875 6.9353H67.8125V59.4397H2.1875V6.9353ZM3.28125 2.5603H4.39687C3.79312 2.5603 3.30969 3.04921 3.30969 3.65405C3.30969 4.2589 3.80406 4.7478 4.40891 4.7478C5.01266 4.7478 5.50266 4.2589 5.50266 3.65405C5.50266 3.04921 5.01266 2.5603 4.40891 2.5603H7.67703C7.07328 2.5603 6.58984 3.04921 6.58984 3.65405C6.58984 4.2589 7.08422 4.7478 7.68906 4.7478C8.29281 4.7478 8.78281 4.2589 8.78281 3.65405C8.78281 3.04921 8.29281 2.5603 7.68906 2.5603H10.9616C10.3578 2.5603 9.87437 3.04921 9.87437 3.65405C9.87437 4.2589 10.3687 4.7478 10.9736 4.7478C11.5773 4.7478 12.0673 4.2589 12.0673 3.65405C12.0673 3.04921 11.5773 2.5603 10.9736 2.5603H66.7188C67.3225 2.5603 67.8125 3.0503 67.8125 3.65405V4.7478H10.9725H7.68797H4.40781H2.1875V3.65405C2.1875 3.0503 2.6775 2.5603 3.28125 2.5603Z" fill="black"/>
<path d="M12.0281 35.3838C12.0281 35.9886 12.517 36.4775 13.1218 36.4775H56.8784C57.4832 36.4775 57.9721 35.9886 57.9721 35.3838C57.9721 34.7789 57.4832 34.29 56.8784 34.29H13.1218C12.517 34.29 12.0281 34.7789 12.0281 35.3838Z" fill="black"/>
<path d="M56.8781 39.5713H13.1216C12.5167 39.5713 12.0278 40.0602 12.0278 40.665C12.0278 41.2699 12.5167 41.7588 13.1216 41.7588H56.8781C57.483 41.7588 57.9719 41.2699 57.9719 40.665C57.9719 40.0602 57.483 39.5713 56.8781 39.5713Z" fill="black"/>
<path d="M57.9719 45.9463C57.9719 45.3414 57.483 44.8525 56.8781 44.8525H13.1216C12.5167 44.8525 12.0278 45.3414 12.0278 45.9463C12.0278 46.5511 12.5167 47.04 13.1216 47.04H56.8781C57.483 47.04 57.9719 46.5511 57.9719 45.9463Z" fill="black"/>
<path d="M45.9375 50.1338H24.0625C23.4577 50.1338 22.9688 50.6227 22.9688 51.2275C22.9688 51.8324 23.4577 52.3213 24.0625 52.3213H45.9375C46.5423 52.3213 47.0312 51.8324 47.0312 51.2275C47.0312 50.6227 46.5423 50.1338 45.9375 50.1338Z" fill="black"/>
<path d="M30.1317 30.3394C30.1383 30.3449 30.147 30.3493 30.1536 30.3558C31.4748 31.4397 33.1625 32.0916 35.0011 32.0916C36.8441 32.0916 38.5361 31.4365 39.8584 30.3471C39.8595 30.346 39.8617 30.346 39.8628 30.3449C41.5669 28.9394 42.6562 26.8121 42.6562 24.4343C42.6562 20.2135 39.2208 16.778 35 16.778C30.7792 16.778 27.3438 20.2135 27.3438 24.4343C27.3438 26.8088 28.4298 28.934 30.1317 30.3394ZM32.2919 29.1571C32.8934 28.2744 33.8975 27.7155 34.9989 27.7155C36.1014 27.7155 37.1055 28.2755 37.707 29.1582C36.9064 29.6197 35.9898 29.9041 35 29.9041C34.0102 29.9041 33.0947 29.6197 32.2919 29.1571ZM35 25.528C34.3963 25.528 33.9062 25.038 33.9062 24.4343C33.9062 23.8305 34.3963 23.3405 35 23.3405C35.6038 23.3405 36.0938 23.8305 36.0938 24.4343C36.0938 25.038 35.6038 25.528 35 25.528ZM35 18.9655C38.0155 18.9655 40.4688 21.4188 40.4688 24.4343C40.4688 25.6625 40.0466 26.7858 39.3597 27.7002C38.9156 27.1129 38.3502 26.6338 37.7169 26.2696C38.0734 25.7457 38.2812 25.1146 38.2812 24.4343C38.2812 22.6252 36.8091 21.153 35 21.153C33.1909 21.153 31.7188 22.6252 31.7188 24.4343C31.7188 25.1135 31.9266 25.7457 32.282 26.2707C31.6487 26.6349 31.0844 27.1129 30.6392 27.7002C29.9534 26.7847 29.5312 25.6625 29.5312 24.4343C29.5312 21.4188 31.9845 18.9655 35 18.9655Z" fill="#0071B3"/>
</svg>
