<svg width="70" height="62" viewBox="0 0 70 62" fill="none" xmlns="http://www.w3.org/2000/svg">
<path d="M67.7292 0H55.8683C55.2979 0 54.836 0.46196 54.836 1.03233C54.836 1.60217 55.2979 2.06467 55.8683 2.06467H67.7292C67.8429 2.06467 67.9353 2.15706 67.9353 2.27081V8.95988H2.06467V2.27081C2.06467 2.15706 2.15706 2.06467 2.27081 2.06467H51.1098C51.6802 2.06467 52.1422 1.60217 52.1422 1.03233C52.1422 0.46196 51.6802 0 51.1098 0H2.27081C1.01898 0 0 1.01845 0 2.27081V51.6973C0 52.9497 1.01898 53.9681 2.27081 53.9681H38.9488C38.7283 54.6223 38.8762 55.3748 39.3969 55.8955L41.9454 58.4441C42.2995 58.7981 42.7705 58.9931 43.272 58.9931C43.773 58.9931 44.244 58.7981 44.5981 58.4441L45.7132 57.3284C46.267 57.6109 46.8417 57.8491 47.4323 58.0408V59.6179C47.4323 60.6524 48.2735 61.4935 49.3079 61.4935H52.9118C53.9462 61.4935 54.7874 60.6524 54.7874 59.6179V58.0408C55.3786 57.8491 55.9527 57.6109 56.5065 57.3284L57.6216 58.4441C58.3527 59.1752 59.5426 59.1752 60.2743 58.4441L62.8228 55.8955C63.3435 55.3748 63.4914 54.6223 63.2709 53.9681H67.7292C68.981 53.9681 70 52.9497 70 51.6973V2.27081C70 1.01845 68.981 0 67.7292 0V0ZM58.9482 56.8504L57.4165 55.3193C57.0817 54.9839 56.562 54.9203 56.1556 55.1639C55.3294 55.6595 54.4381 56.0291 53.5046 56.2624C53.0453 56.3778 52.7232 56.7906 52.7232 57.2638V59.4289H49.4965V57.2638C49.4965 56.7906 49.1744 56.3778 48.7151 56.2624C47.7821 56.0291 46.8897 55.6595 46.0641 55.1639C45.6577 54.9203 45.138 54.9844 44.8032 55.3193L43.2715 56.8504L40.99 54.5689L42.5217 53.0373C42.8565 52.7024 42.9206 52.1828 42.6765 51.7769C42.1809 50.9502 41.8114 50.0583 41.578 49.1253C41.4626 48.666 41.0503 48.344 40.5766 48.344H38.4116V45.1172H40.5766C41.0498 45.1172 41.4626 44.7952 41.578 44.3359C41.8114 43.4029 42.1809 42.511 42.6765 41.6843C42.9201 41.2784 42.856 40.7587 42.5217 40.4239L40.99 38.8922L43.2715 36.6107L44.8032 38.1419C45.138 38.4767 45.6577 38.5408 46.0641 38.2973C46.8903 37.8017 47.7821 37.4321 48.7151 37.1982C49.1744 37.0834 49.4965 36.6705 49.4965 36.1974V34.0323H52.7232V36.1974C52.7232 36.6705 53.0453 37.0834 53.5046 37.1982C54.4376 37.4321 55.3294 37.8017 56.1556 38.2973C56.562 38.5408 57.0817 38.4767 57.4165 38.1419L58.9482 36.6107L61.2297 38.8922L59.6986 40.4239C59.3637 40.7587 59.2996 41.2784 59.5432 41.6843C60.0388 42.511 60.4083 43.4029 60.6417 44.3353C60.7571 44.7952 61.1694 45.1172 61.6431 45.1172H63.8081V48.344H61.6431C61.1699 48.344 60.7571 48.6665 60.6417 49.1258C60.4083 50.0583 60.0388 50.9502 59.5432 51.7769C59.2996 52.1828 59.3637 52.7024 59.6986 53.0373L61.2297 54.5689L58.9482 56.8504ZM67.7292 51.9035H61.8161C62.0506 51.4191 62.254 50.9203 62.4201 50.4081H63.9972C65.0311 50.4081 65.8728 49.567 65.8728 48.5325V44.9281C65.8728 43.8942 65.0311 43.0525 63.9972 43.0525H62.4201C62.2284 42.4619 61.9902 41.8877 61.7077 41.3339L62.8228 40.2188C63.1774 39.8642 63.3723 39.3932 63.3723 38.8922C63.3723 38.3913 63.1774 37.9202 62.8228 37.5661L60.2743 35.0176C59.9202 34.663 59.4492 34.4681 58.9477 34.4681C58.4467 34.4681 57.9762 34.663 57.6216 35.0171L56.5065 36.1327C55.9527 35.8502 55.378 35.612 54.7874 35.4203V33.8432C54.7874 32.8093 53.9462 31.9676 52.9118 31.9676H49.3079C48.2735 31.9676 47.4323 32.8093 47.4323 33.8432V35.4203C46.8417 35.612 46.267 35.8502 45.7132 36.1327L44.5981 35.0176C44.244 34.663 43.773 34.4681 43.272 34.4681C42.7705 34.4681 42.2995 34.663 41.9454 35.0176L39.3969 37.5661C39.0428 37.9202 38.8474 38.3913 38.8474 38.8922C38.8474 39.3932 39.0423 39.8642 39.3969 40.2188L40.512 41.3339C40.23 41.8877 39.9918 42.4619 39.7996 43.0525H38.2225C37.1886 43.0525 36.3474 43.8942 36.3474 44.9281V48.5325C36.3474 49.567 37.1886 50.4081 38.2225 50.4081H39.7996C39.9662 50.9203 40.1691 51.4191 40.4036 51.9035H2.27081C2.15706 51.9035 2.06467 51.8111 2.06467 51.6973V11.024H67.9353V51.6973C67.9353 51.8111 67.8429 51.9035 67.7292 51.9035Z" fill="black"/>
<path d="M15.9324 4.99451C15.6654 3.54347 14.3922 2.44011 12.8653 2.44011C11.4784 2.44011 10.3002 3.35068 9.89597 4.60464C9.49168 3.35068 8.31355 2.44011 6.92607 2.44011C5.20641 2.44011 3.80664 3.83987 3.80664 5.55954C3.80664 7.27974 5.20641 8.67897 6.92607 8.67897C8.31355 8.67897 9.49168 7.76894 9.89597 6.51443C10.3002 7.76894 11.4784 8.67897 12.8653 8.67897C14.3922 8.67897 15.6654 7.57614 15.9324 6.12511C16.1994 7.57614 17.4726 8.67897 18.9995 8.67897C20.7197 8.67897 22.1189 7.27974 22.1189 5.55954C22.1189 3.83987 20.7197 2.44011 18.9995 2.44011C17.4726 2.44011 16.1994 3.54347 15.9324 4.99451ZM6.92607 6.61484C6.34448 6.61484 5.87131 6.14166 5.87131 5.55954C5.87131 4.97795 6.34448 4.50478 6.92607 4.50478C7.50819 4.50478 7.98137 4.97795 7.98137 5.55954C7.98137 6.14166 7.50819 6.61484 6.92607 6.61484ZM12.8653 6.61484C12.2837 6.61484 11.81 6.14166 11.81 5.55954C11.81 4.97795 12.2837 4.50478 12.8653 4.50478C13.4469 4.50478 13.9201 4.97795 13.9201 5.55954C13.9201 6.14166 13.4469 6.61484 12.8653 6.61484ZM20.0548 5.55954C20.0548 6.14166 19.5811 6.61484 18.9995 6.61484C18.4179 6.61484 17.9447 6.14166 17.9447 5.55954C17.9447 4.97795 18.4179 4.50478 18.9995 4.50478C19.5811 4.50478 20.0548 4.97795 20.0548 5.55954Z" fill="black"/>
<path d="M51.11 41.3548C48.1454 41.3548 45.7341 43.766 45.7341 46.7306C45.7341 49.6951 48.1454 52.1064 51.11 52.1064C51.9944 52.1064 52.8718 51.8869 53.6473 51.4709C54.1498 51.2017 54.3389 50.5758 54.0692 50.0738C53.8 49.5712 53.1746 49.3822 52.6721 49.6513C52.1888 49.9109 51.6632 50.0423 51.11 50.0423C49.284 50.0423 47.7983 48.5565 47.7983 46.7306C47.7983 44.9046 49.284 43.4189 51.11 43.4189C52.9359 43.4189 54.4216 44.9046 54.4216 46.7306C54.4216 47.3009 54.8836 47.7629 55.4534 47.7629C56.0238 47.7629 56.4858 47.3009 56.4858 46.7306C56.4858 43.766 54.0745 41.3548 51.11 41.3548Z" fill="black"/>
<path d="M11.6725 14.9055H6.08836C5.13988 14.9055 4.36816 15.6778 4.36816 16.6263V44.1505C4.36816 45.099 5.13988 45.8707 6.08836 45.8707H11.6725C12.621 45.8707 13.3932 45.099 13.3932 44.1505V23.2945C13.3932 22.7247 12.9307 22.2627 12.3609 22.2627C11.7905 22.2627 11.3285 22.7247 11.3285 23.2945V43.8061H6.4323V16.9702H11.3285V18.5852C11.3285 19.1556 11.7905 19.6175 12.3609 19.6175C12.9307 19.6175 13.3932 19.1556 13.3932 18.5852V16.6263C13.3932 15.6778 12.621 14.9055 11.6725 14.9055Z" fill="#0071B3"/>
<path d="M21.4445 29.3561H15.8604C14.9114 29.3561 14.1396 30.1278 14.1396 31.0763V44.1505C14.1396 45.099 14.9114 45.8707 15.8604 45.8707H21.4445C22.393 45.8707 23.1647 45.099 23.1647 44.1505V31.0763C23.1647 30.1278 22.393 29.3561 21.4445 29.3561ZM21.1006 43.8061H16.2043V31.4207H21.1006V43.8061Z" fill="#0071B3"/>
<path d="M31.3561 25.144H25.772C24.8235 25.144 24.0518 25.9157 24.0518 26.8642V44.1505C24.0518 45.099 24.8235 45.8707 25.772 45.8707H31.3561C32.3046 45.8707 33.0768 45.099 33.0768 44.1505V26.8642C33.0768 25.9157 32.3046 25.144 31.3561 25.144ZM31.0121 43.8061H26.1159V27.2086H31.0121V43.8061Z" fill="#0071B3"/>
<path d="M63.923 15.8145H55.3054C54.8242 13.9469 53.1254 12.5626 51.1099 12.5626C49.0938 12.5626 47.3955 13.9469 46.9143 15.8145H37.3793C36.8094 15.8145 36.3469 16.2765 36.3469 16.8468C36.3469 17.4167 36.8094 17.8792 37.3793 17.8792H46.8924C47.3394 19.7943 49.0602 21.2261 51.1099 21.2261C53.1596 21.2261 54.8798 19.7943 55.3273 17.8792H63.923C64.4934 17.8792 64.9553 17.4167 64.9553 16.8468C64.9553 16.2765 64.4934 15.8145 63.923 15.8145ZM51.1099 19.1615C49.8596 19.1615 48.8423 18.1446 48.8423 16.8944C48.8423 15.6441 49.8596 14.6268 51.1099 14.6268C52.3601 14.6268 53.377 15.6441 53.377 16.8944C53.377 18.1446 52.3601 19.1615 51.1099 19.1615Z" fill="black"/>
<path d="M63.923 23.0398H63.6992C63.1774 21.2331 61.5101 19.9075 59.5378 19.9075C57.5656 19.9075 55.8982 21.2331 55.3765 23.0398H37.3793C36.8094 23.0398 36.3469 23.5017 36.3469 24.0721C36.3469 24.642 36.8094 25.1044 37.3793 25.1044H55.2932C55.6948 27.0799 57.4454 28.571 59.5378 28.571C61.6303 28.571 63.3809 27.0799 63.7825 25.1044H63.923C64.4934 25.1044 64.9553 24.642 64.9553 24.0721C64.9553 23.5017 64.4934 23.0398 63.923 23.0398ZM59.5378 26.5069C58.2876 26.5069 57.2708 25.4895 57.2708 24.2393C57.2708 22.989 58.2876 21.9722 59.5378 21.9722C60.7881 21.9722 61.8049 22.989 61.8049 24.2393C61.8049 25.4895 60.7881 26.5069 59.5378 26.5069Z" fill="black"/>
</svg>
