<svg width="59" height="70" viewBox="0 0 59 70" fill="none" xmlns="http://www.w3.org/2000/svg">
<path d="M47.8333 36.1666H33.8333V24.5C33.8333 22.5164 32.3168 21 30.3333 21H29.1666C27.183 21 25.6666 22.5164 25.6666 24.5V39.6666H23.3333C21.3497 39.6666 19.8333 41.1831 19.8333 43.1666V51.6831L26.8333 64.5164V70H47.8333V64.4002L51.3333 56.2335V39.6666C51.3333 37.6831 49.8168 36.1666 47.8333 36.1666ZM29.1666 67.6666V65.3333H45.4999V67.6666H29.1666ZM48.9999 55.7664L45.8497 63H28.7L22.1666 50.9835V43.1666C22.1666 42.4665 22.6331 42 23.3333 42H25.6666V46.6666H27.9999V24.5C27.9999 23.7999 28.4665 23.3333 29.1666 23.3333H30.3333C31.0334 23.3333 31.4999 23.7999 31.4999 24.5V44.3333H33.8333V38.5H37.3333V44.3333H39.6666V38.5H43.1666V44.3333H45.4999V38.5H47.8333C48.5334 38.5 48.9999 38.9665 48.9999 39.6666V55.7664Z" fill="#0071B3"/>
<path d="M43.1667 56.8169L41.0669 59.9666L42.9331 61.3668L45.5 57.5164V52.5H43.1667V56.8169Z" fill="#0071B3"/>
<path d="M52.1502 0H6.18311L0 16.0998V59.5H21V57.1667H2.33333V17.5H16.3333V15.1667H2.91667L5.95011 7H19.8333V4.66667H6.88322L7.8169 2.33333H50.5164L51.4501 4.66667H38.5V7H52.3832L55.4167 15.1667H42V17.5H56V57.1667H53.6667V59.5H58.3333V16.0998L52.1502 0Z" fill="black"/>
<path d="M25.3169 14.3498L23.6831 15.9836L26.8333 19.1332L33.4836 12.4836L31.8498 10.8498L26.8333 15.8668L25.3169 14.3498Z" fill="black"/>
<path d="M37.0998 22.1667C40.9501 17.8498 40.4836 11.2001 36.1667 7.34976C31.7336 3.49998 25.0834 3.84976 21.2336 8.16665C17.3833 12.4835 17.8498 19.1332 22.1667 22.9835L23.6831 21.2335C20.2999 18.2001 19.9502 13.0669 22.9836 9.68309C26.0165 6.29987 31.1503 5.9501 34.5335 8.98354C37.9167 12.0164 38.2665 17.1502 35.2336 20.5334L37.0998 22.1667Z" fill="black"/>
</svg>
